<?xml version="1.0" standalone="no"?>
  <!DOCTYPE svg PUBLIC "-//W3C//DTD SVG 1.1//EN" "http://www.w3.org/Graphics/SVG/1.1/DTD/svg11.dtd" >
  <svg>
  <metadata>
  Created by font-carrier
  </metadata>
  <defs>
  <font id="NexaLight" horiz-adv-x="1090" vert-adv-y="1090" >
    <font-face
      
      font-family="Nexa Light"
      
      font-weight="400"
      
      font-stretch="normal"
      
      units-per-em="1000"
      
      ascent="750"
      
      descent="-250"
      
    />
      <missing-glyph />

      

      
      <glyph glyph-name="uni21" unicode="&#x21;" d="M60 700L111 700L111 141L60 141L60 700M60.50 6.50Q60.50 6.50 54.25 11.75Q48 17 48 35Q48 53 60.50 63.50Q73 74 87.50 74Q102 74 114.50 63.50Q127 53 127 35Q127 17 114.50 6.50Q102-4 87.50-4Q73-4 60.50 6.50Z"  horiz-adv-x="195" vert-adv-y="1000"  />

      
      <glyph glyph-name="uni22" unicode="&#x22;" d="M54 704L99 704L99 448L54 448L54 704M194 704L238 704L238 448L194 448L194 704Z"  horiz-adv-x="319" vert-adv-y="1000"  />

      
      <glyph glyph-name="uni23" unicode="&#x23;" d="M241 700L287 700L246 532L447 532L489 700L535 700L493 532L584 532L584 494L484 494L412 211L507 211L507 171L403 171L361 0L315 0L357 171L156 171L114 0L68 0L110 171L29 171L29 211L118 211L191 494L106 494L106 532L200 532L241 700M438 494L237 494L164 211L366 211L438 494Z"  horiz-adv-x="615" vert-adv-y="1000"  />

      
      <glyph glyph-name="uni24" unicode="&#x24;" d="M284 805L329 805L329 705Q404 701 467 671Q530 641 562 584L515 558Q489 607 430 630.50Q371 654 306 655Q272 655 237 647.50Q202 640 168.50 625.50Q135 611 114 582.50Q93 554 94 518Q95 492 106.50 472.50Q118 453 135 440Q152 427 183 416.50Q214 406 240 400Q266 394 308 386Q439 361 487 337Q583 290 583 185Q583 123 541.50 79.50Q500 36 445.50 18Q391 0 328-3L328-100L284-100L284-3Q199 0 126.50 34Q54 68 20 134L68 158Q97 102 164.50 75.50Q232 49 306 49Q342 49 378 56Q414 63 449.50 77.50Q485 92 507 120Q529 148 529 186Q529 211 521 231.50Q513 252 494.50 267Q476 282 458.50 292Q441 302 409 311Q377 320 357 324.50Q337 329 299 336Q262 343 244 347Q226 351 193 359.50Q160 368 143.50 376Q127 384 104 398Q81 412 70 427.50Q59 443 50 466Q41 489 40 516Q39 563 60.50 599.50Q82 636 119 657.50Q156 679 197.50 691Q239 703 284 705L284 805Z"  horiz-adv-x="633" vert-adv-y="1000"  />

      
      <glyph glyph-name="uni25" unicode="&#x25;" d="M593 703L538 702L92 0L148 0L593 703M173 705Q222 705 257.50 683Q293 661 309.50 628.50Q326 596 326 557.50Q326 519 309.50 486.50Q293 454 257.50 432Q222 410 173 410Q131 410 98.50 426.50Q66 443 49 469Q32 495 24 526Q16 557 24 588.50Q32 620 49 646Q66 672 98.50 688.50Q131 705 173 705M514 289Q556 289 589 272.50Q622 256 639 230Q656 204 664 173Q672 142 664 110.50Q656 79 639 53Q622 27 589 10.50Q556-6 514-6Q466-6 430 16Q394 38 378 70.50Q362 103 362 141.50Q362 180 378 212.50Q394 245 430 267Q466 289 514 289M582 226Q582 226 568 237Q554 248 514 248Q474 248 446 226Q418 204 412 173Q406 142 412.50 111Q419 80 447 58Q475 36 515 36Q555 36 583 58Q611 80 617 111Q623 142 616.50 173Q610 204 582 226M173 662Q132 662 104.50 640.50Q77 619 70.50 588.50Q64 558 70.50 527.50Q77 497 105 475.50Q133 454 174 454Q214 454 241 475.50Q268 497 274.50 527.50Q281 558 274.50 588.50Q268 619 240.50 640.50Q213 662 173 662Z"  horiz-adv-x="722" vert-adv-y="1000"  />

      
      <glyph glyph-name="uni26" unicode="&#x26;" d="M562 531L515 531Q515 563 505 586.50Q495 610 479 624Q463 638 439 646Q415 654 391 657Q367 660 336 660Q239 660 188.50 620.50Q138 581 139 519Q139 481 158 452.50Q177 424 207.50 408.50Q238 393 271 386Q304 379 338 379L635 379L635 336L571 336L571 183Q571 118 590.50 79.50Q610 41 658 42L658 0Q616-6 584 19Q552 44 541 89Q481-9 335-9Q209-9 142.50 43Q76 95 76 186Q76 247 117.50 292.50Q159 338 217 357Q161 374 124.50 417.50Q88 461 88 518Q88 601 154 652.50Q220 704 337 704Q562 704 562 531M527 183L527 336L335 336Q238 336 182.50 290.50Q127 245 127 186Q127 116 179 77Q231 38 334 38Q367 38 398 44.50Q429 51 459.50 66Q490 81 508.50 111Q527 141 527 183Z"  horiz-adv-x="720" vert-adv-y="1000"  />

      
      <glyph glyph-name="uni27" unicode="&#x27;" d="M73 704L117 704L117 448L73 448L73 704Z"  horiz-adv-x="209" vert-adv-y="1000"  />

      
      <glyph glyph-name="uni28" unicode="&#x28;" d="M308 766L334 728Q242 664 191.50 554.50Q141 445 139.50 330.50Q138 216 188 103.50Q238-9 334-79L308-118Q202-49 144.50 73.50Q87 196 87 324Q87 452 144.50 574.50Q202 697 308 766Z"  horiz-adv-x="385" vert-adv-y="1000"  />

      
      <glyph glyph-name="uni29" unicode="&#x29;" d="M18 728L44 766Q150 697 207.50 574.50Q265 452 265 324Q265 196 207.50 73.50Q150-49 44-118L18-79Q114-9 164 103.50Q214 216 212.50 330.50Q211 445 160.50 554.50Q110 664 18 728Z"  horiz-adv-x="349" vert-adv-y="1000"  />

      
      <glyph glyph-name="uni2a" unicode="&#x2a;" d="M188 493L137 566L84 493L51 516L108 587L29 610L40 646L119 620L117 701L158 701L156 620L241 645L252 609L166 587L221 517L188 493Z"  horiz-adv-x="294" vert-adv-y="1000"  />

      
      <glyph glyph-name="uni2b" unicode="&#x2b;" d="M49 366L224 366L224 538L271 538L271 366L446 366L446 318L271 318L271 141L224 141L224 318L49 318L49 366Z"  horiz-adv-x="503" vert-adv-y="1000"  />

      
      <glyph glyph-name="uni2c" unicode="&#x2c;" d="M45 30Q45 48 57.50 58.50Q70 69 84.50 69Q99 69 111.50 58.50Q124 48 124 30Q124 22 121 13L81-89L38-89L69-6Q45 3 45 30Z"  horiz-adv-x="198" vert-adv-y="1000"  />

      
      <glyph glyph-name="uni2d" unicode="&#x2d;" d="M58 289L58 341L408 341L408 289L58 289Z"  horiz-adv-x="478" vert-adv-y="1000"  />

      
      <glyph glyph-name="uni2e" unicode="&#x2e;" d="M48.50 1.50Q48.50 1.50 42.25 6.75Q36 12 36 30Q36 48 48.50 58.50Q61 69 75.50 69Q90 69 102.50 58.50Q115 48 115 30Q115 12 102.50 1.50Q90-9 75.50-9Q61-9 48.50 1.50Z"  horiz-adv-x="191" vert-adv-y="1000"  />

      
      <glyph glyph-name="uni2f" unicode="&#x2f;" d="M41-82L-12-82L361 759L415 759L41-82Z"  horiz-adv-x="436" vert-adv-y="1000"  />

      
      <glyph glyph-name="uni30" unicode="&#x30;" d="M88 434L88 267Q88 213 106.50 169Q125 125 155 98Q185 71 224 56.50Q263 42 303 42Q343 42 382 56.50Q421 71 451 98Q481 125 499.50 169Q518 213 518 267L518 434Q518 488 499.50 531.50Q481 575 451 602Q421 629 382 643.50Q343 658 303 658Q263 658 224 643.50Q185 629 155 602.50Q125 576 106.50 532Q88 488 88 434M35 267L35 434Q35 522 74.50 586Q114 650 174 679Q234 708 303 708Q372 708 432 679Q492 650 531.50 585.50Q571 521 571 434L571 267Q571 201 548 147.50Q525 94 487.50 61Q450 28 401.50 10Q353-8 303-8Q253-8 204.50 9.50Q156 27 118.50 60Q81 93 58 147Q35 201 35 267Z"  horiz-adv-x="635" vert-adv-y="1000"  />

      
      <glyph glyph-name="uni31" unicode="&#x31;" d="M4 0L4 47L122 47L122 652L4 652L4 700L176 700L176 47L294 47L294 0L4 0Z"  horiz-adv-x="328" vert-adv-y="1000"  />

      
      <glyph glyph-name="uni32" unicode="&#x32;" d="M99 514L46 514Q46 567 69.50 606.50Q93 646 133 667.50Q173 689 218 699Q263 709 314 709Q384 709 442 690.50Q500 672 542 624Q584 576 584 505Q584 437 541.50 390Q499 343 440.50 323.50Q382 304 316 304Q95 302 95 159L95 52L577 52L577 0L42 0L42 158Q42 214 65.50 253.50Q89 293 130 314Q171 335 216 344Q261 353 314 353Q351 353 387 360.50Q423 368 457.50 384.50Q492 401 513 432Q534 463 534 505Q534 549 513.50 581Q493 613 459.50 630Q426 647 389.50 654.50Q353 662 314 662Q276 662 240.50 655Q205 648 172 632Q139 616 119 585.50Q99 555 99 514Z"  horiz-adv-x="661" vert-adv-y="1000"  />

      
      <glyph glyph-name="uni33" unicode="&#x33;" d="M94 529L43 529Q43 581 67 618Q91 655 131 674Q171 693 213.50 701Q256 709 304 709Q425 709 493 657Q561 605 562 524Q562 465 519 418.50Q476 372 414 361Q480 349 527.50 300Q575 251 575 189Q575 103 504 47Q433-9 306-9Q256-9 211.50-0.50Q167 8 124.50 27Q82 46 57 85Q32 124 32 178L84 178Q84 142 99.50 115.50Q115 89 136.50 75Q158 61 190.50 53Q223 45 249 43Q275 41 307 41Q412 41 468 82.50Q524 124 524 187Q524 247 466 292Q408 337 306 337L190 337L190 382L303 382Q401 382 456.50 425.50Q512 469 513 524Q514 582 459 623Q404 664 305 664Q94 664 94 529Z"  horiz-adv-x="640" vert-adv-y="1000"  />

      
      <glyph glyph-name="uni34" unicode="&#x34;" d="M418 700L507 700L507 212L595 212L595 158L507 158L507 0L453 0L453 158L24 158L13 223L418 700M453 212L453 660L71 212L453 212Z"  horiz-adv-x="639" vert-adv-y="1000"  />

      
      <glyph glyph-name="uni35" unicode="&#x35;" d="M329 380L54 380L54 700L541 700L541 652L104 652L104 428L329 428Q397 428 447.50 410Q498 392 526 361Q554 330 567 293Q580 256 580 213Q580 120 510 57.50Q440-5 308-5Q256-5 211.50 4.50Q167 14 126 35Q85 56 61 96.50Q37 137 37 193L91 193Q91 49 308 49Q416 49 471 94Q526 139 526 212Q526 285 481 332.50Q436 380 329 380Z"  horiz-adv-x="637" vert-adv-y="1000"  />

      
      <glyph glyph-name="uni36" unicode="&#x36;" d="M102 516L102 325Q171 424 326 424Q378 424 425 411.50Q472 399 512 374.50Q552 350 575.50 307Q599 264 599 208Q599 151 575 107.50Q551 64 511 40Q471 16 424 4Q377-8 325-8Q254-8 194 12.50Q134 33 91.50 84Q49 135 49 210L49 516Q49 609 127.50 659.50Q206 710 315 710Q425 710 500.50 664Q576 618 582 533L528 533Q524 594 464.50 628Q405 662 315 662Q229 662 165.50 623.50Q102 585 102 516M325 43Q366 43 402.50 51Q439 59 472.50 77Q506 95 526 128.50Q546 162 546 208Q546 288 478.50 331.50Q411 375 326 375Q241 375 172.50 332Q104 289 103 209Q103 164 123 130.50Q143 97 176.50 78.50Q210 60 247.50 51.50Q285 43 325 43Z"  horiz-adv-x="660" vert-adv-y="1000"  />

      
      <glyph glyph-name="uni37" unicode="&#x37;" d="M107 0L485 650L31 650L31 700L541 700L548 656L168 0L107 0Z"  horiz-adv-x="591" vert-adv-y="1000"  />

      
      <glyph glyph-name="uni38" unicode="&#x38;" d="M394.50 331.50Q394.50 331.50 375.75 335.75Q357 340 323 340Q289 340 251.50 332Q214 324 175.50 307.50Q137 291 112.50 258.50Q88 226 88 184Q88 130 131.50 94.50Q175 59 224.50 47.50Q274 36 323 36Q358 36 395 43Q432 50 470 66Q508 82 533 112.50Q558 143 558 184Q558 225 533 257Q508 289 470 306Q432 323 394.50 331.50M423-4.50Q423-4.50 399-9.75Q375-15 323-15Q271-15 223-4.50Q175 6 131 27.50Q87 49 60.50 89.50Q34 130 34 184Q34 252 80 299.50Q126 347 192 361Q46 406 46 523Q46 575 71.50 614Q97 653 139.50 674Q182 695 228 705Q274 715 323 715Q372 715 417.50 705.50Q463 696 505.50 675.50Q548 655 574 615.50Q600 576 600 523Q600 461 558 420.50Q516 380 448 359Q514 345 562.50 297.50Q611 250 611 184Q611 130 584.50 89.50Q558 49 514.50 27.50Q471 6 423-4.50M323 669Q287 669 251.50 662Q216 655 180 639.50Q144 624 121.50 594Q99 564 99 523Q99 485 121.50 457Q144 429 180 414Q216 399 252 392.50Q288 386 323 386Q358 386 394 392.50Q430 399 466 414Q502 429 524.50 457Q547 485 547 523Q547 563 524.50 593Q502 623 466.50 638.50Q431 654 394.50 661.50Q358 669 323 669Z"  horiz-adv-x="680" vert-adv-y="1000"  />

      
      <glyph glyph-name="uni39" unicode="&#x39;" d="M538 186L538 377Q469 278 313 278Q261 278 214 290.50Q167 303 127 327.50Q87 352 63.50 395Q40 438 40 494Q40 551 64 594.50Q88 638 128 662Q168 686 215 698Q262 710 314 710Q385 710 445 689.50Q505 669 547.50 618Q590 567 590 492L590 186Q590 93 511.50 42.50Q433-8 324-8Q214-8 138.50 38Q63 84 57 169L111 169Q115 108 174.50 74Q234 40 324 40Q410 40 474 78.50Q538 117 538 186M314 659Q273 659 236.50 651Q200 643 166.50 625Q133 607 113 573.50Q93 540 93 494Q93 450 113 416Q133 382 166 363.50Q199 345 236 336Q273 327 313 327Q398 327 466.50 370Q535 413 536 493Q536 538 516 571.50Q496 605 462.50 623.50Q429 642 391.50 650.50Q354 659 314 659Z"  horiz-adv-x="672" vert-adv-y="1000"  />

      
      <glyph glyph-name="uni3a" unicode="&#x3a;" d="M64.50 1.50Q64.50 1.50 58.25 6.75Q52 12 52 30Q52 48 64.50 58.50Q77 69 91.50 69Q106 69 118.50 58.50Q131 48 131 30Q131 12 118.50 1.50Q106-9 91.50-9Q77-9 64.50 1.50M64.50 301.50Q64.50 301.50 58.25 306.75Q52 312 52 330Q52 348 64.50 358.50Q77 369 91.50 369Q106 369 118.50 358.50Q131 348 131 330Q131 312 118.50 301.50Q106 291 91.50 291Q77 291 64.50 301.50Z"  horiz-adv-x="210" vert-adv-y="1000"  />

      
      <glyph glyph-name="uni3b" unicode="&#x3b;" d="M64.50 301.50Q64.50 301.50 58.25 306.75Q52 312 52 330Q52 348 64.50 358.50Q77 369 91.50 369Q106 369 118.50 358.50Q131 348 131 330Q131 312 118.50 301.50Q106 291 91.50 291Q77 291 64.50 301.50M52 30Q52 48 64.50 58.50Q77 69 91.50 69Q106 69 118.50 58.50Q131 48 131 30Q131 22 128 13L88-89L45-89L76-6Q52 3 52 30Z"  horiz-adv-x="210" vert-adv-y="1000"  />

      
      <glyph glyph-name="uni3c" unicode="&#x3c;" d="M33 337L244 523L274 489L82 318L278 146L244 112L33 298L33 337Z"  horiz-adv-x="355" vert-adv-y="1000"  />

      
      <glyph glyph-name="uni3d" unicode="&#x3d;" d="M53 207L53 256L420 256L420 207L53 207M53 382L53 432L420 432L420 382L53 382Z"  horiz-adv-x="492" vert-adv-y="1000"  />

      
      <glyph glyph-name="uni3e" unicode="&#x3e;" d="M78 523L289 337L289 298L78 112L44 146L240 318L48 489L78 523Z"  horiz-adv-x="359" vert-adv-y="1000"  />

      
      <glyph glyph-name="uni3f" unicode="&#x3f;" d="M85 508L33 508Q33 552 49 587.50Q65 623 91 645.50Q117 668 152.50 683.50Q188 699 225 705.50Q262 712 301 712Q342 712 378.50 706Q415 700 451 685.50Q487 671 513 648.50Q539 626 555 589.50Q571 553 571 507Q571 459 558.50 424Q546 389 521.50 368.50Q497 348 476.50 338Q456 328 426 319Q347 295 326.50 265Q306 235 306 141L255 141Q255 244 288 291Q321 338 413 365Q465 380 492.50 409.50Q520 439 520 507Q520 554 500 586.50Q480 619 445.50 635Q411 651 376.50 657.50Q342 664 301 664Q263 664 228 657Q193 650 159.50 633.50Q126 617 105.50 584.50Q85 552 85 508M265.50 1Q265.50 1 255.75 6Q246 11 246 36Q246 61 265.50 71Q285 81 304.50 71Q324 61 324 36Q324 11 304.50 1Q285-9 265.50 1Z"  horiz-adv-x="647" vert-adv-y="1000"  />

      
      <glyph glyph-name="uni40" unicode="&#x40;" d="M444 695Q621 695 726.50 592Q832 489 832 310Q832 205 792 125Q771 83 734 70.50Q697 58 668.50 81Q640 104 640 152L640 151Q605 103 551.50 76Q498 49 438 49Q334 49 260.50 122.50Q187 196 187 300Q187 412 259 481.50Q331 551 438 551Q500 551 555 522.50Q610 494 640 441L640 526L684 526L684 153Q684 128 696 118.50Q708 109 724.50 117Q741 125 752 145Q785 204 785 310Q785 473 694 561Q603 649 444 649Q290 649 197 553Q104 457 104 307Q104 157 196.50 65Q289-27 444-27Q515-27 597 14L623-24Q544-73 444-73Q265-73 159 33.50Q53 140 53 307Q53 472 159.50 583.50Q266 695 444 695M438 504Q352 504 294 448Q236 392 236 300Q236 216 295 156.50Q354 97 438 97Q503 97 550.50 127Q598 157 619.50 202.50Q641 248 641 300.50Q641 353 619.50 398.50Q598 444 550.50 474Q503 504 438 504Z"  horiz-adv-x="926" vert-adv-y="1000"  />

      
      <glyph glyph-name="uni41" unicode="&#x41;" d="M679 0L621 0L544 172L126 172L50 0L-8 0L306 700L365 700L679 0M147 222L523 222L335 648L147 222Z"  horiz-adv-x="694" vert-adv-y="1000"  />

      
      <glyph glyph-name="uni42" unicode="&#x42;" d="M119 332L119 52L352 52Q553 52 553 184Q552 260 495.50 296Q439 332 359 332L119 332M119 654L119 383L359 383Q406 383 442 393Q478 403 504.50 432.50Q531 462 531 509Q531 580 478 617Q425 654 352 654L119 654M352 700Q449 700 515.50 651.50Q582 603 582 509Q582 455 551.50 415.50Q521 376 468 359Q533 341 569.50 293Q606 245 606 183Q606 131 584 94Q562 57 523.50 37Q485 17 443 8.50Q401 0 352 0L65 0L65 700L352 700Z"  horiz-adv-x="671" vert-adv-y="1000"  />

      
      <glyph glyph-name="uni43" unicode="&#x43;" d="M606 131L642 97Q537-8 387-8Q218-8 123 94Q28 196 27 346Q26 442 65 523Q104 604 188 656Q272 708 387 708Q537 708 642 603L605 571Q516 660 387 660Q240 660 159 570.50Q78 481 79 348Q81 218 161.50 130Q242 42 387 42Q515 42 606 131Z"  horiz-adv-x="673" vert-adv-y="1000"  />

      
      <glyph glyph-name="uni44" unicode="&#x44;" d="M296 700Q382 700 450.50 671Q519 642 561.50 593Q604 544 626.50 484Q649 424 651 358Q653 290 631.50 227Q610 164 567.50 112.50Q525 61 455 30.50Q385 0 296 0L59 0L59 700L296 700M296 649L113 649L113 52L296 52Q442 52 520.50 143.50Q599 235 597 358Q595 478 516.50 563.50Q438 649 296 649Z"  horiz-adv-x="709" vert-adv-y="1000"  />

      
      <glyph glyph-name="uni45" unicode="&#x45;" d="M117 649L117 377L527 377L527 328L117 328L117 52L559 52L559 0L64 0L64 700L547 700L547 649L117 649Z"  horiz-adv-x="614" vert-adv-y="1000"  />

      
      <glyph glyph-name="uni46" unicode="&#x46;" d="M118 646L118 367L521 367L521 316L118 316L118-1L64-1L64 700L535 700L535 646L118 646Z"  horiz-adv-x="590" vert-adv-y="1000"  />

      
      <glyph glyph-name="uni47" unicode="&#x47;" d="M646 605L615 571Q570 615 510.50 638Q451 661 390 661Q244 661 162 570Q80 479 81 349Q81 218 162 130Q243 42 390 42Q515 42 603 123L603 319L359 319L359 366L654 366L654 104Q541-9 390-9Q275-9 191.50 41Q108 91 68.50 170.50Q29 250 29 348Q28 511 128.50 610.50Q229 710 390 710Q540 710 646 605Z"  horiz-adv-x="736" vert-adv-y="1000"  />

      
      <glyph glyph-name="uni48" unicode="&#x48;" d="M619 0L565 0L565 318L119 318L119 0L65 0L65 700L119 700L119 367L565 367L565 700L619 700L619 0Z"  horiz-adv-x="709" vert-adv-y="1000"  />

      
      <glyph glyph-name="uni49" unicode="&#x49;" d="M118 0L65 0L65 700L118 700L118 0Z"  horiz-adv-x="208" vert-adv-y="1000"  />

      
      <glyph glyph-name="uni4a" unicode="&#x4a;" d="M536 264L536 653L268 653L268 700L589 700L589 264Q589 137 511.50 63Q434-11 312-11Q192-11 114 66Q36 143 36 264L86 264Q86 165 150 102Q214 39 312 39Q412 39 474 98.50Q536 158 536 264Z"  horiz-adv-x="679" vert-adv-y="1000"  />

      
      <glyph glyph-name="uni4b" unicode="&#x4b;" d="M556 4L556 0L488 0L119 345L119 1L65 1L65 700L119 700L119 381L459 700L524 700L524 695L172 365L556 4Z"  horiz-adv-x="563" vert-adv-y="1000"  />

      
      <glyph glyph-name="uni4c" unicode="&#x4c;" d="M64 700L118 700L118 51L512 51L512 0L64 0L64 700Z"  horiz-adv-x="550" vert-adv-y="1000"  />

      
      <glyph glyph-name="uni4d" unicode="&#x4d;" d="M675 0L675 622L407 212L389 212L119 622L119 0L65 0L65 700L129 700L397 292L662 700L728 700L728 0L675 0Z"  horiz-adv-x="818" vert-adv-y="1000"  />

      
      <glyph glyph-name="uni4e" unicode="&#x4e;" d="M65 700L88 700L559 121L559 700L612 700L612 0L591 0L119 578L119 0L65 0L65 700Z"  horiz-adv-x="704" vert-adv-y="1000"  />

      
      <glyph glyph-name="uni4f" unicode="&#x4f;" d="M387 711Q555 711 648 605.50Q741 500 740 349Q740 279 717 215Q694 151 651.50 100Q609 49 540.50 18.50Q472-12 387-12Q302-12 233.50 18.50Q165 49 122 100.50Q79 152 56.50 216Q34 280 34 351Q34 448 72 528Q110 608 192 659.50Q274 711 387 711M387 661Q243 661 164.50 571.50Q86 482 87 350Q88 222 167 130Q246 38 387 38Q483 38 553 84Q623 130 655.50 199Q688 268 688 350Q688 480 609 570.50Q530 661 387 661Z"  horiz-adv-x="804" vert-adv-y="1000"  />

      
      <glyph glyph-name="uni50" unicode="&#x50;" d="M371 650L118 650L118 291L371 291Q419 291 456.50 311Q494 331 513.50 362.50Q533 394 542 432Q551 470 542 508.50Q533 547 513.50 578.50Q494 610 456.50 630Q419 650 371 650M371 242L118 242L118 0L64 0L64 700L371 700Q426 700 470.50 680.50Q515 661 542.50 628.50Q570 596 584.50 555Q599 514 599 471Q599 428 584.50 387Q570 346 542.50 313.50Q515 281 470.50 261.50Q426 242 371 242Z"  horiz-adv-x="654" vert-adv-y="1000"  />

      
      <glyph glyph-name="uni51" unicode="&#x51;" d="M387 709Q556 709 648.50 605.50Q741 502 740 350Q740 211 658 111L747 25L713-10L625 74Q533-7 387-7Q217-7 124 97.50Q31 202 33 356Q35 505 127.50 607Q220 709 387 709M387 658Q255 658 170.50 572Q86 486 86 356Q84 224 163 134Q242 44 387 44Q530 44 608.50 132.50Q687 221 687 350Q687 481 608.50 569.50Q530 658 387 658Z"  horiz-adv-x="781" vert-adv-y="1000"  />

      
      <glyph glyph-name="uni52" unicode="&#x52;" d="M376 268L623 0L552 0L310 265L119 265L119 0L65 0L65 700L373 700Q481 700 541.50 635.50Q602 571 603 482Q604 391 544.50 329.50Q485 268 376 268M119 650L119 316L367 316Q455 316 499 361Q543 406 544 483Q545 550 500 600Q455 650 373 650L119 650Z"  horiz-adv-x="649" vert-adv-y="1000"  />

      
      <glyph glyph-name="uni53" unicode="&#x53;" d="M562 591L518 565Q483 621 430.50 640Q378 659 306 660Q258 660 213.50 649Q169 638 131.50 604Q94 570 94 518Q94 492 106 472Q118 452 134.50 439.50Q151 427 182.50 416Q214 405 239.50 399.50Q265 394 308 386Q439 361 487 337Q583 290 583 185Q583 129 556.50 88.50Q530 48 487 27.50Q444 7 399.50-2Q355-11 306-11Q217-11 137 27.50Q57 66 19 141L67 165Q97 105 166.50 71.50Q236 38 306 38Q343 38 378 44Q413 50 449 65Q485 80 507 111Q529 142 529 186Q529 211 521 231.50Q513 252 494.50 267Q476 282 458.50 292Q441 302 409 311Q377 320 357 324.50Q337 329 299 336Q257 344 234.50 349Q212 354 176 364.50Q140 375 120.50 387Q101 399 80 417Q59 435 49.50 460Q40 485 40 516Q39 569 63.50 608.50Q88 648 129.50 669Q171 690 215 700Q259 710 306 710Q393 710 453.50 686Q514 662 562 591Z"  horiz-adv-x="633" vert-adv-y="1000"  />

      
      <glyph glyph-name="uni54" unicode="&#x54;" d="M263 0L263 651L10 651L10 699L570 699L570 651L317 651L317 0L263 0Z"  horiz-adv-x="608" vert-adv-y="1000"  />

      
      <glyph glyph-name="uni55" unicode="&#x55;" d="M547 700L600 700L600 265Q600 199 577 145.50Q554 92 516.50 59Q479 26 430.50 8Q382-10 332-10Q282-10 233.50 7.50Q185 25 147.50 58Q110 91 87 145Q64 199 64 265L64 700L117 700L117 265Q117 211 135.50 167Q154 123 184 96Q214 69 253 54Q292 39 332 39Q372 39 411 54Q450 69 480 96Q510 123 528.50 167Q547 211 547 265L547 700Z"  horiz-adv-x="683" vert-adv-y="1000"  />

      
      <glyph glyph-name="uni56" unicode="&#x56;" d="M587 700L645 700L357-2L299-2L11 700L69 700L328 60L587 700Z"  horiz-adv-x="674" vert-adv-y="1000"  />

      
      <glyph glyph-name="uni57" unicode="&#x57;" d="M281 60L496 700L526 700L740 60L957 700L1015 700L768-2L710-2L599 326L511 603L423 328L311-2L253-2L8 700L65 700L281 60Z"  horiz-adv-x="1045" vert-adv-y="1000"  />

      
      <glyph glyph-name="uni58" unicode="&#x58;" d="M320 400L533 699L591 699L591 698L353 359L610 1L610 0L546 0L320 320L94 0L30 0L30 1L287 359L49 698L49 699L108 699L320 400Z"  horiz-adv-x="646" vert-adv-y="1000"  />

      
      <glyph glyph-name="uni59" unicode="&#x59;" d="M277 0L277 280L4 699L4 700L67 700L304 332L542 700L605 700L605 699L331 280L331 0L277 0Z"  horiz-adv-x="639" vert-adv-y="1000"  />

      
      <glyph glyph-name="uni5a" unicode="&#x5a;" d="M37 650L37 700L544 700L544 681L93 53L544 53L544 0L13 0L13 23L458 650L37 650Z"  horiz-adv-x="578" vert-adv-y="1000"  />

      
      <glyph glyph-name="uni5b" unicode="&#x5b;" d="M78-120L78 762L259 762L259 714L130 714L130-72L259-72L259-120L78-120Z"  horiz-adv-x="277" vert-adv-y="1000"  />

      
      <glyph glyph-name="uni5c" unicode="&#x5c;" d="M422-82L370-82L-4 759L49 759L422-82Z"  horiz-adv-x="436" vert-adv-y="1000"  />

      
      <glyph glyph-name="uni5d" unicode="&#x5d;" d="M198 762L198-120L17-120L17-72L146-72L146 714L17 714L17 762L198 762Z"  horiz-adv-x="304" vert-adv-y="1000"  />

      
      <glyph glyph-name="uni5e" unicode="&#x5e;" d="M482 384L480 381L428 381L247 658L66 381L14 381L12 384L222 700L272 700L482 384Z"  horiz-adv-x="516" vert-adv-y="1000"  />

      
      <glyph glyph-name="uni5f" unicode="&#x5f;" d="M13-72L13-26L481-26L481-72L13-72Z"  horiz-adv-x="514" vert-adv-y="1000"  />

      
      <glyph glyph-name="uni60" unicode="&#x60;" d="M169 577L121 577L29 700L29 701L94 701L169 581L169 577Z"  horiz-adv-x="234" vert-adv-y="1000"  />

      
      <glyph glyph-name="uni61" unicode="&#x61;" d="M481 494L530 494L530 0L481 0L481 105Q411-8 279-8Q174-8 101 64Q28 136 28 247Q28 358 100.50 429Q173 500 279 500Q342 500 396.50 471Q451 442 481 386L481 494M279 453Q193 453 135 395.50Q77 338 77 247Q77 156 135 98Q193 40 279 40Q336 40 380 63Q424 86 447 122Q470 158 481 202Q492 246 481 290.50Q470 335 447 371Q424 407 380 430Q336 453 279 453Z"  horiz-adv-x="608" vert-adv-y="1000"  />

      
      <glyph glyph-name="uni62" unicode="&#x62;" d="M306 455Q219 455 161.50 397Q104 339 104 248Q104 156 161 98Q218 40 306 40Q393 40 450.50 94Q508 148 508 247Q508 347 451 401Q394 455 306 455M55 700L103 700L103 386Q132 444 186.50 473Q241 502 308 502Q415 502 485.50 434Q556 366 556 247Q556 128 486 60Q416-8 309-8Q245-8 189 23Q133 54 103 109L103 0L55 0L55 700Z"  horiz-adv-x="621" vert-adv-y="1000"  />

      
      <glyph glyph-name="uni63" unicode="&#x63;" d="M427 102L460 69Q386-5 280-5Q172-5 99 64Q26 133 26 247Q26 362 98 430.50Q170 499 280 499Q384 499 460 425L428 394Q369 453 280 453Q192 453 133 398Q74 343 74 247Q74 151 133 96Q192 41 280 41Q366 41 427 102Z"  horiz-adv-x="505" vert-adv-y="1000"  />

      
      <glyph glyph-name="uni64" unicode="&#x64;" d="M278 455Q190 455 133 401Q76 347 76 247Q76 148 133.50 94Q191 40 278 40Q366 40 423 98Q480 156 480 248Q480 339 422.50 397Q365 455 278 455M481 700L529 700L529 0L481 0L481 109Q451 54 395 23Q339-8 275-8Q168-8 98 60Q28 128 28 247Q28 366 98.50 434Q169 502 276 502Q343 502 397.50 473Q452 444 481 386L481 700Z"  horiz-adv-x="615" vert-adv-y="1000"  />

      
      <glyph glyph-name="uni65" unicode="&#x65;" d="M278-7Q171-7 99 62.50Q27 132 27 247Q27 357 100 429.50Q173 502 278 502Q392 502 463.50 431Q535 360 522 224L77 224Q84 140 141.50 90.50Q199 41 278 41Q329 41 379 61Q429 81 456 116L491 88Q456 42 398 17.50Q340-7 278-7M77 267L478 267Q477 357 423 407Q369 457 278 457Q199 457 142 406Q85 355 77 267Z"  horiz-adv-x="594" vert-adv-y="1000"  />

      
      <glyph glyph-name="uni66" unicode="&#x66;" d="M154 0L106 0L106 447L5 447L5 490L106 490L106 534Q106 703 254 703Q307 703 352 669L328 633Q286 658 252 658Q154 658 154 534L154 490L317 490L317 447L154 447L154 0Z"  horiz-adv-x="377" vert-adv-y="1000"  />

      
      <glyph glyph-name="uni67" unicode="&#x67;" d="M404 458L452 514L484 486L436 430Q497 364 497 262Q497 196 460.50 137.50Q424 79 364 52Q499 4 499-125Q499-221 433-271.50Q367-322 264-322Q163-322 96.50-269Q30-216 30-125L79-125Q79-197 132-235.50Q185-274 264-274Q345-274 398-236.50Q451-199 451-125Q451-51 396-14Q341 23 264 23Q159 23 95.50 91.50Q32 160 32 262Q32 374 98 438.50Q164 503 264 503Q341 503 404 458M396.50 403Q396.50 403 370.25 428.50Q344 454 264 454Q184 454 132.50 404.50Q81 355 81 262Q81 183 131.50 127.50Q182 72 264 72Q340 72 394.50 128.50Q449 185 449 262Q449 352 396.50 403Z"  horiz-adv-x="543" vert-adv-y="1000"  />

      
      <glyph glyph-name="uni68" unicode="&#x68;" d="M55 700L102 700L102 402Q157 499 280 501Q381 501 434 442Q487 383 487 283L487 0L439 0L439 283Q439 363 399.50 408.50Q360 454 280 454Q203 454 153.50 401.50Q104 349 104 271L104 0L55 0L55 700Z"  horiz-adv-x="560" vert-adv-y="1000"  />

      
      <glyph glyph-name="uni69" unicode="&#x69;" d="M104 496L55 496L55 0L104 0L104 496M53.50 626.50Q53.50 626.50 47.25 631.75Q41 637 41 655Q41 673 53.50 683.50Q66 694 80.50 694Q95 694 107.50 683.50Q120 673 120 655Q120 637 107.50 626.50Q95 616 80.50 616Q66 616 53.50 626.50Z"  horiz-adv-x="189" vert-adv-y="1000"  />

      
      <glyph glyph-name="uni6a" unicode="&#x6a;" d="M113 495L65 495L65-48Q65-108 49-139.50Q33-171-19-171Q-59-171-94-151L-108-193Q-63-217-19-217Q57-217 85.50-173Q114-129 113-48L113 495M61.50 631.50Q61.50 631.50 55.25 636.75Q49 642 49 660Q49 678 61.50 688.50Q74 699 88.50 699Q103 699 115.50 688.50Q128 678 128 660Q128 642 115.50 631.50Q103 621 88.50 621Q74 621 61.50 631.50Z"  horiz-adv-x="191" vert-adv-y="1000"  />

      
      <glyph glyph-name="uni6b" unicode="&#x6b;" d="M55 700L103 700L103 278L336 494L401 494L401 492L151 261L430 3L430 0L368 0L103 242L103 0L55 0L55 700Z"  horiz-adv-x="438" vert-adv-y="1000"  />

      
      <glyph glyph-name="uni6c" unicode="&#x6c;" d="M55 700L104 700L104 0L55 0L55 700Z"  horiz-adv-x="186" vert-adv-y="1000"  />

      
      <glyph glyph-name="uni6d" unicode="&#x6d;" d="M836 0L787 0L787 296Q787 367 743 412.50Q699 458 629 458Q559 458 514.50 411.50Q470 365 470 293L470 0L421 0L421 293Q421 365 376.50 411Q332 457 262 457Q192 457 148 411Q104 365 104 293L104 0L55 0L55 494L101 494L102 412Q150 504 263 504Q325 504 375.50 474Q426 444 446 382Q468 440 518.50 472Q569 504 629 504Q720 504 778 446Q836 388 836 296L836 0Z"  horiz-adv-x="919" vert-adv-y="1000"  />

      
      <glyph glyph-name="uni6e" unicode="&#x6e;" d="M55 494L103 494L103 406Q156 501 279 503Q379 503 440.50 444.50Q502 386 502 285L502 0L453 0L453 284Q453 367 406 411.50Q359 456 277 455Q201 454 152.50 403Q104 352 104 275L104 0L55 0L55 494Z"  horiz-adv-x="575" vert-adv-y="1000"  />

      
      <glyph glyph-name="uni6f" unicode="&#x6f;" d="M462 62Q462 62 426 27.50Q390-7 283-7Q176-7 104 62Q32 131 32 246Q32 361 104 432Q176 503 283 503Q390 503 462 432Q534 361 534 246Q534 131 462 62M138 97Q138 97 167 69Q196 41 283 41Q370 41 428 97Q486 153 486 246Q486 340 427.50 398.50Q369 457 283 457Q197 457 138.50 398.50Q80 340 80 246Q80 153 138 97Z"  horiz-adv-x="592" vert-adv-y="1000"  />

      
      <glyph glyph-name="uni70" unicode="&#x70;" d="M306 38Q394 38 451 92.50Q508 147 508 247Q508 347 451 400.50Q394 454 306 454Q220 454 163 395.50Q106 337 106 246Q106 156 163.50 97Q221 38 306 38M102-206L55-206L55 494L103 494L103 377Q133 434 189.50 467.50Q246 501 317 501Q422 497 489.50 429.50Q557 362 557 247Q557 127 486 59Q415-9 306-9Q241-9 187 22.50Q133 54 102 114L102-206Z"  horiz-adv-x="622" vert-adv-y="1000"  />

      
      <glyph glyph-name="uni71" unicode="&#x71;" d="M280 38Q365 38 422.50 97Q480 156 480 246Q480 337 423 395.50Q366 454 280 454Q192 454 135 400.50Q78 347 78 247Q78 147 135 92.50Q192 38 280 38M531-206L484-206L484 114Q453 54 399 22.50Q345-9 280-9Q171-9 100 59Q29 127 29 247Q29 362 96.50 429.50Q164 497 269 501Q340 501 396.50 467.50Q453 434 483 377L483 494L531 494L531-206Z"  horiz-adv-x="615" vert-adv-y="1000"  />

      
      <glyph glyph-name="uni72" unicode="&#x72;" d="M55 494L101 494L103 406Q125 453 170 476Q215 499 267 499Q323 501 373 470L351 430Q314 453 267 453Q198 452 151 404Q104 356 104 288L104 0L55 0L55 494Z"  horiz-adv-x="392" vert-adv-y="1000"  />

      
      <glyph glyph-name="uni73" unicode="&#x73;" d="M424 436L394 404Q335 456 240 456Q177 457 133.50 433.50Q90 410 91 365Q91 349 97.50 336.50Q104 324 118 314.50Q132 305 142.50 299.50Q153 294 176 288.50Q199 283 207.50 281Q216 279 241 275Q343 258 379 239Q448 205 445 130Q444 79 410 46.50Q376 14 333.50 3Q291-8 242-8Q174-8 115.50 17.50Q57 43 26 91L62 123Q91 81 140.50 60Q190 39 243 39Q279 39 310 45.50Q341 52 368.50 74.50Q396 97 397 133Q398 154 388 169.50Q378 185 365.50 194.50Q353 204 327.50 211.50Q302 219 285 222.50Q268 226 236 231Q199 237 178 241.50Q157 246 128 256Q99 266 83.50 279Q68 292 56 313.50Q44 335 44 364Q43 432 100.50 467.50Q158 503 240 502Q354 502 424 436Z"  horiz-adv-x="499" vert-adv-y="1000"  />

      
      <glyph glyph-name="uni74" unicode="&#x74;" d="M120 638L168 643L168 494L336 494L336 453L168 453L168 152Q168 95 186.50 66.50Q205 38 259 38Q293 38 335 58L352 18Q300-7 259-7Q184-7 152 34Q120 75 120 152L120 453L15 453L15 494L120 494L120 638Z"  horiz-adv-x="394" vert-adv-y="1000"  />

      
      <glyph glyph-name="uni75" unicode="&#x75;" d="M501 0L453 0L453 89Q400-6 277-8Q177-8 115.50 50.50Q54 109 54 210L54 495L103 495L103 211Q103 128 150 83.50Q197 39 279 40Q355 41 403.50 92Q452 143 452 220L452 495L501 495L501 0Z"  horiz-adv-x="575" vert-adv-y="1000"  />

      
      <glyph glyph-name="uni76" unicode="&#x76;" d="M215 0L8 494L62 494L242 57L422 494L476 494L269 0L215 0Z"  horiz-adv-x="502" vert-adv-y="1000"  />

      
      <glyph glyph-name="uni77" unicode="&#x77;" d="M740 494L565 0L511 0L431 216L371 408L309 215L229 0L175 0L-1 494L53 494L202 57L353 494L388 494L538 57L686 494L740 494Z"  horiz-adv-x="765" vert-adv-y="1000"  />

      
      <glyph glyph-name="uni78" unicode="&#x78;" d="M82 494L229 292L376 494L435 494L435 492L258 256L449 2L449 0L391 0L229 221L67 0L9 0L9 2L200 256L23 492L23 494L82 494Z"  horiz-adv-x="486" vert-adv-y="1000"  />

      
      <glyph glyph-name="uni79" unicode="&#x79;" d="M424 494L477 494L176-206L124-206L215 6L17 494L70 494L185 202L243 59L300 203L424 494Z"  horiz-adv-x="517" vert-adv-y="1000"  />

      
      <glyph glyph-name="uni7a" unicode="&#x7a;" d="M40 450L40 494L412 494L412 475L100 46L412 46L412 0L24 0L24 17L339 450L40 450Z"  horiz-adv-x="459" vert-adv-y="1000"  />

      
      <glyph glyph-name="uni7b" unicode="&#x7b;" d="M263-71L263-109Q173-122 142-91.50Q111-61 111 27L111 174Q111 292 32 292L32 331Q111 331 111 449L111 584Q111 671 144.50 704Q178 737 263 721L263 687Q199 697 177 675Q155 653 155 584L155 449Q155 429 154 415.50Q153 402 149 383Q145 364 138 352Q131 340 117 328.50Q103 317 83 312Q107 306 123 291.50Q139 277 145 255.50Q151 234 153 216.50Q155 199 155 174L155 27Q155-41 177-61.50Q199-82 263-71Z"  horiz-adv-x="319" vert-adv-y="1000"  />

      
      <glyph glyph-name="uni7c" unicode="&#x7c;" d="M141 705L141-118L88-118L88 705L141 705Z"  horiz-adv-x="252" vert-adv-y="1000"  />

      
      <glyph glyph-name="uni7d" unicode="&#x7d;" d="M18-109L18-71Q82-82 104-61.50Q126-41 126 27L126 174Q126 199 128 216.50Q130 234 136 255.50Q142 277 158 291.50Q174 306 198 312Q178 317 164 328.50Q150 340 143 352Q136 364 132 383Q128 402 127 415.50Q126 429 126 449L126 584Q126 653 104 675Q82 697 18 687L18 721Q103 737 136.50 704Q170 671 170 584L170 449Q170 331 249 331L249 292Q170 292 170 174L170 27Q170-61 139-91.50Q108-122 18-109Z"  horiz-adv-x="298" vert-adv-y="1000"  />

      
      <glyph glyph-name="uni7e" unicode="&#x7e;" d="M506 334Q480 265 430 243.50Q380 222 313 255L204 318Q152 342 111.50 325Q71 308 51 262L14 280Q44 348 99 371.50Q154 395 225 360L327 302Q429 247 465 350L506 334Z"  horiz-adv-x="555" vert-adv-y="1000"  />

      
      <glyph glyph-name="unia1" unicode="&#xa1;" d="M63-201L114-201L114 358L63 358L63-201M113.50 492.50Q113.50 492.50 119.75 487.25Q126 482 126 464Q126 446 113.50 435.50Q101 425 86.50 425Q72 425 59.50 435.50Q47 446 47 464Q47 482 59.50 492.50Q72 503 86.50 503Q101 503 113.50 492.50Z"  horiz-adv-x="195" vert-adv-y="1000"  />

      
      <glyph glyph-name="unia2" unicode="&#xa2;" d="M338-14L338-85L290-85L290-14Q189-5 124 61Q59 127 59 237Q59 343 124 411Q189 479 290 488L290 548L338 548L338 488Q429 478 494 415L460 384Q398 444 314 444Q225 444 166 389.50Q107 335 107 237Q107 137 165.50 84Q224 31 314 31Q396 31 460 93L494 58Q428-6 338-14Z"  horiz-adv-x="575" vert-adv-y="1000"  />

      
      <glyph glyph-name="unia3" unicode="&#xa3;" d="M59 308L59 351L139 351Q112 452 112 507Q112 605 179.50 655.50Q247 706 351 706Q450 706 513 664Q576 622 577 525L531 525Q531 577 502 608.50Q473 640 436 650Q399 660 351 660Q265 660 213 620.50Q161 581 161 507Q161 488 164 465.50Q167 443 170 428.50Q173 414 179.50 387.50Q186 361 188 351L447 351L447 308L197 308Q204 262 204 220.50Q204 179 183 134Q162 89 119 48L584 48L584 0L59 0L59 45Q109 96 133 143Q157 190 157.50 228Q158 266 150 308L59 308Z"  horiz-adv-x="663" vert-adv-y="1000"  />

      
      <glyph glyph-name="unia4" unicode="&#xa4;" d="M481 514L422 455Q465 399 464.50 325Q464 251 421 196L481 136L446 101L385 161Q335 124 262 124Q189 124 138 161L78 101L43 136L103 196Q60 251 59.50 325.50Q59 400 102 455L43 514L78 549L137 489Q189 528 262 528Q334 528 386 489L446 549L481 514M187 188Q187 188 203.50 179.50Q220 171 262 171Q304 171 336.50 188Q369 205 386 232.50Q403 260 411 293Q419 326 411 359.50Q403 393 386 420.50Q369 448 336.50 465Q304 482 262 482Q220 482 187 465Q154 448 137 420.50Q120 393 112 360Q104 327 112 293.50Q120 260 137 232.50Q154 205 187 188Z"  horiz-adv-x="562" vert-adv-y="1000"  />

      
      <glyph glyph-name="unia5" unicode="&#xa5;" d="M123 167L123 208L277 208L277 271L123 271L123 312L256 312L4 699L4 700L65 700L304 332L544 700L605 700L605 699L351 312L490 312L490 271L330 271L330 208L490 208L490 167L330 167L330 0L277 0L277 167L123 167Z"  horiz-adv-x="627" vert-adv-y="1000"  />

      
      <glyph glyph-name="unia6" unicode="&#xa6;" d="M107 342L53 342L53 706L107 706L107 342M53 275L107 275L107-88L53-88L53 275Z"  horiz-adv-x="195" vert-adv-y="1000"  />

      
      <glyph glyph-name="unia7" unicode="&#xa7;" d="M444 650L414 619Q355 670 260 670Q198 671 154 647.50Q110 624 111 581Q112 558 125 541Q138 524 164.50 514Q191 504 209 499.50Q227 495 260 489Q294 484 317 479Q340 474 371.50 463Q403 452 421.50 438.50Q440 425 453 402Q466 379 465 350Q462 263 363 239Q469 207 465 118Q464 68 430 36Q396 4 354-6.50Q312-17 262-17Q194-17 135.50 8Q77 33 46 80L82 111Q111 70 160.50 49.50Q210 29 263 29Q289 29 312.50 33Q336 37 361 46.50Q386 56 401.50 75Q417 94 418 121Q419 152 393 172Q367 192 344.50 197.50Q322 203 266 212Q259 213 256 214Q65 244 63 348Q62 385 87.50 418.50Q113 452 156 467Q64 500 63 580Q62 647 120 681.50Q178 716 260 715Q375 715 444 650M418 353Q417 385 385 409Q353 433 307 440Q261 447 216 443Q171 439 140 414Q109 389 111 349Q112 317 144 293.50Q176 270 221.50 264Q267 258 312 263Q357 268 388 292Q419 316 418 353Z"  horiz-adv-x="539" vert-adv-y="1000"  />

      
      <glyph glyph-name="unia8" unicode="&#xa8;" d="M76.50 649.50Q76.50 649.50 70.25 654.75Q64 660 64 678Q64 696 76.50 706.50Q89 717 103.50 717Q118 717 130.50 706.50Q143 696 143 678Q143 660 130.50 649.50Q118 639 103.50 639Q89 639 76.50 649.50M290.50 649.50Q290.50 649.50 284.25 654.75Q278 660 278 678Q278 696 290.50 706.50Q303 717 317.50 717Q332 717 344.50 706.50Q357 696 357 678Q357 660 344.50 649.50Q332 639 317.50 639Q303 639 290.50 649.50Z"  horiz-adv-x="455" vert-adv-y="1000"  />

      
      <glyph glyph-name="unia9" unicode="&#xa9;" d="M425 713Q592 713 689 608.50Q786 504 786 348Q786 193 689 88Q592-17 425-17Q257-17 160.50 88Q64 193 64 348Q64 504 160.50 608.50Q257 713 425 713M574 212L539 249Q496 206 437 206Q376 206 334 248Q292 290 292 351Q292 412 334 453.50Q376 495 437 495Q495 495 539 453L574 489Q519 546 437 546Q354 546 297.50 490Q241 434 241 351Q241 268 297.50 211.50Q354 155 437 155Q519 155 574 212M114 348Q114 210 197.50 119Q281 28 425 28Q569 28 652 119Q735 210 735 348Q735 487 652 578Q569 669 425 669Q281 669 197.50 578Q114 487 114 348Z"  horiz-adv-x="881" vert-adv-y="1000"  />

      
      <glyph glyph-name="uniaa" unicode="&#xaa;" d="M331 639L331 701L375 701L375 377L331 377L331 440Q286 373 204 373Q134 373 86.50 418.50Q39 464 39 540Q39 616 86.50 661Q134 706 204 706Q288 706 331 639M207 660Q157 660 123 626.50Q89 593 89 540Q89 487 123 453Q157 419 207 419Q252 419 283 444Q314 469 321 504.50Q328 540 321 575Q314 610 283 635Q252 660 207 660M51 267L51 315L385 315L385 267L51 267Z"  horiz-adv-x="467" vert-adv-y="1000"  />

      
      <glyph glyph-name="uniab" unicode="&#xab;" d="M30 317L168 536L220 536L220 531L85 317L220 103L220 97L168 97L30 317M262 97L124 317L262 536L314 536L314 531L179 317L314 103L314 97L262 97Z"  horiz-adv-x="372" vert-adv-y="1000"  />

      
      <glyph glyph-name="uniac" unicode="&#xac;" d="M385 362L385 175L335 175L335 311L38 311L38 362L385 362Z"  horiz-adv-x="452" vert-adv-y="1000"  />

      
      <glyph glyph-name="uniae" unicode="&#xae;" d="M442 713Q610 713 706.50 608.50Q803 504 803 348Q803 193 706.50 88Q610-17 442-17Q275-17 178 88Q81 193 81 348Q81 504 178 608.50Q275 713 442 713M132 348Q132 210 215 119Q298 28 442 28Q586 28 669.50 119Q753 210 753 348Q753 487 669.50 578Q586 669 442 669Q298 669 215 578Q132 487 132 348M496 306Q550 313 579.50 351.50Q609 390 607 433Q605 476 571 510.50Q537 545 479 545L309 545L309 162L356 162L356 306L439 306L564 162L616 162L616 170L496 306M356 348L356 499L479 499Q510 499 530.50 483.50Q551 468 556 446Q561 424 555.50 401.50Q550 379 528.50 363.50Q507 348 476 348L356 348Z"  horiz-adv-x="914" vert-adv-y="1000"  />

      
      <glyph glyph-name="unib0" unicode="&#xb0;" d="M242 559.50Q242 559.50 228 544.25Q214 529 164 529Q114 529 85.50 559.50Q57 590 57 627Q57 664 85.50 694.50Q114 725 164 725Q214 725 242 694.50Q270 664 270 627Q270 590 242 559.50M164 568Q201 568 216 598Q231 628 216 657.50Q201 687 164 687Q127 687 110 657.50Q93 628 108.50 598Q124 568 164 568Z"  horiz-adv-x="354" vert-adv-y="1000"  />

      
      <glyph glyph-name="unib1" unicode="&#xb1;" d="M73 345L73 390L236 390L236 554L282 554L282 390L444 390L444 345L282 345L282 179L236 179L236 345L73 345M81 47L81 94L439 94L439 47L81 47Z"  horiz-adv-x="519" vert-adv-y="1000"  />

      
      <glyph glyph-name="unib2" unicode="&#xb2;" d="M143 683L97 683Q97 789 232 789Q288 789 326.50 765Q365 741 365 683Q365 575 233 575Q200 575 171.50 560Q143 545 143 507L143 470L359 470L359 428L95 428L95 508Q95 560 135.50 588.50Q176 617 233 617Q318 617 318 683Q318 747 231 747Q190 747 166.50 734Q143 721 143 683Z"  horiz-adv-x="462" vert-adv-y="1000"  />

      
      <glyph glyph-name="unib3" unicode="&#xb3;" d="M196 593L141 593L141 636L192 636Q226 636 252 649.50Q278 663 278 692Q278 714 255 731.50Q232 749 192 749Q160 749 132.50 734Q105 719 105 684L62 684Q62 737 99.50 763Q137 789 192 789Q247 789 285.50 763.50Q324 738 324 691Q324 661 308 641Q292 621 266 614Q296 606 313.50 583Q331 560 331 535Q331 425 192 425Q134 425 96 450.50Q58 476 57 532L105 532Q105 470 193 470Q284 470 284 535Q284 556 262 574.50Q240 593 196 593Z"  horiz-adv-x="405" vert-adv-y="1000"  />

      
      <glyph glyph-name="unib4" unicode="&#xb4;" d="M87 577L39 577L39 581L114 701L179 701L179 700L87 577Z"  horiz-adv-x="224" vert-adv-y="1000"  />

      
      <glyph glyph-name="unib5" unicode="&#xb5;" d="M481 70Q447 10 372.50-11.50Q298-33 227-9Q156 15 132 73L132-226L81-226L81 491L130 491L130 193Q130 130 165.50 84.50Q201 39 252 27.50Q303 16 354.50 26Q406 36 441.50 84.50Q477 133 477 207L477 491L526 491L526 0L484 0L481 70Z"  horiz-adv-x="633" vert-adv-y="1000"  />

      
      <glyph glyph-name="uni03BC" unicode="&#x03BC;" d="M481 70Q447 10 372.50-11.50Q298-33 227-9Q156 15 132 73L132-226L81-226L81 491L130 491L130 193Q130 130 165.50 84.50Q201 39 252 27.50Q303 16 354.50 26Q406 36 441.50 84.50Q477 133 477 207L477 491L526 491L526 0L484 0L481 70Z"  horiz-adv-x="633" vert-adv-y="1000"  />

      
      <glyph glyph-name="unib6" unicode="&#xb6;" d="M337 655L337-216L288-216L288 195Q220 195 167.50 223Q115 251 88 295Q61 339 49 393Q37 447 50.50 501Q64 555 92 599Q120 643 172.50 671Q225 699 292 699L759 699L759 655L653 655L653-216L606-216L606 655L337 655Z"  horiz-adv-x="811" vert-adv-y="1000"  />

      
      <glyph glyph-name="unib7" unicode="&#xb7;" d="M48.50 310.50Q48.50 310.50 42.25 315.75Q36 321 36 339Q36 357 48.50 367.50Q61 378 75.50 378Q90 378 102.50 367.50Q115 357 115 339Q115 321 102.50 310.50Q90 300 75.50 300Q61 300 48.50 310.50Z"  horiz-adv-x="179" vert-adv-y="1000"  />

      
      <glyph glyph-name="unib8" unicode="&#xb8;" d="M94-71L88-66L108 22L147 22L134-36Q191-33 214.50-64.50Q238-96 228-137Q219-172 190-189.50Q161-207 125-207Q51-207 22-154L50-127Q77-166 125-166Q178-166 188-128Q197-98 171.50-79Q146-60 94-71Z"  horiz-adv-x="296" vert-adv-y="1000"  />

      
      <glyph glyph-name="unib9" unicode="&#xb9;" d="M53 427L53 469L106 469L106 739L51 739L51 781L154 781L154 469L205 469L205 427L53 427Z"  horiz-adv-x="282" vert-adv-y="1000"  />

      
      <glyph glyph-name="uniba" unicode="&#xba;" d="M97 630L97 578Q97 536 117 506.50Q137 477 165.50 470Q194 463 222.50 469.50Q251 476 271 505.50Q291 535 291 578L291 630Q291 674 271 704Q251 734 222.50 741Q194 748 165.50 741Q137 734 117 704Q97 674 97 630M50 578L50 630Q50 673 66 707Q82 741 107.50 759Q133 777 164 785Q195 793 226 784.50Q257 776 282.50 758.50Q308 741 324 707Q340 673 340 630L340 578Q340 535 324 501Q308 467 282.50 449.50Q257 432 226 424Q195 416 164 424Q133 432 107.50 449.50Q82 467 66 501Q50 535 50 578Z"  horiz-adv-x="407" vert-adv-y="1000"  />

      
      <glyph glyph-name="unibb" unicode="&#xbb;" d="M315 317L177 97L125 97L125 103L260 317L125 531L125 536L177 536L315 317M221 317L83 97L31 97L31 103L166 317L31 531L31 536L83 536L221 317Z"  horiz-adv-x="372" vert-adv-y="1000"  />

      
      <glyph glyph-name="unibc" unicode="&#xbc;" d="M580 356L645 356L645 123L687 123L687 79L645 79L645 1L600 1L600 79L408 79L405 116L580 356M461 123L600 123L600 312L461 123M198-7L145-7L518 707L572 707L198-7M67 349L67 391L120 391L120 658L65 658L65 700L168 700L168 391L219 391L219 349L67 349Z"  horiz-adv-x="776" vert-adv-y="1000"  />

      
      <glyph glyph-name="unibd" unicode="&#xbd;" d="M198-7L145-7L518 707L572 707L198-7M67 349L67 391L120 391L120 658L65 658L65 700L168 700L168 391L219 391L219 349L67 349M516 255L470 255Q470 361 605 361Q661 361 699.50 337Q738 313 738 255Q738 147 606 147Q573 147 544.50 132Q516 117 516 79L516 42L732 42L732 0L468 0L468 80Q468 132 508.50 160.50Q549 189 606 189Q691 189 691 255Q691 319 604 319Q563 319 539.50 306Q516 293 516 255Z"  horiz-adv-x="812" vert-adv-y="1000"  />

      
      <glyph glyph-name="unibe" unicode="&#xbe;" d="M620 356L685 356L685 123L727 123L727 79L685 79L685 1L640 1L640 79L448 79L445 116L620 356M501 123L640 123L640 312L501 123M244-7L193-7L578 707L631 707L244-7M190 520L136 520L136 562L186 562Q219 562 245 575Q271 588 271 617Q271 639 248 656Q225 673 186 673Q155 673 128 658.50Q101 644 101 609L59 609Q59 661 95.50 686.50Q132 712 186 712Q241 712 278.50 687.50Q316 663 316 616Q316 556 259 540Q289 533 306 510Q323 487 323 463Q323 404 284 379.50Q245 355 186 355Q130 355 92.50 380Q55 405 54 460L101 460Q101 399 187 399Q277 399 277 463Q277 483 255 501.50Q233 520 190 520Z"  horiz-adv-x="798" vert-adv-y="1000"  />

      
      <glyph glyph-name="unibf" unicode="&#xbf;" d="M579-12L527-12Q527-56 506.50-88.50Q486-121 452.50-137.50Q419-154 384-161Q349-168 311-168Q92-168 92-15Q92 99 199 131Q291 158 323.50 204.50Q356 251 356 355L306 355Q306 261 285.50 230.50Q265 200 186 176Q126 158 83.50 112.50Q41 67 41-15Q41-61 57-97Q73-133 99-155Q125-177 161-191Q197-205 233.50-210.50Q270-216 311-216Q350-216 387-209.50Q424-203 459.50-187.50Q495-172 521-149.50Q547-127 563-91.50Q579-56 579-12M346.50 495Q346.50 495 356.25 490Q366 485 366 460Q366 435 346.50 425Q327 415 307.50 425Q288 435 288 460Q288 485 307.50 495Q327 505 346.50 495Z"  horiz-adv-x="647" vert-adv-y="1000"  />

      
      <glyph glyph-name="unic0" unicode="&#xc0;" d="M679 0L621 0L544 172L126 172L50 0L-8 0L306 700L365 700L679 0M147 222L523 222L335 648L147 222M363 772L315 772L223 895L223 896L288 896L363 776L363 772Z"  horiz-adv-x="694" vert-adv-y="1000"  />

      
      <glyph glyph-name="unic1" unicode="&#xc1;" d="M621 0L679 0L365 700L306 700L-8 0L50 0L126 172L544 172L621 0M523 222L147 222L335 648L523 222M351 771L303 771L303 775L378 895L443 895L443 894L351 771Z"  horiz-adv-x="694" vert-adv-y="1000"  />

      
      <glyph glyph-name="unic2" unicode="&#xc2;" d="M621 0L679 0L365 700L306 700L-8 0L50 0L126 172L544 172L621 0M523 222L147 222L335 648L523 222M173 766L315 898L355 898L497 766L497 759L444 759L335 855L226 759L173 759L173 766Z"  horiz-adv-x="694" vert-adv-y="1000"  />

      
      <glyph glyph-name="unic3" unicode="&#xc3;" d="M679 0L621 0L544 172L126 172L50 0L-8 0L306 700L365 700L679 0M147 222L523 222L335 648L147 222M244 785L210 796Q215 840 250.50 856.50Q286 873 322 854L363 832Q381 822 399.50 828Q418 834 424 858L458 847Q454 802 418 785.50Q382 769 346 789L305 811Q287 821 268.50 814.50Q250 808 244 785Z"  horiz-adv-x="694" vert-adv-y="1000"  />

      
      <glyph glyph-name="unic4" unicode="&#xc4;" d="M621 0L679 0L365 700L306 700L-8 0L50 0L126 172L544 172L621 0M523 222L147 222L335 648L523 222M202.50 782.50Q202.50 782.50 196.25 787.75Q190 793 190 811Q190 829 202.50 839.50Q215 850 229.50 850Q244 850 256.50 839.50Q269 829 269 811Q269 793 256.50 782.50Q244 772 229.50 772Q215 772 202.50 782.50M416.50 782.50Q416.50 782.50 410.25 787.75Q404 793 404 811Q404 829 416.50 839.50Q429 850 443.50 850Q458 850 470.50 839.50Q483 829 483 811Q483 793 470.50 782.50Q458 772 443.50 772Q429 772 416.50 782.50Z"  horiz-adv-x="694" vert-adv-y="1000"  />

      
      <glyph glyph-name="unic5" unicode="&#xc5;" d="M232 788Q232 833 263 858.50Q294 884 337 884Q380 884 412 858.50Q444 833 444 788Q444 751 423.50 725.50Q403 700 368 692L679 0L621 0L544 172L126 172L50 0L-8 0L303 693Q232 711 232 788M147 222L523 222L335 648L147 222M336 846Q299 846 283.50 816Q268 786 283.50 756.50Q299 727 336 727Q375 727 391 756.50Q407 786 391 816Q375 846 336 846Z"  horiz-adv-x="694" vert-adv-y="1000"  />

      
      <glyph glyph-name="unic6" unicode="&#xc6;" d="M521 651L521 377L866 377L866 328L521 328L521 51L900 51L900 0L471 0L471 248L221 248L74 0L12 0L438 700L886 700L886 651L521 651M471 297L471 659L466 659L250 297L471 297Z"  horiz-adv-x="957" vert-adv-y="1000"  />

      
      <glyph glyph-name="unic7" unicode="&#xc7;" d="M342-96L336-91L357-7Q201 3 114.50 103Q28 203 27 346Q26 442 65 523Q104 604 188 656Q272 708 387 708Q537 708 642 603L605 571Q516 660 387 660Q240 660 159 570.50Q78 481 79 348Q81 218 161.50 130Q242 42 387 42Q515 42 606 131L642 97Q540-5 395-8L383-61Q440-58 464-89.50Q488-121 478-162Q469-197 439.50-215.50Q410-234 374-234Q342-234 313-220Q284-206 270-180L299-152Q326-191 374-191Q427-191 437-153Q446-123 420-104Q394-85 342-96Z"  horiz-adv-x="673" vert-adv-y="1000"  />

      
      <glyph glyph-name="unic8" unicode="&#xc8;" d="M117 649L117 377L527 377L527 328L117 328L117 52L559 52L559 0L64 0L64 700L547 700L547 649L117 649M365 781L317 781L225 904L225 905L290 905L365 785L365 781Z"  horiz-adv-x="614" vert-adv-y="1000"  />

      
      <glyph glyph-name="unic9" unicode="&#xc9;" d="M117 377L117 649L547 649L547 700L64 700L64 0L559 0L559 52L117 52L117 328L527 328L527 377L117 377M321 778L273 778L273 782L348 902L413 902L413 901L321 778Z"  horiz-adv-x="614" vert-adv-y="1000"  />

      
      <glyph glyph-name="unica" unicode="&#xca;" d="M117 377L117 649L547 649L547 700L64 700L64 0L559 0L559 52L117 52L117 328L527 328L527 377L117 377M153 780L295 912L335 912L477 780L477 773L424 773L315 869L206 773L153 773L153 780Z"  horiz-adv-x="614" vert-adv-y="1000"  />

      
      <glyph glyph-name="unicb" unicode="&#xcb;" d="M117 377L117 649L547 649L547 700L64 700L64 0L559 0L559 52L117 52L117 328L527 328L527 377L117 377M187.50 789.50Q187.50 789.50 181.25 794.75Q175 800 175 818Q175 836 187.50 846.50Q200 857 214.50 857Q229 857 241.50 846.50Q254 836 254 818Q254 800 241.50 789.50Q229 779 214.50 779Q200 779 187.50 789.50M401.50 789.50Q401.50 789.50 395.25 794.75Q389 800 389 818Q389 836 401.50 846.50Q414 857 428.50 857Q443 857 455.50 846.50Q468 836 468 818Q468 800 455.50 789.50Q443 779 428.50 779Q414 779 401.50 789.50Z"  horiz-adv-x="614" vert-adv-y="1000"  />

      
      <glyph glyph-name="unicc" unicode="&#xcc;" d="M118 0L65 0L65 700L118 700L118 0M123 778L75 778L-17 901L-17 902L48 902L123 782L123 778Z"  horiz-adv-x="208" vert-adv-y="1000"  />

      
      <glyph glyph-name="unicd" unicode="&#xcd;" d="M65 0L118 0L118 700L65 700L65 0M111 777L63 777L63 781L138 901L203 901L203 900L111 777Z"  horiz-adv-x="208" vert-adv-y="1000"  />

      
      <glyph glyph-name="unice" unicode="&#xce;" d="M65 0L118 0L118 700L65 700L65 0M-58 767L70 898L106 898L233 767L233 760L186 760L88 855L-10 760L-58 760L-58 767Z"  horiz-adv-x="208" vert-adv-y="1000"  />

      
      <glyph glyph-name="unicf" unicode="&#xcf;" d="M-15.50 781.50Q-15.50 781.50-21.75 786.75Q-28 792-28 810Q-28 828-15.50 838.50Q-3 849 11.50 849Q26 849 38.50 838.50Q51 828 51 810Q51 792 38.50 781.50Q26 771 11.50 771Q-3 771-15.50 781.50M144.50 781.50Q144.50 781.50 138.25 786.75Q132 792 132 810Q132 828 144.50 838.50Q157 849 171.50 849Q186 849 198.50 838.50Q211 828 211 810Q211 792 198.50 781.50Q186 771 171.50 771Q157 771 144.50 781.50M65 0L118 0L118 700L65 700L65 0Z"  horiz-adv-x="208" vert-adv-y="1000"  />

      
      <glyph glyph-name="unid0" unicode="&#xd0;" d="M-8 317L-8 366L59 366L59 700L296 700Q382 700 450.50 671Q519 642 561.50 593Q604 544 626.50 484Q649 424 651 358Q653 290 631.50 227Q610 164 567.50 112.50Q525 61 455 30.50Q385 0 296 0L59 0L59 317L-8 317M296 649L113 649L113 366L276 366L276 317L113 317L113 52L296 52Q442 52 520.50 143.50Q599 235 597 358Q595 478 516.50 563.50Q438 649 296 649Z"  horiz-adv-x="709" vert-adv-y="1000"  />

      
      <glyph glyph-name="unid1" unicode="&#xd1;" d="M65 700L88 700L559 121L559 700L612 700L612 0L591 0L119 578L119 0L65 0L65 700M265 782L231 793Q236 837 271.50 853.50Q307 870 343 851L384 829Q402 819 420.50 825Q439 831 445 855L479 844Q475 799 439 782.50Q403 766 367 786L326 808Q308 818 289.50 811.50Q271 805 265 782Z"  horiz-adv-x="704" vert-adv-y="1000"  />

      
      <glyph glyph-name="unid2" unicode="&#xd2;" d="M387 711Q555 711 648 605.50Q741 500 740 349Q740 279 717 215Q694 151 651.50 100Q609 49 540.50 18.50Q472-12 387-12Q302-12 233.50 18.50Q165 49 122 100.50Q79 152 56.50 216Q34 280 34 351Q34 448 72 528Q110 608 192 659.50Q274 711 387 711M387 661Q243 661 164.50 571.50Q86 482 87 350Q88 222 167 130Q246 38 387 38Q483 38 553 84Q623 130 655.50 199Q688 268 688 350Q688 480 609 570.50Q530 661 387 661M421 783L373 783L281 906L281 907L346 907L421 787L421 783Z"  horiz-adv-x="804" vert-adv-y="1000"  />

      
      <glyph glyph-name="unid3" unicode="&#xd3;" d="M387 711Q274 711 192 659.50Q110 608 72 528Q34 448 34 351Q34 280 56.50 216Q79 152 122 100.50Q165 49 233.50 18.50Q302-12 387-12Q472-12 540.50 18.50Q609 49 651.50 100Q694 151 717 215Q740 279 740 349Q741 500 648 605.50Q555 711 387 711M387 661Q530 661 609 570.50Q688 480 688 350Q688 268 655.50 199Q623 130 553 84Q483 38 387 38Q246 38 167 130Q88 222 87 350Q86 482 164.50 571.50Q243 661 387 661M407 783L359 783L359 787L434 907L499 907L499 906L407 783Z"  horiz-adv-x="804" vert-adv-y="1000"  />

      
      <glyph glyph-name="unid4" unicode="&#xd4;" d="M387 711Q274 711 192 659.50Q110 608 72 528Q34 448 34 351Q34 280 56.50 216Q79 152 122 100.50Q165 49 233.50 18.50Q302-12 387-12Q472-12 540.50 18.50Q609 49 651.50 100Q694 151 717 215Q740 279 740 349Q741 500 648 605.50Q555 711 387 711M387 661Q530 661 609 570.50Q688 480 688 350Q688 268 655.50 199Q623 130 553 84Q483 38 387 38Q246 38 167 130Q88 222 87 350Q86 482 164.50 571.50Q243 661 387 661M232 786L374 918L414 918L556 786L556 779L503 779L394 875L285 779L232 779L232 786Z"  horiz-adv-x="804" vert-adv-y="1000"  />

      
      <glyph glyph-name="unid5" unicode="&#xd5;" d="M387 711Q555 711 648 605.50Q741 500 740 349Q740 279 717 215Q694 151 651.50 100Q609 49 540.50 18.50Q472-12 387-12Q302-12 233.50 18.50Q165 49 122 100.50Q79 152 56.50 216Q34 280 34 351Q34 448 72 528Q110 608 192 659.50Q274 711 387 711M387 661Q243 661 164.50 571.50Q86 482 87 350Q88 222 167 130Q246 38 387 38Q483 38 553 84Q623 130 655.50 199Q688 268 688 350Q688 480 609 570.50Q530 661 387 661M297 798L263 809Q268 853 303.50 869.50Q339 886 375 867L416 845Q434 835 452.50 841Q471 847 477 871L511 860Q507 815 471 798.50Q435 782 399 802L358 824Q340 834 321.50 827.50Q303 821 297 798Z"  horiz-adv-x="804" vert-adv-y="1000"  />

      
      <glyph glyph-name="unid6" unicode="&#xd6;" d="M387 711Q274 711 192 659.50Q110 608 72 528Q34 448 34 351Q34 280 56.50 216Q79 152 122 100.50Q165 49 233.50 18.50Q302-12 387-12Q472-12 540.50 18.50Q609 49 651.50 100Q694 151 717 215Q740 279 740 349Q741 500 648 605.50Q555 711 387 711M387 661Q530 661 609 570.50Q688 480 688 350Q688 268 655.50 199Q623 130 553 84Q483 38 387 38Q246 38 167 130Q88 222 87 350Q86 482 164.50 571.50Q243 661 387 661M264.50 793.50Q264.50 793.50 258.25 798.75Q252 804 252 822Q252 840 264.50 850.50Q277 861 291.50 861Q306 861 318.50 850.50Q331 840 331 822Q331 804 318.50 793.50Q306 783 291.50 783Q277 783 264.50 793.50M478.50 793.50Q478.50 793.50 472.25 798.75Q466 804 466 822Q466 840 478.50 850.50Q491 861 505.50 861Q520 861 532.50 850.50Q545 840 545 822Q545 804 532.50 793.50Q520 783 505.50 783Q491 783 478.50 793.50Z"  horiz-adv-x="804" vert-adv-y="1000"  />

      
      <glyph glyph-name="unid7" unicode="&#xd7;" d="M41 447L72 478L196 355L318 477L352 444L229 321L353 198L322 167L198 290L71 163L38 196L165 324L41 447Z"  horiz-adv-x="425" vert-adv-y="1000"  />

      
      <glyph glyph-name="unid8" unicode="&#xd8;" d="M183-79L130-79L196 37Q117 85 75.50 169Q34 253 34 351Q34 448 72 528Q110 608 192 659.50Q274 711 387 711Q483 711 557 673L607 761L661 761L597 650Q667 601 703.50 521.50Q740 442 740 349Q740 279 717 215Q694 151 651.50 100Q609 49 540.50 18.50Q472-12 387-12Q308-12 237 16L183-79M387 661Q243 661 164.50 571.50Q86 482 87 350Q87 268 122 196.50Q157 125 222 83L532 629Q466 661 387 661M387 38Q483 38 553 84Q623 130 655.50 199Q688 268 688 350Q688 427 658 494Q628 561 572 604L263 61Q318 38 387 38Z"  horiz-adv-x="804" vert-adv-y="1000"  />

      
      <glyph glyph-name="unid9" unicode="&#xd9;" d="M547 700L600 700L600 265Q600 199 577 145.50Q554 92 516.50 59Q479 26 430.50 8Q382-10 332-10Q282-10 233.50 7.50Q185 25 147.50 58Q110 91 87 145Q64 199 64 265L64 700L117 700L117 265Q117 211 135.50 167Q154 123 184 96Q214 69 253 54Q292 39 332 39Q372 39 411 54Q450 69 480 96Q510 123 528.50 167Q547 211 547 265L547 700M375 774L327 774L235 897L235 898L300 898L375 778L375 774Z"  horiz-adv-x="683" vert-adv-y="1000"  />

      
      <glyph glyph-name="unida" unicode="&#xda;" d="M600 700L547 700L547 265Q547 211 528.50 167Q510 123 480 96Q450 69 411 54Q372 39 332 39Q292 39 253 54Q214 69 184 96Q154 123 135.50 167Q117 211 117 265L117 700L64 700L64 265Q64 177 103.50 113Q143 49 203 20Q263-9 332-9Q401-9 461 20Q521 49 560.50 113.50Q600 178 600 265L600 700M339 775L291 775L291 779L366 899L431 899L431 898L339 775Z"  horiz-adv-x="683" vert-adv-y="1000"  />

      
      <glyph glyph-name="unidb" unicode="&#xdb;" d="M600 700L547 700L547 265Q547 211 528.50 167Q510 123 480 96Q450 69 411 54Q372 39 332 39Q292 39 253 54Q214 69 184 96Q154 123 135.50 167Q117 211 117 265L117 700L64 700L64 265Q64 177 103.50 113Q143 49 203 20Q263-9 332-9Q401-9 461 20Q521 49 560.50 113.50Q600 178 600 265L600 700M170 775L312 907L352 907L494 775L494 768L441 768L332 864L223 768L170 768L170 775Z"  horiz-adv-x="683" vert-adv-y="1000"  />

      
      <glyph glyph-name="unidc" unicode="&#xdc;" d="M600 700L547 700L547 265Q547 211 528.50 167Q510 123 480 96Q450 69 411 54Q372 39 332 39Q292 39 253 54Q214 69 184 96Q154 123 135.50 167Q117 211 117 265L117 700L64 700L64 265Q64 177 103.50 113Q143 49 203 20Q263-9 332-9Q401-9 461 20Q521 49 560.50 113.50Q600 178 600 265L600 700M198.50 790.50Q198.50 790.50 192.25 795.75Q186 801 186 819Q186 837 198.50 847.50Q211 858 225.50 858Q240 858 252.50 847.50Q265 837 265 819Q265 801 252.50 790.50Q240 780 225.50 780Q211 780 198.50 790.50M412.50 790.50Q412.50 790.50 406.25 795.75Q400 801 400 819Q400 837 412.50 847.50Q425 858 439.50 858Q454 858 466.50 847.50Q479 837 479 819Q479 801 466.50 790.50Q454 780 439.50 780Q425 780 412.50 790.50Z"  horiz-adv-x="683" vert-adv-y="1000"  />

      
      <glyph glyph-name="unidd" unicode="&#xdd;" d="M277 280L277 0L331 0L331 280L605 699L605 700L542 700L304 332L67 700L4 700L4 699L277 280M312 777L264 777L264 781L339 901L404 901L404 900L312 777Z"  horiz-adv-x="639" vert-adv-y="1000"  />

      
      <glyph glyph-name="unide" unicode="&#xde;" d="M67 0L67 699L117 699L117 577L374 577Q429 577 473.50 557.50Q518 538 545.50 505.50Q573 473 587.50 432Q602 391 602 348Q602 305 587.50 264Q573 223 545.50 190.50Q518 158 473.50 138.50Q429 119 374 119L118 119L118 0L67 0M374 527L118 527L118 168L374 168Q422 168 459.50 188Q497 208 516.50 239.50Q536 271 545 309.50Q554 348 545 386Q536 424 516.50 455.50Q497 487 459.50 507Q422 527 374 527Z"  horiz-adv-x="654" vert-adv-y="1000"  />

      
      <glyph glyph-name="unidf" unicode="&#xdf;" d="M177 357L177 401L258 401Q288 401 315 406.50Q342 412 369 425.50Q396 439 412.50 466Q429 493 429 531Q429 666 266 666Q182 666 145 626.50Q108 587 105 517L105 0L57 0L57 518Q57 613 115.50 662Q174 711 264 711Q358 711 417.50 666.50Q477 622 477 531Q477 477 446.50 437Q416 397 365 384Q523 351 523 183Q523 111 490 63Q457 15 405-1.50Q353-18 293.50-14.50Q234-11 177 12L177 58Q252 26 318.50 27.50Q385 29 430.50 70.50Q476 112 476 182Q476 357 262 357L177 357Z"  horiz-adv-x="587" vert-adv-y="1000"  />

      
      <glyph glyph-name="unie0" unicode="&#xe0;" d="M481 494L530 494L530 0L481 0L481 105Q411-8 279-8Q174-8 101 64Q28 136 28 247Q28 358 100.50 429Q173 500 279 500Q342 500 396.50 471Q451 442 481 386L481 494M279 453Q193 453 135 395.50Q77 338 77 247Q77 156 135 98Q193 40 279 40Q336 40 380 63Q424 86 447 122Q470 158 481 202Q492 246 481 290.50Q470 335 447 371Q424 407 380 430Q336 453 279 453M330 584L282 584L190 707L190 708L255 708L330 588L330 584Z"  horiz-adv-x="608" vert-adv-y="1000"  />

      
      <glyph glyph-name="unie1" unicode="&#xe1;" d="M530 494L481 494L481 386Q451 442 396.50 471Q342 500 279 500Q173 500 100.50 429Q28 358 28 247Q28 136 101 64Q174-8 279-8Q411-8 481 105L481 0L530 0L530 494M279 453Q345 453 393 422.50Q441 392 463 346Q485 300 485 246.50Q485 193 463 147Q441 101 393 70.50Q345 40 279 40Q193 40 135 98Q77 156 77 247Q77 338 135 395.50Q193 453 279 453M296 582L248 582L248 586L323 706L388 706L388 705L296 582Z"  horiz-adv-x="608" vert-adv-y="1000"  />

      
      <glyph glyph-name="unie2" unicode="&#xe2;" d="M530 494L481 494L481 386Q451 442 396.50 471Q342 500 279 500Q173 500 100.50 429Q28 358 28 247Q28 136 101 64Q174-8 279-8Q411-8 481 105L481 0L530 0L530 494M279 453Q345 453 393 422.50Q441 392 463 346Q485 300 485 246.50Q485 193 463 147Q441 101 393 70.50Q345 40 279 40Q193 40 135 98Q77 156 77 247Q77 338 135 395.50Q193 453 279 453M127 571L269 703L309 703L451 571L451 564L398 564L289 660L180 564L127 564L127 571Z"  horiz-adv-x="608" vert-adv-y="1000"  />

      
      <glyph glyph-name="unie3" unicode="&#xe3;" d="M481 494L530 494L530 0L481 0L481 105Q411-8 279-8Q174-8 101 64Q28 136 28 247Q28 358 100.50 429Q173 500 279 500Q342 500 396.50 471Q451 442 481 386L481 494M279 453Q193 453 135 395.50Q77 338 77 247Q77 156 135 98Q193 40 279 40Q336 40 380 63Q424 86 447 122Q470 158 481 202Q492 246 481 290.50Q470 335 447 371Q424 407 380 430Q336 453 279 453M201 623L167 634Q172 678 207.50 694.50Q243 711 279 692L320 670Q338 660 356.50 666Q375 672 381 696L415 685Q411 640 375 623.50Q339 607 303 627L262 649Q244 659 225.50 652.50Q207 646 201 623Z"  horiz-adv-x="608" vert-adv-y="1000"  />

      
      <glyph glyph-name="unie4" unicode="&#xe4;" d="M530 494L481 494L481 386Q451 442 396.50 471Q342 500 279 500Q173 500 100.50 429Q28 358 28 247Q28 136 101 64Q174-8 279-8Q411-8 481 105L481 0L530 0L530 494M279 453Q345 453 393 422.50Q441 392 463 346Q485 300 485 246.50Q485 193 463 147Q441 101 393 70.50Q345 40 279 40Q193 40 135 98Q77 156 77 247Q77 338 135 395.50Q193 453 279 453M164.50 639.50Q164.50 639.50 158.25 644.75Q152 650 152 668Q152 686 164.50 696.50Q177 707 191.50 707Q206 707 218.50 696.50Q231 686 231 668Q231 650 218.50 639.50Q206 629 191.50 629Q177 629 164.50 639.50M378.50 639.50Q378.50 639.50 372.25 644.75Q366 650 366 668Q366 686 378.50 696.50Q391 707 405.50 707Q420 707 432.50 696.50Q445 686 445 668Q445 650 432.50 639.50Q420 629 405.50 629Q391 629 378.50 639.50Z"  horiz-adv-x="608" vert-adv-y="1000"  />

      
      <glyph glyph-name="unie5" unicode="&#xe5;" d="M481 494L530 494L530 0L481 0L481 105Q411-8 279-8Q174-8 101 64Q28 136 28 247Q28 358 100.50 429Q173 500 279 500Q342 500 396.50 471Q451 442 481 386L481 494M279 453Q193 453 135 395.50Q77 338 77 247Q77 156 135 98Q193 40 279 40Q336 40 380 63Q424 86 447 122Q470 158 481 202Q492 246 481 290.50Q470 335 447 371Q424 407 380 430Q336 453 279 453M188 652Q188 695 218.50 719Q249 743 292 743Q335 743 367 719Q399 695 399 652Q399 608 368.50 583Q338 558 291 558Q243 558 215.50 583Q188 608 188 652M291 707Q254 707 239 679.50Q224 652 239 624.50Q254 597 291 597Q330 597 346 624.50Q362 652 346 679.50Q330 707 291 707Z"  horiz-adv-x="608" vert-adv-y="1000"  />

      
      <glyph glyph-name="unie6" unicode="&#xe6;" d="M726-7Q660-7 607 21Q554 49 523 100L523 0L482 0L482 105Q412-8 279-8Q174-8 101 64Q28 136 28 247Q28 358 100.50 429Q173 500 279 500Q342 500 398.50 470.50Q455 441 484 386L484 494L525 494L525 390Q556 443 608.50 472.50Q661 502 726 502Q840 502 911.50 431Q983 360 970 224L523 224Q530 140 588 90.50Q646 41 726 41Q777 41 827 61Q877 81 904 116L939 88Q904 42 846 17.50Q788-7 726-7M279 453Q193 453 135 395.50Q77 338 77 247Q77 156 135 98Q193 40 279 40Q329 40 369.50 57.50Q410 75 434.50 104.50Q459 134 472.50 171Q486 208 486 246.50Q486 285 472.50 322Q459 359 434.50 388.50Q410 418 369.50 435.50Q329 453 279 453M523 267L926 267Q925 357 871 407Q817 457 726 457Q647 457 589 406Q531 355 523 267Z"  horiz-adv-x="1042" vert-adv-y="1000"  />

      
      <glyph glyph-name="unie7" unicode="&#xe7;" d="M228-88L222-83L240-2Q147 10 86.50 77Q26 144 26 247Q26 362 98 430.50Q170 499 280 499Q384 499 460 425L428 394Q369 453 280 453Q192 453 133 398Q74 343 74 247Q74 151 133 96Q192 41 280 41Q366 41 427 102L460 69Q386-5 280-5L279-5L268-53Q325-50 348.50-81.50Q372-113 362-154Q353-189 324-206.50Q295-224 259-224Q185-224 156-171L184-144Q211-183 259-183Q312-183 322-145Q331-115 305.50-96Q280-77 228-88Z"  horiz-adv-x="505" vert-adv-y="1000"  />

      
      <glyph glyph-name="unie8" unicode="&#xe8;" d="M278-7Q171-7 99 62.50Q27 132 27 247Q27 357 100 429.50Q173 502 278 502Q392 502 463.50 431Q535 360 522 224L77 224Q84 140 141.50 90.50Q199 41 278 41Q329 41 379 61Q429 81 456 116L491 88Q456 42 398 17.50Q340-7 278-7M77 267L478 267Q477 357 423 407Q369 457 278 457Q199 457 142 406Q85 355 77 267M333 577L285 577L193 700L193 701L258 701L333 581L333 577Z"  horiz-adv-x="594" vert-adv-y="1000"  />

      
      <glyph glyph-name="unie9" unicode="&#xe9;" d="M278-7Q340-7 398 17.50Q456 42 491 88L456 116Q429 81 379 61Q329 41 278 41Q199 41 141.50 90.50Q84 140 77 224L522 224Q535 360 463.50 431Q392 502 278 502Q173 502 100 429.50Q27 357 27 247Q27 132 99 62.50Q171-7 278-7M77 267Q85 355 142 406Q199 457 278 457Q369 457 423 407Q477 357 478 267L77 267M292 577L244 577L244 581L319 701L384 701L384 700L292 577Z"  horiz-adv-x="594" vert-adv-y="1000"  />

      
      <glyph glyph-name="uniea" unicode="&#xea;" d="M278-7Q340-7 398 17.50Q456 42 491 88L456 116Q429 81 379 61Q329 41 278 41Q199 41 141.50 90.50Q84 140 77 224L522 224Q535 360 463.50 431Q392 502 278 502Q173 502 100 429.50Q27 357 27 247Q27 132 99 62.50Q171-7 278-7M77 267Q85 355 142 406Q199 457 278 457Q369 457 423 407Q477 357 478 267L77 267M124 569L266 701L306 701L448 569L448 562L395 562L286 658L177 562L124 562L124 569Z"  horiz-adv-x="594" vert-adv-y="1000"  />

      
      <glyph glyph-name="unieb" unicode="&#xeb;" d="M278-7Q340-7 398 17.50Q456 42 491 88L456 116Q429 81 379 61Q329 41 278 41Q199 41 141.50 90.50Q84 140 77 224L522 224Q535 360 463.50 431Q392 502 278 502Q173 502 100 429.50Q27 357 27 247Q27 132 99 62.50Q171-7 278-7M77 267Q85 355 142 406Q199 457 278 457Q369 457 423 407Q477 357 478 267L77 267M151.50 632.50Q151.50 632.50 145.25 637.75Q139 643 139 661Q139 679 151.50 689.50Q164 700 178.50 700Q193 700 205.50 689.50Q218 679 218 661Q218 643 205.50 632.50Q193 622 178.50 622Q164 622 151.50 632.50M365.50 632.50Q365.50 632.50 359.25 637.75Q353 643 353 661Q353 679 365.50 689.50Q378 700 392.50 700Q407 700 419.50 689.50Q432 679 432 661Q432 643 419.50 632.50Q407 622 392.50 622Q378 622 365.50 632.50Z"  horiz-adv-x="594" vert-adv-y="1000"  />

      
      <glyph glyph-name="uniec" unicode="&#xec;" d="M103 580L57 580L-9 700L-9 701L47 701L103 584L103 580M52 496L101 496L101 0L52 0L52 496Z"  horiz-adv-x="172" vert-adv-y="1000"  />

      
      <glyph glyph-name="unied" unicode="&#xed;" d="M87 580L41 580L41 584L97 701L153 701L153 700L87 580M95 496L46 496L46 0L95 0L95 496Z"  horiz-adv-x="176" vert-adv-y="1000"  />

      
      <glyph glyph-name="uniee" unicode="&#xee;" d="M-30 581L68 701L99 701L192 581L192 574L150 574L83 658L13 574L-30 574L-30 581M104 496L55 496L55 0L104 0L104 496Z"  horiz-adv-x="192" vert-adv-y="1000"  />

      
      <glyph glyph-name="unief" unicode="&#xef;" d="M-8 626Q-8 626-17.50 630.50Q-27 635-27 658Q-27 681-8.50 690Q10 699 29 690Q48 681 48 658Q48 635 29.50 626Q11 617-8 626M129.50 626Q129.50 626 120.25 630.50Q111 635 111 658Q111 681 129.50 690Q148 699 166.50 690Q185 681 185 658Q185 635 166.50 626Q148 617 129.50 626M104 496L55 496L55 0L104 0L104 496Z"  horiz-adv-x="193" vert-adv-y="1000"  />

      
      <glyph glyph-name="unif0" unicode="&#xf0;" d="M363 716L395 694L349 629Q536 504 539 253Q541 135 471.50 62Q402-11 285-11Q215-11 160.50 16.50Q106 44 77.50 88Q49 132 36 185Q23 238 36 291.50Q49 345 77.50 389Q106 433 160.50 460.50Q215 488 285 488Q388 488 470 410Q439 514 323 592L281 532L249 554L290 613Q236 643 186 656L200 698Q268 676 316 649L363 716M185 57.50Q185 57.50 207 46.25Q229 35 285 35Q341 35 385 57.50Q429 80 451.50 116Q474 152 484.50 195.50Q495 239 484.50 282.50Q474 326 451.50 362Q429 398 385 420.50Q341 443 285 443Q229 443 185 420.50Q141 398 118.50 362Q96 326 85.50 282.50Q75 239 85.50 195.50Q96 152 118.50 116Q141 80 185 57.50Z"  horiz-adv-x="596" vert-adv-y="1000"  />

      
      <glyph glyph-name="unif1" unicode="&#xf1;" d="M55 494L103 494L103 406Q156 501 279 503Q379 503 440.50 444.50Q502 386 502 285L502 0L453 0L453 284Q453 367 406 411.50Q359 456 277 455Q201 454 152.50 403Q104 352 104 275L104 0L55 0L55 494M188 625L154 635Q159 676 194.50 691.50Q230 707 265 689L306 668Q324 659 342.50 664.50Q361 670 367 692L401 682Q397 641 361 625.50Q325 610 289 628L248 649Q231 658 212.50 652Q194 646 188 625Z"  horiz-adv-x="575" vert-adv-y="1000"  />

      
      <glyph glyph-name="unif2" unicode="&#xf2;" d="M462 62Q462 62 426 27.50Q390-7 283-7Q176-7 104 62Q32 131 32 246Q32 361 104 432Q176 503 283 503Q390 503 462 432Q534 361 534 246Q534 131 462 62M138 97Q138 97 167 69Q196 41 283 41Q370 41 428 97Q486 153 486 246Q486 340 427.50 398.50Q369 457 283 457Q197 457 138.50 398.50Q80 340 80 246Q80 153 138 97M324 586L276 586L184 705L184 706L249 706L324 590L324 586Z"  horiz-adv-x="592" vert-adv-y="1000"  />

      
      <glyph glyph-name="unif3" unicode="&#xf3;" d="M104 62Q104 62 140 27.50Q176-7 283-7Q390-7 462 62Q534 131 534 246Q534 361 462 432Q390 503 283 503Q176 503 104 432Q32 361 32 246Q32 131 104 62M428 97Q428 97 399 69Q370 41 283 41Q196 41 138 97Q80 153 80 246Q80 340 138.50 398.50Q197 457 283 457Q369 457 427.50 398.50Q486 340 486 246Q486 153 428 97M297 580L251 580L251 584L323 696L386 696L386 695L297 580Z"  horiz-adv-x="592" vert-adv-y="1000"  />

      
      <glyph glyph-name="unif4" unicode="&#xf4;" d="M104 62Q104 62 140 27.50Q176-7 283-7Q390-7 462 62Q534 131 534 246Q534 361 462 432Q390 503 283 503Q176 503 104 432Q32 361 32 246Q32 131 104 62M428 97Q428 97 399 69Q370 41 283 41Q196 41 138 97Q80 153 80 246Q80 340 138.50 398.50Q197 457 283 457Q369 457 427.50 398.50Q486 340 486 246Q486 153 428 97M128 579L270 711L310 711L452 579L452 572L399 572L290 668L181 572L128 572L128 579Z"  horiz-adv-x="592" vert-adv-y="1000"  />

      
      <glyph glyph-name="unif5" unicode="&#xf5;" d="M462 62Q462 62 426 27.50Q390-7 283-7Q176-7 104 62Q32 131 32 246Q32 361 104 432Q176 503 283 503Q390 503 462 432Q534 361 534 246Q534 131 462 62M138 97Q138 97 167 69Q196 41 283 41Q370 41 428 97Q486 153 486 246Q486 340 427.50 398.50Q369 457 283 457Q197 457 138.50 398.50Q80 340 80 246Q80 153 138 97M198 622L164 632Q169 674 204.50 690.50Q240 707 277 688L318 667Q336 657 354.50 663Q373 669 379 692L413 682Q409 639 373 622.50Q337 606 301 626L260 647Q242 656 223 650Q204 644 198 622Z"  horiz-adv-x="592" vert-adv-y="1000"  />

      
      <glyph glyph-name="unif6" unicode="&#xf6;" d="M104 62Q104 62 140 27.50Q176-7 283-7Q390-7 462 62Q534 131 534 246Q534 361 462 432Q390 503 283 503Q176 503 104 432Q32 361 32 246Q32 131 104 62M428 97Q428 97 399 69Q370 41 283 41Q196 41 138 97Q80 153 80 246Q80 340 138.50 398.50Q197 457 283 457Q369 457 427.50 398.50Q486 340 486 246Q486 153 428 97M154.50 614.50Q154.50 614.50 148.25 619.75Q142 625 142 643Q142 661 154.50 671.50Q167 682 181.50 682Q196 682 208.50 671.50Q221 661 221 643Q221 625 208.50 614.50Q196 604 181.50 604Q167 604 154.50 614.50M368.50 614.50Q368.50 614.50 362.25 619.75Q356 625 356 643Q356 661 368.50 671.50Q381 682 395.50 682Q410 682 422.50 671.50Q435 661 435 643Q435 625 422.50 614.50Q410 604 395.50 604Q381 604 368.50 614.50Z"  horiz-adv-x="592" vert-adv-y="1000"  />

      
      <glyph glyph-name="unif7" unicode="&#xf7;" d="M36 359L36 309L440 309L440 359L36 359M213.50 150.50Q213.50 150.50 207.25 155.75Q201 161 201 179Q201 197 213.50 207.50Q226 218 240.50 218Q255 218 267.50 207.50Q280 197 280 179Q280 161 267.50 150.50Q255 140 240.50 140Q226 140 213.50 150.50M213.50 455.50Q213.50 455.50 207.25 460.75Q201 466 201 484Q201 502 213.50 512.50Q226 523 240.50 523Q255 523 267.50 512.50Q280 502 280 484Q280 466 267.50 455.50Q255 445 240.50 445Q226 445 213.50 455.50Z"  horiz-adv-x="485" vert-adv-y="1000"  />

      
      <glyph glyph-name="unif8" unicode="&#xf8;" d="M283-7Q221-7 173 15L132-54L82-54L136 36Q32 105 32 246Q32 361 104 432Q176 503 283 503Q345 503 399 477L436 539L487 539L436 454Q534 381 534 246Q534 131 462 62Q390-7 283-7M283 457Q197 457 138.50 398.50Q80 340 80 246Q80 134 161 78L374 436Q330 457 283 457M283 41Q370 41 428 97Q486 153 486 246Q486 353 411 413L199 57Q235 41 283 41Z"  horiz-adv-x="592" vert-adv-y="1000"  />

      
      <glyph glyph-name="unif9" unicode="&#xf9;" d="M501 0L453 0L453 89Q400-6 277-8Q177-8 115.50 50.50Q54 109 54 210L54 495L103 495L103 211Q103 128 150 83.50Q197 39 279 40Q355 41 403.50 92Q452 143 452 220L452 495L501 495L501 0M325 577L277 577L185 700L185 701L250 701L325 581L325 577Z"  horiz-adv-x="575" vert-adv-y="1000"  />

      
      <glyph glyph-name="unifa" unicode="&#xfa;" d="M453 0L501 0L501 495L452 495L452 220Q452 143 403.50 92Q355 41 279 40Q197 39 150 83.50Q103 128 103 211L103 495L54 495L54 210Q54 109 115.50 50.50Q177-8 277-8Q400-6 453 89L453 0M295 577L247 577L247 581L322 701L387 701L387 700L295 577Z"  horiz-adv-x="575" vert-adv-y="1000"  />

      
      <glyph glyph-name="unifb" unicode="&#xfb;" d="M453 0L501 0L501 495L452 495L452 220Q452 143 403.50 92Q355 41 279 40Q197 39 150 83.50Q103 128 103 211L103 495L54 495L54 210Q54 109 115.50 50.50Q177-8 277-8Q400-6 453 89L453 0M125 574L262 701L301 701L438 574L438 567L387 567L281 659L176 567L125 567L125 574Z"  horiz-adv-x="575" vert-adv-y="1000"  />

      
      <glyph glyph-name="unifc" unicode="&#xfc;" d="M453 0L501 0L501 495L452 495L452 220Q452 143 403.50 92Q355 41 279 40Q197 39 150 83.50Q103 128 103 211L103 495L54 495L54 210Q54 109 115.50 50.50Q177-8 277-8Q400-6 453 89L453 0M152.50 632.50Q152.50 632.50 146.25 637.75Q140 643 140 661Q140 679 152.50 689.50Q165 700 179.50 700Q194 700 206.50 689.50Q219 679 219 661Q219 643 206.50 632.50Q194 622 179.50 622Q165 622 152.50 632.50M366.50 632.50Q366.50 632.50 360.25 637.75Q354 643 354 661Q354 679 366.50 689.50Q379 700 393.50 700Q408 700 420.50 689.50Q433 679 433 661Q433 643 420.50 632.50Q408 622 393.50 622Q379 622 366.50 632.50Z"  horiz-adv-x="575" vert-adv-y="1000"  />

      
      <glyph glyph-name="unifd" unicode="&#xfd;" d="M477 494L424 494L300 203L243 59L185 202L70 494L17 494L215 6L124-206L176-206L477 494M258 584L213 584L213 588L283 701L345 701L345 700L258 584Z"  horiz-adv-x="517" vert-adv-y="1000"  />

      
      <glyph glyph-name="unife" unicode="&#xfe;" d="M105-206L58-206L58 699L104 699L105 377Q135 434 192 467.50Q249 501 320 501Q425 497 492.50 429.50Q560 362 560 247Q560 127 489 59Q418-9 309-9Q244-9 190 22.50Q136 54 105 114L105-206M309 38Q397 38 454 92.50Q511 147 511 247Q511 347 454 400.50Q397 454 309 454Q223 454 166 395.50Q109 337 109 246Q109 156 166.50 97Q224 38 309 38Z"  horiz-adv-x="622" vert-adv-y="1000"  />

      
      <glyph glyph-name="uniff" unicode="&#xff;" d="M477 494L424 494L300 203L243 59L185 202L70 494L17 494L215 6L124-206L176-206L477 494M112 667Q112 691 131 700.50Q150 710 168.50 700.50Q187 691 187 667Q187 644 168.50 634.50Q150 625 131 634.50Q112 644 112 667M316 667Q316 691 335 700.50Q354 710 372.50 700.50Q391 691 391 667Q391 644 372.50 634.50Q354 625 335 634.50Q316 644 316 667Z"  horiz-adv-x="517" vert-adv-y="1000"  />

      
      <glyph glyph-name="uni0131" unicode="&#x0131;" d="M55 496L104 496L104 0L55 0L55 496Z"  horiz-adv-x="189" vert-adv-y="1000"  />

      
      <glyph glyph-name="uni0141" unicode="&#x0141;" d="M64 700L118 700L118 370L234 419L234 365L118 317L118 51L512 51L512 0L64 0L64 295L-6 267L-6 319L64 348L64 700Z"  horiz-adv-x="564" vert-adv-y="1000"  />

      
      <glyph glyph-name="uni0142" unicode="&#x0142;" d="M59 700L108 700L108 367L189 400L189 346L108 314L108 0L59 0L59 295L-13 267L-13 319L59 348L59 700Z"  horiz-adv-x="199" vert-adv-y="1000"  />

      
      <glyph glyph-name="uni0152" unicode="&#x0152;" d="M521 652L521 377L861 377L861 328L521 328L521 48L898 48L898 0L475 0Q438-5 406-5Q321-5 252.50 24.50Q184 54 141 104Q98 154 75.50 217Q53 280 53 351Q53 448 91 526.50Q129 605 210.50 655.50Q292 706 406 706Q444 706 477 700L883 700L883 652L521 652M406 664Q309 664 239.50 619.50Q170 575 137.50 505Q105 435 106 350Q107 222 186 131Q265 40 406 40Q442 40 475 46L475 658Q442 664 406 664Z"  horiz-adv-x="976" vert-adv-y="1000"  />

      
      <glyph glyph-name="uni0153" unicode="&#x0153;" d="M743-7Q667-7 608 33Q549 73 523 139Q496 69 437.50 31Q379-7 301-7Q194-7 122 62Q50 131 50 246Q50 361 122 432Q194 503 301 503Q379 503 437.50 463Q496 423 523 352Q550 419 609 460.50Q668 502 743 502Q856 502 926 431.50Q996 361 983 224Q693 224 545 223Q552 139 608 90Q664 41 743 41Q794 41 842 61Q890 81 917 116L952 88Q917 42 860.50 17.50Q804-7 743-7M301 41Q387 41 444.50 96.50Q502 152 502 246Q502 340 444.50 398.50Q387 457 301 457Q215 457 156.50 398.50Q98 340 98 246Q98 153 156 97Q214 41 301 41M545 267L939 267Q938 357 885.50 407Q833 457 743 457Q664 457 608.50 406Q553 355 545 267Z"  horiz-adv-x="1079" vert-adv-y="1000"  />

      
      <glyph glyph-name="uni0160" unicode="&#x0160;" d="M518 565L562 591Q514 662 453.50 686Q393 710 306 710Q259 710 215 700Q171 690 129.50 669Q88 648 63.50 608.50Q39 569 40 516Q40 485 49.50 460Q59 435 80 417Q101 399 120.50 387Q140 375 176 364.50Q212 354 234.50 349Q257 344 299 336Q337 329 357 324.50Q377 320 409 311Q441 302 458.50 292Q476 282 494.50 267Q513 252 521 231.50Q529 211 529 186Q529 142 507 111Q485 80 449 65Q413 50 378 44Q343 38 306 38Q236 38 166.50 71.50Q97 105 67 165L19 141Q57 66 137 27.50Q217-11 306-11Q355-11 399.50-2Q444 7 487 27.50Q530 48 556.50 88.50Q583 129 583 185Q583 228 568 260Q553 292 527.50 312Q502 332 467 346Q432 360 394.50 368.50Q357 377 316 385Q311 386 308 386Q265 394 239.50 399.50Q214 405 182.50 416Q151 427 134.50 439.50Q118 452 106 472Q94 492 94 518Q94 570 131.50 604Q169 638 213.50 649Q258 660 306 660Q378 659 430.50 640Q483 621 518 565M470 910L328 778L288 778L146 910L146 917L199 917L308 821L417 917L470 917L470 910Z"  horiz-adv-x="642" vert-adv-y="1000"  />

      
      <glyph glyph-name="uni0161" unicode="&#x0161;" d="M394 404L424 436Q354 502 240 502Q158 503 100.50 467.50Q43 432 44 364Q44 335 56 313.50Q68 292 83.50 279Q99 266 128 256Q157 246 178 241.50Q199 237 236 231Q268 226 285 222.50Q302 219 327.50 211.50Q353 204 365.50 194.50Q378 185 388 169.50Q398 154 397 133Q396 97 368.50 74.50Q341 52 310 45.50Q279 39 243 39Q190 39 140.50 60Q91 81 62 123L26 91Q57 43 115.50 17.50Q174-8 242-8Q291-8 333.50 3Q376 14 410 46.50Q444 79 445 130Q446 162 434 186Q422 210 405.50 223.50Q389 237 358 248Q327 259 307.50 263Q288 267 253 273Q245 274 241 275Q216 279 207.50 281Q199 283 176 288.50Q153 294 142.50 299.50Q132 305 118 314.50Q104 324 97.50 336.50Q91 349 91 365Q90 410 133.50 433.50Q177 457 240 456Q335 456 394 404M407 696L270 569L231 569L95 696L95 703L146 703L251 610L356 703L407 703L407 696Z"  horiz-adv-x="499" vert-adv-y="1000"  />

      
      <glyph glyph-name="uni0178" unicode="&#x0178;" d="M277 280L277 0L331 0L331 280L605 699L605 700L542 700L304 332L67 700L4 700L4 699L277 280M169.50 777.50Q169.50 777.50 163.25 782.75Q157 788 157 806Q157 824 169.50 834.50Q182 845 196.50 845Q211 845 223.50 834.50Q236 824 236 806Q236 788 223.50 777.50Q211 767 196.50 767Q182 767 169.50 777.50M383.50 777.50Q383.50 777.50 377.25 782.75Q371 788 371 806Q371 824 383.50 834.50Q396 845 410.50 845Q425 845 437.50 834.50Q450 824 450 806Q450 788 437.50 777.50Q425 767 410.50 767Q396 767 383.50 777.50Z"  horiz-adv-x="639" vert-adv-y="1000"  />

      
      <glyph glyph-name="uni017D" unicode="&#x017D;" d="M37 700L37 650L458 650L13 23L13 0L544 0L544 53L93 53L544 681L544 700L37 700M461 907L319 775L279 775L137 907L137 914L190 914L299 818L408 914L461 914L461 907Z"  horiz-adv-x="578" vert-adv-y="1000"  />

      
      <glyph glyph-name="uni017E" unicode="&#x017E;" d="M40 494L40 450L339 450L24 17L24 0L412 0L412 46L100 46L412 475L412 494L40 494M390 693L256 569L219 569L85 693L85 700L135 700L237 609L340 700L390 700L390 693Z"  horiz-adv-x="473" vert-adv-y="1000"  />

      
      <glyph glyph-name="uni0192" unicode="&#x0192;" d="M122-1L122 447L21 447L21 490L122 490L122 534Q122 703 270 703Q323 703 368 669L344 633Q302 658 268 658Q170 658 170 534L170 490L333 490L333 447L170 447L170-1Q170-83 140.50-127Q111-171 35-171Q-12-171-59-136L-36-102Q-5-127 37-127Q83-127 102.50-97Q122-67 122-1Z"  horiz-adv-x="386" vert-adv-y="1000"  />

      
      <glyph glyph-name="uni02C6" unicode="&#x02C6;" d="M36 569L178 701L218 701L360 569L360 562L307 562L198 658L89 562L36 562L36 569Z"  horiz-adv-x="421" vert-adv-y="1000"  />

      
      <glyph glyph-name="uni02C7" unicode="&#x02C7;" d="M360 694L218 562L178 562L36 694L36 701L89 701L198 605L307 701L360 701L360 694Z"  horiz-adv-x="404" vert-adv-y="1000"  />

      
      <glyph glyph-name="uni02D8" unicode="&#x02D8;" d="M241 700L283 700Q283 642 249.50 609.50Q216 577 157 577Q97 577 64 609.50Q31 642 31 700L71 700Q71 617 157 617Q204 617 222.50 641.50Q241 666 241 700Z"  horiz-adv-x="333" vert-adv-y="1000"  />

      
      <glyph glyph-name="uni02D9" unicode="&#x02D9;" d="M68.50 638.50Q68.50 638.50 62.25 643.75Q56 649 56 667Q56 685 68.50 695.50Q81 706 95.50 706Q110 706 122.50 695.50Q135 685 135 667Q135 649 122.50 638.50Q110 628 95.50 628Q81 628 68.50 638.50Z"  horiz-adv-x="206" vert-adv-y="1000"  />

      
      <glyph glyph-name="uni02DA" unicode="&#x02DA;" d="M74 622Q74 667 105 692.50Q136 718 179 718Q222 718 254 692.50Q286 667 286 622Q286 576 255.50 549.50Q225 523 178 523Q130 523 102 549.50Q74 576 74 622M178 680Q141 680 125.50 651Q110 622 125.50 593Q141 564 178 564Q217 564 233 593Q249 622 233 651Q217 680 178 680Z"  horiz-adv-x="397" vert-adv-y="1000"  />

      
      <glyph glyph-name="uni02DB" unicode="&#x02DB;" d="M220-10L235-41Q151-26 122-70Q102-100 123-130Q143-157 183-155Q207-154 231-141Q255-128 269-105L301-123Q286-155 254-173Q222-191 186-193Q111-196 83-143Q59-98 88-55Q127 1 220-10Z"  horiz-adv-x="407" vert-adv-y="1000"  />

      
      <glyph glyph-name="uni02DC" unicode="&#x02DC;" d="M65 628L31 639Q36 683 71.50 699.50Q107 716 143 697L184 675Q202 665 220.50 671Q239 677 245 701L279 690Q275 645 239 628.50Q203 612 167 632L126 654Q108 664 89.50 657.50Q71 651 65 628Z"  horiz-adv-x="325" vert-adv-y="1000"  />

      
      <glyph glyph-name="uni02DD" unicode="&#x02DD;" d="M79 588L31 588L31 592L103 701L168 701L168 700L79 588M211 588L163 588L163 592L235 701L300 701L300 700L211 588Z"  horiz-adv-x="352" vert-adv-y="1000"  />

      
      <glyph glyph-name="uni2013" unicode="&#x2013;" d="M32 280L32 331L478 331L478 280L32 280Z"  horiz-adv-x="549" vert-adv-y="1000"  />

      
      <glyph glyph-name="uni2014" unicode="&#x2014;" d="M39 280L39 331L592 331L592 280L39 280Z"  horiz-adv-x="654" vert-adv-y="1000"  />

      
      <glyph glyph-name="uni2018" unicode="&#x2018;" d="M107 703L151 703L99 515L42 515L107 703Z"  horiz-adv-x="205" vert-adv-y="1000"  />

      
      <glyph glyph-name="uni2019" unicode="&#x2019;" d="M85 513L41 513L93 701L150 701L85 513Z"  horiz-adv-x="200" vert-adv-y="1000"  />

      
      <glyph glyph-name="uni201A" unicode="&#x201A;" d="M45 30Q45 48 57.50 58.50Q70 69 84.50 69Q99 69 111.50 58.50Q124 48 124 30Q124 22 121 13L81-89L38-89L69-6Q45 3 45 30Z"  horiz-adv-x="198" vert-adv-y="1000"  />

      
      <glyph glyph-name="uni201C" unicode="&#x201C;" d="M231 701L275 701L223 513L166 513L231 701M105 701L149 701L97 513L40 513L105 701Z"  horiz-adv-x="344" vert-adv-y="1000"  />

      
      <glyph glyph-name="uni201D" unicode="&#x201D;" d="M85 513L41 513L93 701L150 701L85 513M211 513L167 513L219 701L276 701L211 513Z"  horiz-adv-x="335" vert-adv-y="1000"  />

      
      <glyph glyph-name="uni201E" unicode="&#x201E;" d="M45 30Q45 48 57.50 58.50Q70 69 84.50 69Q99 69 111.50 58.50Q124 48 124 30Q124 22 121 13L81-89L38-89L69-6Q45 3 45 30M186 30Q186 48 198.50 58.50Q211 69 225.50 69Q240 69 252.50 58.50Q265 48 265 30Q265 22 262 13L222-89L179-89L210-6Q186 3 186 30Z"  horiz-adv-x="318" vert-adv-y="1000"  />

      
      <glyph glyph-name="uni2020" unicode="&#x2020;" d="M503 503L503 456L287 456L287-132L238-132L238 456L22 456L22 503L238 503L238 700L287 700L287 503L503 503Z"  horiz-adv-x="554" vert-adv-y="1000"  />

      
      <glyph glyph-name="uni2021" unicode="&#x2021;" d="M525 503L525 456L309 456L309 178L525 178L525 131L309 131L309-132L260-132L260 131L44 131L44 178L260 178L260 456L44 456L44 503L260 503L260 700L309 700L309 503L525 503Z"  horiz-adv-x="596" vert-adv-y="1000"  />

      
      <glyph glyph-name="uni2022" unicode="&#x2022;" d="M147 253Q104 253 76.50 279.50Q49 306 49 349Q49 392 76.50 418.50Q104 445 147 445Q188 445 215.50 418.50Q243 392 243 349Q243 306 215.50 279.50Q188 253 147 253Z"  horiz-adv-x="330" vert-adv-y="1000"  />

      
      <glyph glyph-name="uni2026" unicode="&#x2026;" d="M48.50 1.50Q48.50 1.50 42.25 6.75Q36 12 36 30Q36 48 48.50 58.50Q61 69 75.50 69Q90 69 102.50 58.50Q115 48 115 30Q115 12 102.50 1.50Q90-9 75.50-9Q61-9 48.50 1.50M221.50 1.50Q221.50 1.50 215.25 6.75Q209 12 209 30Q209 48 221.50 58.50Q234 69 248.50 69Q263 69 275.50 58.50Q288 48 288 30Q288 12 275.50 1.50Q263-9 248.50-9Q234-9 221.50 1.50M392.50 1.50Q392.50 1.50 386.25 6.75Q380 12 380 30Q380 48 392.50 58.50Q405 69 419.50 69Q434 69 446.50 58.50Q459 48 459 30Q459 12 446.50 1.50Q434-9 419.50-9Q405-9 392.50 1.50Z"  horiz-adv-x="530" vert-adv-y="1000"  />

      
      <glyph glyph-name="uni2030" unicode="&#x2030;" d="M593 703L538 702L92 0L148 0L593 703M173 705Q222 705 257.50 683Q293 661 309.50 628.50Q326 596 326 557.50Q326 519 309.50 486.50Q293 454 257.50 432Q222 410 173 410Q131 410 98.50 426.50Q66 443 49 469Q32 495 24 526Q16 557 24 588.50Q32 620 49 646Q66 672 98.50 688.50Q131 705 173 705M514 289Q556 289 589 272.50Q622 256 639 230Q656 204 664 173Q672 142 664 110.50Q656 79 639 53Q622 27 589 10.50Q556-6 514-6Q466-6 430 16Q394 38 378 70.50Q362 103 362 141.50Q362 180 378 212.50Q394 245 430 267Q466 289 514 289M582 226Q582 226 568 237Q554 248 514 248Q474 248 446 226Q418 204 412 173Q406 142 412.50 111Q419 80 447 58Q475 36 515 36Q555 36 583 58Q611 80 617 111Q623 142 616.50 173Q610 204 582 226M173 662Q132 662 104.50 640.50Q77 619 70.50 588.50Q64 558 70.50 527.50Q77 497 105 475.50Q133 454 174 454Q214 454 241 475.50Q268 497 274.50 527.50Q281 558 274.50 588.50Q268 619 240.50 640.50Q213 662 173 662M877 289Q919 289 952 272.50Q985 256 1002 230Q1019 204 1027 173Q1035 142 1027 110.50Q1019 79 1002 53Q985 27 952 10.50Q919-6 877-6Q829-6 793 16Q757 38 741 70.50Q725 103 725 141.50Q725 180 741 212.50Q757 245 793 267Q829 289 877 289M945 226Q945 226 931 237Q917 248 877 248Q837 248 809 226Q781 204 775 173Q769 142 775.50 111Q782 80 810 58Q838 36 878 36Q918 36 946 58Q974 80 980 111Q986 142 979.50 173Q973 204 945 226Z"  horiz-adv-x="1090" vert-adv-y="1000"  />

      
      <glyph glyph-name="uni2039" unicode="&#x2039;" d="M30 317L168 536L220 536L220 531L85 317L220 103L220 97L168 97L30 317Z"  horiz-adv-x="297" vert-adv-y="1000"  />

      
      <glyph glyph-name="uni203A" unicode="&#x203A;" d="M240 317L102 97L50 97L50 103L185 317L50 531L50 536L102 536L240 317Z"  horiz-adv-x="297" vert-adv-y="1000"  />

      
      <glyph glyph-name="uni2044" unicode="&#x2044;" d="M242 735L290 735L-13-54L-62-54L242 735Z"  horiz-adv-x="208" vert-adv-y="1000"  />

      
      <glyph glyph-name="uni20AC" unicode="&#x20AC;" d="M527 62L541 14Q478-8 417-8Q127-8 76 272L12 272L12 318L70 318Q69 325 69 346Q69 367 70 377L12 377L12 423L76 423Q93 550 181 629Q269 708 417 708Q463 708 516 693L505 650Q461 662 417 662Q169 662 130 423L403 423L390 377L123 377Q122 368 122 348Q122 325 123 318L376 318L366 272L130 272Q147 160 219 101Q291 42 417 42Q473 42 527 62Z"  horiz-adv-x="586" vert-adv-y="1000"  />

      
      <glyph glyph-name="uni2122" unicode="&#x2122;" d="M142 420L142 660L30 660L30 700L303 700L303 660L189 660L189 420L142 420M357 420L357 700L401 700L516 553L632 700L674 700L674 420L627 420L627 622L519 490L510 490L404 626L404 420L357 420Z"  horiz-adv-x="758" vert-adv-y="1000"  />

      
      <glyph glyph-name="uni2212" unicode="&#x2212;" d="M41 313L41 364L416 364L416 313L41 313Z"  horiz-adv-x="498" vert-adv-y="1000"  />

      
      <glyph glyph-name="uniFB01" unicode="&#xFB01;" d="M154 494L403 494L403 0L354 0L354 451L154 451L154 0L106 0L106 451L5 451L5 494L106 494L106 534Q106 616 156 663.50Q206 711 275.50 710Q345 709 402 663L380 626Q352 647 314 656Q276 665 240 659Q204 653 179 621Q154 589 154 534L154 494Z"  horiz-adv-x="480" vert-adv-y="1000"  />

      
      <glyph glyph-name="uniFB02" unicode="&#xFB02;" d="M375 656L375 0L326 0L326 637Q298 658 252 658Q203 658 178.50 630Q154 602 154 534L154 490L281 490L281 448L154 448L154 0L106 0L106 448L5 448L5 490L106 490L106 534Q106 618 140.50 660.50Q175 703 254 703Q326 703 375 656Z"  horiz-adv-x="465" vert-adv-y="1000"  />

      

  </font>
</defs>
</svg>
