<?xml version="1.0" standalone="no"?>
  <!DOCTYPE svg PUBLIC "-//W3C//DTD SVG 1.1//EN" "http://www.w3.org/Graphics/SVG/1.1/DTD/svg11.dtd" >
  <svg>
  <metadata>
  Created by font-carrier
  </metadata>
  <defs>
  <font id="PTSans-Regular" horiz-adv-x="1147" vert-adv-y="1147" >
    <font-face
      
      font-family="PT Sans"
      
      font-weight="400"
      
      font-stretch="normal"
      
      units-per-em="1000"
      
      ascent="900"
      
      descent="-276"
      
    />
      <missing-glyph />

      

      
      <glyph glyph-name="uni21" unicode="&#x21;" d="M127 700L210 700L210 353L193 177L144 177L127 353L127 700M110 46Q110 73 125.50 88.50Q141 104 167 104Q194 104 210 88.50Q226 73 226 46Q226 20 210 4Q194-12 167-12Q141-12 125.50 4Q110 20 110 46Z"  horiz-adv-x="305" vert-adv-y="1000"  />

      
      <glyph glyph-name="uni22" unicode="&#x22;" d="M207 700L285 700L254 507L207 507L207 700M90 700L168 700L137 507L90 507L90 700Z"  horiz-adv-x="335" vert-adv-y="1000"  />

      
      <glyph glyph-name="uni23" unicode="&#x23;" d="M280 225L175 225L136 58L67 58L106 225L28 225L42 289L121 289L152 420L78 420L92 484L167 484L205 642L274 642L236 484L341 484L379 642L448 642L410 484L487 484L471 420L395 420L364 289L437 289L421 225L349 225L310 58L241 58L280 225M190 289L295 289L326 420L221 420L190 289Z"  horiz-adv-x="545" vert-adv-y="1000"  />

      
      <glyph glyph-name="uni24" unicode="&#x24;" d="M242-12Q187-11 144.50-2.50Q102 6 76 20L103 93Q123 81 157.50 71Q192 61 242 60L242 330Q212 345 182.50 362Q153 379 130 402.50Q107 426 93 458Q79 490 79 534Q79 606 119.50 652Q160 698 242 709L242 800L310 800L310 712Q361 710 393.50 702.50Q426 695 452 683L428 613Q408 623 380 630.50Q352 638 310 640L310 393Q341 377 372 358.50Q403 340 427.50 316Q452 292 467 260Q482 228 482 185Q482 107 438.50 56.50Q395 6 310-8L310-100L242-100L242-12M399 178Q399 202 390.50 221Q382 240 368 255Q354 270 335 282Q316 294 294 305L294 62Q340 69 369.50 97.50Q399 126 399 178M162 539Q162 496 189.50 469Q217 442 258 420L258 639Q205 633 183.50 604Q162 575 162 539Z"  horiz-adv-x="545" vert-adv-y="1000"  />

      
      <glyph glyph-name="uni25" unicode="&#x25;" d="M70 542Q70 587 82 619Q94 651 114.50 672Q135 693 163.50 702.50Q192 712 225 712Q258 712 286.50 703Q315 694 335.50 674Q356 654 368 621.50Q380 589 380 542Q380 495 368 462.50Q356 430 335.50 410Q315 390 286.50 381Q258 372 225 372Q192 372 163.50 381Q135 390 114.50 410Q94 430 82 462.50Q70 495 70 542M144 542Q144 482 165.50 456Q187 430 225 430Q244 430 259 435.50Q274 441 284.50 453.50Q295 466 300.50 487.50Q306 509 306 542Q306 575 300.50 596.50Q295 618 284.50 630.50Q274 643 259 648.50Q244 654 225 654Q187 654 165.50 630.50Q144 607 144 542M427 171Q427 216 439 248Q451 280 471.50 301Q492 322 520.50 331.50Q549 341 582 341Q615 341 643.50 332Q672 323 692.50 303Q713 283 725 250.50Q737 218 737 171Q737 124 725 91.50Q713 59 692.50 39Q672 19 643.50 10Q615 1 582 1Q549 1 520.50 10Q492 19 471.50 39Q451 59 439 91.50Q427 124 427 171M501 171Q501 111 522.50 85Q544 59 582 59Q601 59 616 64.50Q631 70 641.50 82.50Q652 95 657.50 116.50Q663 138 663 171Q663 204 657.50 225.50Q652 247 641.50 259.50Q631 272 616 277.50Q601 283 582 283Q544 283 522.50 259.50Q501 236 501 171M637 713L686 675L173-12L123 27L637 713Z"  horiz-adv-x="773" vert-adv-y="1000"  />

      
      <glyph glyph-name="uni26" unicode="&#x26;" d="M118 187Q118 227 132 263.50Q146 300 170 331Q194 362 224.50 388Q255 414 288 434Q264 470 246.50 506Q229 542 229 584Q229 608 237 631Q245 654 262.50 672Q280 690 307.50 701Q335 712 374 712Q415 712 443 701.50Q471 691 488 674Q505 657 512.50 636Q520 615 520 593Q520 551 487.50 506.50Q455 462 385 421Q401 392 422.50 361.50Q444 331 468 301Q492 271 517 241.50Q542 212 567 187Q578 199 589 217.50Q600 236 610.50 256.50Q621 277 629.50 299Q638 321 645 341L707 312Q701 295 690 271.50Q679 248 665.50 223.50Q652 199 638 176.50Q624 154 612 139Q633 119 650 104.50Q667 90 681.50 79.50Q696 69 709.50 60.50Q723 52 737 44L687-12Q634 14 566 81Q548 63 526.50 46.50Q505 30 478 17Q451 4 418.50-4Q386-12 347-12Q300-12 258.50 1Q217 14 186 39.50Q155 65 136.50 102Q118 139 118 187M519 131Q490 160 462 194Q434 228 408.50 262Q383 296 361.50 327.50Q340 359 325 383Q298 363 275 342Q252 321 234.50 297.50Q217 274 207.50 247Q198 220 198 189Q198 158 211 133.50Q224 109 246.50 92.50Q269 76 298 67Q327 58 359 58Q384 58 407.50 64.50Q431 71 452 81Q473 91 490.50 104Q508 117 519 131M307 584Q307 554 319.50 524.50Q332 495 352 466Q405 500 425.50 528Q446 556 446 577Q446 609 430.50 629Q415 649 377 649Q341 649 324 631Q307 613 307 584Z"  horiz-adv-x="814" vert-adv-y="1000"  />

      
      <glyph glyph-name="uni27" unicode="&#x27;" d="M90 700L168 700L137 507L90 507L90 700Z"  horiz-adv-x="218" vert-adv-y="1000"  />

      
      <glyph glyph-name="uni28" unicode="&#x28;" d="M227-220Q181-172 149-114.50Q117-57 97.50 3.50Q78 64 69 125.50Q60 187 60 243Q60 298 69 359Q78 420 98 481.50Q118 543 150.50 602Q183 661 230 712L278 677Q238 626 211.50 571.50Q185 517 169 461Q153 405 146.50 349.50Q140 294 140 243Q140 195 147.50 138.50Q155 82 171.50 25.50Q188-31 214.50-85Q241-139 278-183L227-220Z"  horiz-adv-x="280" vert-adv-y="1000"  />

      
      <glyph glyph-name="uni29" unicode="&#x29;" d="M53 712Q99 664 131 606.50Q163 549 182.50 488.50Q202 428 211 366.50Q220 305 220 249Q220 194 211 133Q202 72 182 10.50Q162-51 129.50-110Q97-169 50-220L2-185Q42-134 69-79Q96-24 111.50 32Q127 88 133.50 143Q140 198 140 249Q140 297 132 353Q124 409 107.50 466Q91 523 65 577Q39 631 2 675L53 712Z"  horiz-adv-x="280" vert-adv-y="1000"  />

      
      <glyph glyph-name="uni2a" unicode="&#x2a;" d="M130 715L155 673L173 617L194 674L218 714L266 688L240 645L194 597L262 609L310 609L310 553L264 553L200 565L246 517L269 478L222 450L196 492L173 553L154 495L129 453L79 481L106 523L148 565L90 553L40 553L40 609L90 609L152 597L107 641L81 687L130 715Z"  horiz-adv-x="351" vert-adv-y="1000"  />

      
      <glyph glyph-name="uni2b" unicode="&#x2b;" d="M40 374L216 374L216 554L288 554L288 374L464 374L464 302L288 302L288 122L216 122L216 302L40 302L40 374Z"  horiz-adv-x="505" vert-adv-y="1000"  />

      
      <glyph glyph-name="uni2c" unicode="&#x2c;" d="M49 43Q49 67 65 82Q81 97 106 97Q137 97 156.50 75Q176 53 176 11Q176-25 166-52Q156-79 140-98.50Q124-118 105-130.50Q86-143 67-149L42-110Q78-96 95.50-66.50Q113-37 113-7Q104-10 96-10Q76-10 62.50 3.50Q49 17 49 43Z"  horiz-adv-x="195" vert-adv-y="1000"  />

      
      <glyph glyph-name="uni2d" unicode="&#x2d;" d="M59 325L301 325L301 251L59 251L59 325Z"  horiz-adv-x="360" vert-adv-y="1000"  />

      
      <glyph glyph-name="uni2e" unicode="&#x2e;" d="M49 46Q49 73 64.50 88.50Q80 104 106 104Q133 104 149 88.50Q165 73 165 46Q165 20 149 4Q133-12 106-12Q80-12 64.50 4Q49 20 49 46Z"  horiz-adv-x="214" vert-adv-y="1000"  />

      
      <glyph glyph-name="uni2f" unicode="&#x2f;" d="M328 712L391 684L26-140L-37-112L328 712Z"  horiz-adv-x="354" vert-adv-y="1000"  />

      
      <glyph glyph-name="uni30" unicode="&#x30;" d="M43 350Q43 530 101.50 621Q160 712 272 712Q393 712 447.50 622.50Q502 533 502 350Q502 170 443.50 79Q385-12 272-12Q153-12 98 83Q43 178 43 350M126 350Q126 285 134.50 231.50Q143 178 161 139.50Q179 101 206.50 79.50Q234 58 272 58Q348 58 383.50 128.50Q419 199 419 350Q419 414 411.50 468Q404 522 386.50 561Q369 600 341 621Q313 642 272 642Q197 642 161.50 571Q126 500 126 350Z"  horiz-adv-x="545" vert-adv-y="1000"  />

      
      <glyph glyph-name="uni31" unicode="&#x31;" d="M108 74L248 74L248 558L258 617L218 570L108 491L70 542L290 712L326 712L326 74L463 74L463 0L108 0L108 74Z"  horiz-adv-x="545" vert-adv-y="1000"  />

      
      <glyph glyph-name="uni32" unicode="&#x32;" d="M446 541Q446 488 426.50 432.50Q407 377 375.50 321Q344 265 305 211.50Q266 158 227 110L178 67L178 63L242 74L460 74L460 0L62 0L62 29Q84 52 115 86Q146 120 179.50 161.50Q213 203 245.50 249.50Q278 296 304.50 344Q331 392 347 439Q363 486 363 528Q363 577 335 609.50Q307 642 250 642Q212 642 176 626.50Q140 611 114 591L81 648Q116 678 164 695Q212 712 267 712Q310 712 343 699.50Q376 687 399 664Q422 641 434 609.50Q446 578 446 541Z"  horiz-adv-x="545" vert-adv-y="1000"  />

      
      <glyph glyph-name="uni33" unicode="&#x33;" d="M234 58Q268 58 297 68Q326 78 347 97.50Q368 117 380 144Q392 171 392 203Q392 273 350.50 307Q309 341 236 341L162 341L162 370L306 592L352 636L287 626L89 626L89 700L446 700L446 671L287 432L252 403L252 401L286 408Q326 407 360 393.50Q394 380 419 354.50Q444 329 458 293.50Q472 258 472 213Q472 159 453 117Q434 75 401.50 46.50Q369 18 325 3Q281-12 232-12Q187-12 151-5Q115 2 88 13L109 84Q132 73 163.50 65.50Q195 58 234 58Z"  horiz-adv-x="545" vert-adv-y="1000"  />

      
      <glyph glyph-name="uni34" unicode="&#x34;" d="M524 215L406 215L406 0L328 0L328 215L20 215L20 248L352 711L406 711L406 285L524 285L524 215M328 503L338 585L335 585L300 517L159 326L111 277L181 285L328 285L328 503Z"  horiz-adv-x="545" vert-adv-y="1000"  />

      
      <glyph glyph-name="uni35" unicode="&#x35;" d="M213 58Q282 58 327 98Q372 138 372 214Q372 287 327.50 323Q283 359 205 359L121 354L121 700L433 700L433 626L196 626L196 427L239 429Q338 428 395 374Q452 320 452 219Q452 163 433 119.50Q414 76 381.50 47Q349 18 305 3Q261-12 211-12Q166-12 135-7Q104-2 77 8L98 76Q121 67 147.50 62.50Q174 58 213 58Z"  horiz-adv-x="545" vert-adv-y="1000"  />

      
      <glyph glyph-name="uni36" unicode="&#x36;" d="M492 211Q492 165 478 124.50Q464 84 437 53.50Q410 23 370 5.50Q330-12 279-12Q229-12 189 4Q149 20 120 51.50Q91 83 75.50 129Q60 175 60 235Q60 334 85.50 417.50Q111 501 156 563Q201 625 262.50 663.50Q324 702 396 712L413 648Q357 638 311 610Q265 582 230.50 541Q196 500 174 449Q152 398 144 344Q160 371 198 393.50Q236 416 291 416Q385 416 438.50 362Q492 308 492 211M409 203Q409 274 376 310Q343 346 274 346Q225 346 189.50 322Q154 298 140 268Q138 254 138 245Q138 236 138 225Q138 194 146.50 164Q155 134 173 110.50Q191 87 217.50 72.50Q244 58 280 58Q309 58 332.50 69Q356 80 373 99Q390 118 399.50 145Q409 172 409 203Z"  horiz-adv-x="545" vert-adv-y="1000"  />

      
      <glyph glyph-name="uni37" unicode="&#x37;" d="M110 0L361 586L405 635L346 626L61 626L61 700L479 700L479 673L191 0L110 0Z"  horiz-adv-x="545" vert-adv-y="1000"  />

      
      <glyph glyph-name="uni38" unicode="&#x38;" d="M68 167Q68 230 101 276.50Q134 323 204 361Q179 376 157.50 392.50Q136 409 119.50 430Q103 451 93.50 477Q84 503 84 537Q84 576 97.50 608Q111 640 136.50 663Q162 686 197.50 699Q233 712 278 712Q320 712 354 700Q388 688 411.50 667Q435 646 448 617Q461 588 461 553Q461 496 435 452.50Q409 409 349 367Q375 352 398.50 334Q422 316 439.50 294Q457 272 467 244.50Q477 217 477 182Q477 139 463 103.50Q449 68 422 42.50Q395 17 356 2.50Q317-12 267-12Q219-12 182 2Q145 16 119.50 40Q94 64 81 96.50Q68 129 68 167M399 177Q399 207 387 229.50Q375 252 355.50 270.50Q336 289 311 304Q286 319 259 333Q198 299 172 257Q146 215 146 177Q146 153 154 131Q162 109 178 93Q194 77 217.50 67.50Q241 58 272 58Q297 58 320 65.50Q343 73 360.50 87.50Q378 102 388.50 124.50Q399 147 399 177M162 539Q162 511 173 489.50Q184 468 202.50 451Q221 434 245 419.50Q269 405 295 392Q340 427 361.50 461Q383 495 383 536Q383 587 351.50 614.50Q320 642 276 642Q249 642 228 633Q207 624 192 610Q177 596 169.50 577.50Q162 559 162 539Z"  horiz-adv-x="545" vert-adv-y="1000"  />

      
      <glyph glyph-name="uni39" unicode="&#x39;" d="M52 488Q52 536 66 577Q80 618 107 648Q134 678 174.50 695Q215 712 269 712Q371 712 428 646Q485 580 485 460Q485 347 459.50 262.50Q434 178 389 120Q344 62 282.50 29.50Q221-3 149-12L131 52Q189 61 235.50 86Q282 111 315.50 149Q349 187 370 235.50Q391 284 399 341Q372 309 339.50 296.50Q307 284 254 284Q213 284 176.50 297.50Q140 311 112 337Q84 363 68 401Q52 439 52 488M135 496Q135 425 172.50 389.50Q210 354 271 354Q320 354 355 370Q390 386 405 412Q407 425 407 435Q407 445 407 456Q407 492 398.50 525.50Q390 559 373 585.50Q356 612 328.50 627Q301 642 264 642Q203 642 169 603.50Q135 565 135 496Z"  horiz-adv-x="545" vert-adv-y="1000"  />

      
      <glyph glyph-name="uni3a" unicode="&#x3a;" d="M91 449Q91 476 106.50 491.50Q122 507 148 507Q175 507 191 491.50Q207 476 207 449Q207 423 191 407Q175 391 148 391Q122 391 106.50 407Q91 423 91 449M91 46Q91 73 106.50 88.50Q122 104 148 104Q175 104 191 88.50Q207 73 207 46Q207 20 191 4Q175-12 148-12Q122-12 106.50 4Q91 20 91 46Z"  horiz-adv-x="219" vert-adv-y="1000"  />

      
      <glyph glyph-name="uni3b" unicode="&#x3b;" d="M89 43Q89 67 105 82Q121 97 146 97Q177 97 196.50 75Q216 53 216 11Q216-25 206-52Q196-79 180-98.50Q164-118 145-130.50Q126-143 107-149L82-110Q118-96 135.50-66.50Q153-37 153-7Q144-10 136-10Q116-10 102.50 3.50Q89 17 89 43M96 449Q96 476 111.50 491.50Q127 507 153 507Q180 507 196 491.50Q212 476 212 449Q212 423 196 407Q180 391 153 391Q127 391 111.50 407Q96 423 96 449Z"  horiz-adv-x="256" vert-adv-y="1000"  />

      
      <glyph glyph-name="uni3c" unicode="&#x3c;" d="M42 305L42 334L420 565L458 503L221 358L130 320L220 288L463 144L425 84L42 305Z"  horiz-adv-x="505" vert-adv-y="1000"  />

      
      <glyph glyph-name="uni3d" unicode="&#x3d;" d="M40 457L464 457L464 385L40 385L40 457M40 291L464 291L464 219L40 219L40 291Z"  horiz-adv-x="505" vert-adv-y="1000"  />

      
      <glyph glyph-name="uni3e" unicode="&#x3e;" d="M463 344L463 315L85 84L47 145L284 290L375 328L285 360L42 504L80 565L463 344Z"  horiz-adv-x="505" vert-adv-y="1000"  />

      
      <glyph glyph-name="uni3f" unicode="&#x3f;" d="M150 177Q149 182 149 188Q149 194 149 199Q149 241 161.50 273Q174 305 192.50 331.50Q211 358 232.50 381Q254 404 272.50 427.50Q291 451 303.50 477.50Q316 504 316 538Q316 584 289.50 613Q263 642 201 642Q165 642 128 629.50Q91 617 64 600L37 662Q75 685 117 698.50Q159 712 221 712Q265 712 298.50 699.50Q332 687 354.50 665Q377 643 388 613Q399 583 399 549Q399 504 385.50 470.50Q372 437 351.50 409.50Q331 382 307.50 358Q284 334 263.50 307.50Q243 281 229.50 250Q216 219 216 177L150 177M130 46Q130 73 145.50 88.50Q161 104 187 104Q214 104 230 88.50Q246 73 246 46Q246 20 230 4Q214-12 187-12Q161-12 145.50 4Q130 20 130 46Z"  horiz-adv-x="436" vert-adv-y="1000"  />

      
      <glyph glyph-name="uni40" unicode="&#x40;" d="M707 491L741 491L690 204Q685 178 682.50 157.50Q680 137 680 121Q680 96 688.50 84.50Q697 73 718 73Q752 73 785.50 91Q819 109 845 142Q871 175 887.50 221.50Q904 268 904 326Q904 403 878 462Q852 521 805 561.50Q758 602 693 623Q628 644 550 644Q469 644 397.50 614Q326 584 273.50 531Q221 478 190.50 404Q160 330 160 243Q160 154 187.50 84Q215 14 266-34Q317-82 388-107Q459-132 546-132Q575-132 612-125.50Q649-119 679-104L699-168Q654-187 616-193.50Q578-200 534-200Q441-200 359.50-172Q278-144 217.50-89Q157-34 122 47.50Q87 129 87 236Q87 345 124.50 433Q162 521 226 583Q290 645 375 678.50Q460 712 555 712Q645 712 722 685.50Q799 659 855.50 609.50Q912 560 944.50 488.50Q977 417 977 326Q977 262 955 203.50Q933 145 895.50 101Q858 57 808 30.50Q758 4 702 4Q660 4 635 22Q610 40 610 89Q610 98 611 108.50Q612 119 614 131L610 131Q596 108 577 85.50Q558 63 534.50 45Q511 27 484.50 15.50Q458 4 429 4Q405 4 383 14.50Q361 25 345 45Q329 65 319.50 92.50Q310 120 310 155Q310 219 331 281Q352 343 387.50 391Q423 439 470.50 468.50Q518 498 571 498Q608 498 630 487Q652 476 673 460L707 491M650 393Q633 413 616 420.50Q599 428 573 428Q534 428 500 404.50Q466 381 441.50 343.50Q417 306 402.50 259.50Q388 213 388 168Q388 129 404 101.50Q420 74 462 74Q482 74 503.50 87Q525 100 546 122.50Q567 145 586 173Q605 201 620 230L650 393Z"  horiz-adv-x="1064" vert-adv-y="1000"  />

      
      <glyph glyph-name="uni41" unicode="&#x41;" d="M418 194L160 194L90 0L8 0L273 711L311 711L577 0L490 0L418 194M187 266L393 266L315 479L290 585L289 585L264 477L187 266Z"  horiz-adv-x="585" vert-adv-y="1000"  />

      
      <glyph glyph-name="uni42" unicode="&#x42;" d="M507 540Q507 515 499 489Q491 463 475 440.50Q459 418 434 401Q409 384 375 375L375 371Q405 366 432.50 354Q460 342 481 321Q502 300 515 270Q528 240 528 199Q528 145 505.50 105.50Q483 66 446.50 41Q410 16 363 4Q316-8 267-8Q250-8 227-8Q204-8 179-6.50Q154-5 129-2.50Q104 0 85 5L85 694Q122 700 171 704Q220 708 278 708Q317 708 357.50 701.50Q398 695 431 676.50Q464 658 485.50 625Q507 592 507 540M275 64Q307 64 337 71.50Q367 79 390 95.50Q413 112 426.50 136Q440 160 440 193Q440 234 423.50 259Q407 284 380.50 298Q354 312 321 317Q288 322 255 322L168 322L168 71Q175 69 188 68Q201 67 216 66Q231 65 247 64.50Q263 64 275 64M220 392Q237 392 261 393Q285 394 301 396Q325 404 346 415.50Q367 427 383.50 442.50Q400 458 409.50 478.50Q419 499 419 523Q419 556 406.50 577.50Q394 599 373 612Q352 625 325 630.50Q298 636 270 636Q237 636 209.50 634.50Q182 633 168 630L168 392L220 392Z"  horiz-adv-x="584" vert-adv-y="1000"  />

      
      <glyph glyph-name="uni43" unicode="&#x43;" d="M533 29Q503 6 457-3Q411-12 359-12Q296-12 241 9.50Q186 31 145 75Q104 119 80 187.50Q56 256 56 350Q56 448 82.50 516.50Q109 585 152.50 628.50Q196 672 250 692Q304 712 360 712Q420 712 458 705.50Q496 699 523 688L503 615Q455 638 366 638Q325 638 285 623Q245 608 213.50 574Q182 540 163 485Q144 430 144 350Q144 278 162 224Q180 170 211.50 134Q243 98 285.50 80Q328 62 378 62Q423 62 456.50 71Q490 80 513 94L533 29Z"  horiz-adv-x="571" vert-adv-y="1000"  />

      
      <glyph glyph-name="uni44" unicode="&#x44;" d="M85 700Q104 703 127.50 704.50Q151 706 176.50 706.50Q202 707 226.50 707.50Q251 708 272 708Q356 708 417.50 682Q479 656 519 609.50Q559 563 578.50 498Q598 433 598 355Q598 284 579.50 218.50Q561 153 521 102.50Q481 52 417 21.50Q353-9 262-9Q246-9 220.50-8.50Q195-8 168-6.50Q141-5 118-4Q95-3 85-1L85 700M274 634Q261 634 245.50 634Q230 634 215 633Q200 632 187.50 631Q175 630 168 629L168 69Q173 68 187 67.50Q201 67 216 66.50Q231 66 245 65.50Q259 65 264 65Q334 65 381.50 89Q429 113 457.50 153.50Q486 194 498 246.50Q510 299 510 355Q510 404 499 453.50Q488 503 461 543Q434 583 388.50 608.50Q343 634 274 634Z"  horiz-adv-x="654" vert-adv-y="1000"  />

      
      <glyph glyph-name="uni45" unicode="&#x45;" d="M85 700L466 700L466 626L168 626L168 397L441 397L441 323L168 323L168 74L471 74L471 0L85 0L85 700Z"  horiz-adv-x="536" vert-adv-y="1000"  />

      
      <glyph glyph-name="uni46" unicode="&#x46;" d="M85 700L466 700L466 626L168 626L168 387L446 387L446 313L168 313L168 0L85 0L85 700Z"  horiz-adv-x="517" vert-adv-y="1000"  />

      
      <glyph glyph-name="uni47" unicode="&#x47;" d="M321 349L556 349L556 41Q540 29 517.50 19Q495 9 469.50 2Q444-5 416.50-8.50Q389-12 363-12Q296-12 240 9.50Q184 31 143 75.50Q102 120 79 188.50Q56 257 56 350Q56 447 84 516Q112 585 157 628.50Q202 672 258 692Q314 712 370 712Q430 712 469 705.50Q508 699 535 688L514 615Q466 638 377 638Q335 638 293.50 623.50Q252 609 219 575Q186 541 165 486Q144 431 144 350Q144 276 161 222Q178 168 208.50 132.50Q239 97 282 79.50Q325 62 376 62Q440 62 485 87L485 282L321 302L321 349Z"  horiz-adv-x="612" vert-adv-y="1000"  />

      
      <glyph glyph-name="uni48" unicode="&#x48;" d="M504 321L168 321L168 0L85 0L85 700L168 700L168 395L504 395L504 700L587 700L587 0L504 0L504 321Z"  horiz-adv-x="672" vert-adv-y="1000"  />

      
      <glyph glyph-name="uni49" unicode="&#x49;" d="M104 700L187 700L187 0L104 0L104 700Z"  horiz-adv-x="291" vert-adv-y="1000"  />

      
      <glyph glyph-name="uni4a" unicode="&#x4a;" d="M112 700L195 700L195 154Q195 74 159.50 32Q124-10 52-10Q44-10 32-9Q20-8 8-6Q-4-4-15.50-1Q-27 2-34 6L-18 77Q10 64 43 64Q85 64 98.50 93.50Q112 123 112 174L112 700Z"  horiz-adv-x="291" vert-adv-y="1000"  />

      
      <glyph glyph-name="uni4b" unicode="&#x4b;" d="M215 324L168 324L168 0L85 0L85 700L168 700L168 374L213 388L448 700L544 700L310 399L268 366L319 326L575 0L470 0L215 324Z"  horiz-adv-x="610" vert-adv-y="1000"  />

      
      <glyph glyph-name="uni4c" unicode="&#x4c;" d="M499 0L85 0L85 700L168 700L168 74L499 74L499 0Z"  horiz-adv-x="517" vert-adv-y="1000"  />

      
      <glyph glyph-name="uni4d" unicode="&#x4d;" d="M623 470L633 575L628 575L590 479L408 163L383 163L190 480L154 575L149 575L163 471L163 0L85 0L85 700L147 700L366 342L399 264L401 264L432 344L641 700L706 700L706 0L623 0L623 470Z"  horiz-adv-x="791" vert-adv-y="1000"  />

      
      <glyph glyph-name="uni4e" unicode="&#x4e;" d="M211 458L157 559L153 559L163 458L163 0L85 0L85 711L129 711L464 244L516 148L521 148L510 244L510 700L588 700L588-11L544-11L211 458Z"  horiz-adv-x="673" vert-adv-y="1000"  />

      
      <glyph glyph-name="uni4f" unicode="&#x4f;" d="M56 350Q56 525 130 618.50Q204 712 341 712Q415 712 469 686Q523 660 558.50 612.50Q594 565 611 498.50Q628 432 628 350Q628 175 553.50 81.50Q479-12 341-12Q268-12 214.50 14Q161 40 125.50 87.50Q90 135 73 201.50Q56 268 56 350M144 350Q144 292 155.50 240Q167 188 191 148.50Q215 109 252.50 85.50Q290 62 341 62Q434 62 487 132.50Q540 203 540 350Q540 407 528.50 459.50Q517 512 492.50 551.50Q468 591 430.50 614.50Q393 638 341 638Q249 638 196.50 567.50Q144 497 144 350Z"  horiz-adv-x="684" vert-adv-y="1000"  />

      
      <glyph glyph-name="uni50" unicode="&#x50;" d="M85 693Q123 702 167 705Q211 708 254 708Q300 708 347.50 699Q395 690 434 666Q473 642 497.50 600Q522 558 522 493Q522 429 499 385Q476 341 438 313.50Q400 286 351 274Q302 262 250 262Q245 262 233.50 262Q222 262 209.50 262.50Q197 263 185 264Q173 265 168 266L168 0L85 0L85 693M256 636Q230 636 206 635Q182 634 168 630L168 340Q173 338 184 337.50Q195 337 207 336.50Q219 336 230 336Q241 336 246 336Q280 336 313.50 342.50Q347 349 374 366Q401 383 417.50 414Q434 445 434 493Q434 534 418.50 561.50Q403 589 377.50 605.50Q352 622 320 629Q288 636 256 636Z"  horiz-adv-x="559" vert-adv-y="1000"  />

      
      <glyph glyph-name="uni51" unicode="&#x51;" d="M704-171Q680-178 657-180.50Q634-183 611-183Q561-183 513.50-172.50Q466-162 421.50-149.50Q377-137 336-126.50Q295-116 258-116Q234-116 212-122L212-49Q226-46 239-44Q252-42 266-42Q308-42 349.50-52.50Q391-63 434-75.50Q477-88 522-98.50Q567-109 617-109Q661-109 704-99L704-171M56 350Q56 525 130 618.50Q204 712 341 712Q415 712 469 686Q523 660 558.50 612.50Q594 565 611 498.50Q628 432 628 350Q628 175 553.50 81.50Q479-12 341-12Q268-12 214.50 14Q161 40 125.50 87.50Q90 135 73 201.50Q56 268 56 350M144 350Q144 292 155.50 240Q167 188 191 148.50Q215 109 252.50 85.50Q290 62 341 62Q434 62 487 132.50Q540 203 540 350Q540 407 528.50 459.50Q517 512 492.50 551.50Q468 591 430.50 614.50Q393 638 341 638Q249 638 196.50 567.50Q144 497 144 350Z"  horiz-adv-x="684" vert-adv-y="1000"  />

      
      <glyph glyph-name="uni52" unicode="&#x52;" d="M85 693Q123 700 172.50 704Q222 708 263 708Q309 708 350.50 698Q392 688 423.50 665Q455 642 474 605Q493 568 493 515Q493 433 448 382Q403 331 334 314L382 277L556 0L459 0L266 302L168 317L168 0L85 0L85 693M265 636Q252 636 238 636Q224 636 211 635Q198 634 186.50 633Q175 632 168 630L168 372L246 372Q315 372 360 406Q405 440 405 512Q405 566 368 601Q331 636 265 636Z"  horiz-adv-x="595" vert-adv-y="1000"  />

      
      <glyph glyph-name="uni53" unicode="&#x53;" d="M401 178Q401 220 376 246.50Q351 273 313.50 293.50Q276 314 232 332Q188 350 150.50 375.50Q113 401 88 438.50Q63 476 63 534Q63 616 120 664Q177 712 282 712Q343 712 393 703Q443 694 471 680L446 607Q423 618 378.50 628Q334 638 278 638Q212 638 179 608.50Q146 579 146 539Q146 500 171 474Q196 448 233.50 427.50Q271 407 315 387Q359 367 396.50 340.50Q434 314 459 277Q484 240 484 185Q484 140 468 104Q452 68 421 42Q390 16 346 2Q302-12 246-12Q171-12 122-0.50Q73 11 46 25L74 100Q97 87 142 74.50Q187 62 243 62Q276 62 305 68.50Q334 75 355 89.50Q376 104 388.50 126Q401 148 401 178Z"  horiz-adv-x="531" vert-adv-y="1000"  />

      
      <glyph glyph-name="uni54" unicode="&#x54;" d="M537 626L319 626L319 0L236 0L236 626L18 626L18 700L537 700L537 626Z"  horiz-adv-x="555" vert-adv-y="1000"  />

      
      <glyph glyph-name="uni55" unicode="&#x55;" d="M487 700L567 700L567 233Q567 170 550.50 124Q534 78 503.50 48.50Q473 19 430 5Q387-9 335-9Q211-9 148 47Q85 103 85 217L85 700L168 700L168 256Q168 203 178.50 166.50Q189 130 210 107.50Q231 85 262.50 75Q294 65 336 65Q417 65 452 109.50Q487 154 487 256L487 700Z"  horiz-adv-x="652" vert-adv-y="1000"  />

      
      <glyph glyph-name="uni56" unicode="&#x56;" d="M267 219L291 113L292 113L318 221L487 700L570 700L305-11L268-11L-2 700L89 700L267 219Z"  horiz-adv-x="568" vert-adv-y="1000"  />

      
      <glyph glyph-name="uni57" unicode="&#x57;" d="M222 231L238 115L239 115L256 233L400 700L440 700L585 231L602 115L603 115L621 233L739 700L820 700L625-11L579-11L437 458L419 564L414 564L396 457L254-11L208-11L8 700L96 700L222 231Z"  horiz-adv-x="828" vert-adv-y="1000"  />

      
      <glyph glyph-name="uni58" unicode="&#x58;" d="M259 356L46 700L146 700L288 463L313 406L337 463L487 700L579 700L359 363L589 0L492 0L334 251L307 311L281 251L119 0L26 0L259 356Z"  horiz-adv-x="618" vert-adv-y="1000"  />

      
      <glyph glyph-name="uni59" unicode="&#x59;" d="M239 278L8 700L105 700L269 394L286 333L287 333L305 396L462 700L551 700L322 279L322 0L239 0L239 278Z"  horiz-adv-x="558" vert-adv-y="1000"  />

      
      <glyph glyph-name="uni5a" unicode="&#x5a;" d="M38 75L391 586L433 626L38 626L38 700L508 700L508 625L153 111L111 74L508 74L508 0L38 0L38 75Z"  horiz-adv-x="545" vert-adv-y="1000"  />

      
      <glyph glyph-name="uni5b" unicode="&#x5b;" d="M85 700L266 700L266 630L163 630L163-160L266-160L266-230L85-230L85 700Z"  horiz-adv-x="304" vert-adv-y="1000"  />

      
      <glyph glyph-name="uni5c" unicode="&#x5c;" d="M399-111L333-140L-37 684L30 712L399-111Z"  horiz-adv-x="380" vert-adv-y="1000"  />

      
      <glyph glyph-name="uni5d" unicode="&#x5d;" d="M220-230L38-230L38-160L142-160L142 630L38 630L38 700L220 700L220-230Z"  horiz-adv-x="304" vert-adv-y="1000"  />

      
      <glyph glyph-name="uni5e" unicode="&#x5e;" d="M234 711L263 711L432 435L350 435L270 570L247 639L216 569L124 435L48 435L234 711Z"  horiz-adv-x="500" vert-adv-y="1000"  />

      
      <glyph glyph-name="uni5f" unicode="&#x5f;" d="M0-135L408-135L408-205L0-205L0-135Z"  horiz-adv-x="408" vert-adv-y="1000"  />

      
      <glyph glyph-name="uni60" unicode="&#x60;" d="M220 571L175 571L60 699L60 720L155 720L220 571Z"  horiz-adv-x="280" vert-adv-y="1000"  />

      
      <glyph glyph-name="uni61" unicode="&#x61;" d="M69 463Q107 486 157.50 497Q208 508 263 508Q315 508 346.50 494Q378 480 394.50 457.50Q411 435 416.50 408Q422 381 422 354Q422 294 419 237Q416 180 416 129Q416 92 419 59Q422 26 430-2L371-2L350 68L345 68Q336 54 322.50 40.50Q309 27 290 16.50Q271 6 246-1Q221-8 189-8Q157-8 129.50 2Q102 12 82 30.50Q62 49 50.50 75Q39 101 39 134Q39 178 57 207.50Q75 237 107.50 254.50Q140 272 185.50 279.50Q231 287 286 287Q300 287 313.50 287Q327 287 341 285Q344 315 344 339Q344 394 322 416Q300 438 242 438Q225 438 205.50 435.50Q186 433 165.50 428.50Q145 424 126.50 417.50Q108 411 94 403L69 463M211 62Q239 62 261 69.50Q283 77 299 88.50Q315 100 325.50 114Q336 128 341 141L341 224Q327 225 312.50 225.50Q298 226 284 226Q253 226 223.50 222.50Q194 219 171.50 209.50Q149 200 135.50 183.50Q122 167 122 142Q122 107 147 84.50Q172 62 211 62Z"  horiz-adv-x="496" vert-adv-y="1000"  />

      
      <glyph glyph-name="uni62" unicode="&#x62;" d="M77 700L157 700L157 451L161 451Q184 480 219.50 496Q255 512 297 512Q394 512 442.50 450Q491 388 491 258Q491 127 427 59Q363-9 247-9Q191-9 145.50 3Q100 15 77 29L77 700M283 442Q233 442 202 414Q171 386 157 335L157 83Q176 72 203 66.50Q230 61 259 61Q327 61 367.50 109Q408 157 408 259Q408 298 401 332Q394 366 379 390Q364 414 340.50 428Q317 442 283 442Z"  horiz-adv-x="540" vert-adv-y="1000"  />

      
      <glyph glyph-name="uni63" unicode="&#x63;" d="M418 33Q388 11 347-0.50Q306-12 261-12Q203-12 163 6.50Q123 25 97.50 59.50Q72 94 60.50 142.50Q49 191 49 250Q49 377 105 444.50Q161 512 266 512Q314 512 347.50 504.50Q381 497 408 483L385 414Q362 427 334 434.50Q306 442 274 442Q132 442 132 250Q132 212 139.50 177.50Q147 143 164.50 116.50Q182 90 210.50 74Q239 58 281 58Q317 58 345.50 69Q374 80 392 94L418 33Z"  horiz-adv-x="451" vert-adv-y="1000"  />

      
      <glyph glyph-name="uni64" unicode="&#x64;" d="M461 172Q461 121 462 79.50Q463 38 471-2L417-2L397 69L393 69Q373 34 335 11Q297-12 246-12Q146-12 97.50 51Q49 114 49 248Q49 376 109.50 442.50Q170 509 276 509Q313 509 334.50 505Q356 501 381 492L381 700L461 700L461 172M259 58Q310 58 340 84.50Q370 111 381 165L381 413Q363 427 340 433Q317 439 279 439Q210 439 171 393.50Q132 348 132 248Q132 207 138.50 172Q145 137 160 112Q175 87 199.50 72.50Q224 58 259 58Z"  horiz-adv-x="538" vert-adv-y="1000"  />

      
      <glyph glyph-name="uni65" unicode="&#x65;" d="M442 40Q412 16 366.50 2Q321-12 270-12Q213-12 171 6.50Q129 25 102 59.50Q75 94 62 142Q49 190 49 250Q49 378 106 445Q163 512 269 512Q303 512 337 504.50Q371 497 398 476Q425 455 442 416.50Q459 378 459 315Q459 282 453 242L132 242Q132 198 141 164Q150 130 169 106.50Q188 83 218.50 70.50Q249 58 293 58Q327 58 361 70Q395 82 412 98L442 40M270 442Q211 442 175.50 411Q140 380 133 305L381 305Q381 381 352 411.50Q323 442 270 442Z"  horiz-adv-x="508" vert-adv-y="1000"  />

      
      <glyph glyph-name="uni66" unicode="&#x66;" d="M22 500L100 500L100 528Q100 574 107.50 608Q115 642 132 663.50Q149 685 176 695.50Q203 706 243 706Q275 706 299.50 702Q324 698 351 687L333 620Q310 630 289.50 633Q269 636 251 636Q225 636 210.50 628Q196 620 189.50 604.50Q183 589 181.50 566.50Q180 544 180 514L180 500L313 500L313 430L180 430L180 0L100 0L100 430L22 430L22 500Z"  horiz-adv-x="319" vert-adv-y="1000"  />

      
      <glyph glyph-name="uni67" unicode="&#x67;" d="M460-23Q460-120 408.50-166Q357-212 256-212Q196-212 159.50-204.50Q123-197 97-185L118-117Q141-126 169-134Q197-142 242-142Q284-142 310.50-134.50Q337-127 353-109.50Q369-92 375-64.50Q381-37 381 1L381 49L377 49Q357 20 326 4.50Q295-11 245-11Q144-11 96.50 52Q49 115 49 248Q49 376 110 442.50Q171 509 290 509Q347 509 387.50 500Q428 491 460 479L460-23M259 59Q310 59 339 84.50Q368 110 380 164L380 420Q340 439 278 439Q210 439 171 393Q132 347 132 249Q132 207 139 172Q146 137 161 112Q176 87 200 73Q224 59 259 59Z"  horiz-adv-x="537" vert-adv-y="1000"  />

      
      <glyph glyph-name="uni68" unicode="&#x68;" d="M398 0L398 285Q398 324 393.50 353.50Q389 383 377 402.50Q365 422 344.50 432Q324 442 291 442Q244 442 206 411.50Q168 381 157 333L157 0L77 0L77 700L157 700L157 444L161 444Q187 475 223.50 493.50Q260 512 314 512Q356 512 387 502.50Q418 493 438.50 469Q459 445 468.50 404.50Q478 364 478 302L478 0L398 0Z"  horiz-adv-x="547" vert-adv-y="1000"  />

      
      <glyph glyph-name="uni69" unicode="&#x69;" d="M94 500L174 500L174 0L94 0L94 500M77 652Q77 675 92.50 691.50Q108 708 132 708Q156 708 173 691.50Q190 675 190 652Q190 629 173 614Q156 599 132 599Q108 599 92.50 614Q77 629 77 652Z"  horiz-adv-x="268" vert-adv-y="1000"  />

      
      <glyph glyph-name="uni6a" unicode="&#x6a;" d="M93 500L173 500L173-27Q173-120 141-166Q109-212 39-212Q31-212 24-211.50Q17-211 9-210L9-142Q37-142 53.50-133.50Q70-125 79-107Q88-89 90.50-61.50Q93-34 93 3L93 500M76 652Q76 675 91.50 691.50Q107 708 131 708Q155 708 172 691.50Q189 675 189 652Q189 629 172 614Q155 599 131 599Q107 599 91.50 614Q76 629 76 652Z"  horiz-adv-x="267" vert-adv-y="1000"  />

      
      <glyph glyph-name="uni6b" unicode="&#x6b;" d="M203 225L157 225L157 0L77 0L77 700L157 700L157 274L198 288L353 500L446 500L293 299L252 266L302 226L469 0L370 0L203 225Z"  horiz-adv-x="479" vert-adv-y="1000"  />

      
      <glyph glyph-name="uni6c" unicode="&#x6c;" d="M166 123Q166 88 178 73Q190 58 212 58Q225 58 240 60Q255 62 274 69L283 6Q267-2 238.50-7Q210-12 189-12Q144-12 115 13.50Q86 39 86 100L86 700L166 700L166 123Z"  horiz-adv-x="292" vert-adv-y="1000"  />

      
      <glyph glyph-name="uni6d" unicode="&#x6d;" d="M370 0L370 283Q370 323 366.50 352.50Q363 382 353 402Q343 422 324.50 432Q306 442 276 442Q230 442 199.50 414Q169 386 157 344L157 0L77 0L77 500L133 500L148 439L152 439Q179 471 214.50 491.50Q250 512 307 512Q355 512 385.50 493.50Q416 475 433 429Q456 468 496.50 490Q537 512 588 512Q630 512 659 502.50Q688 493 707 469Q726 445 734.50 404Q743 363 743 300L743 0L663 0L663 301Q663 337 659.50 363.50Q656 390 645.50 407.50Q635 425 616.50 433.50Q598 442 568 442Q518 442 490 414Q462 386 450 334L450 0L370 0Z"  horiz-adv-x="812" vert-adv-y="1000"  />

      
      <glyph glyph-name="uni6e" unicode="&#x6e;" d="M398 0L398 285Q398 363 375.50 402.50Q353 442 293 442Q240 442 205.50 413.50Q171 385 157 342L157 0L77 0L77 500L133 500L148 439L152 439Q176 471 216.50 491.50Q257 512 313 512Q354 512 385 502.50Q416 493 436.50 469Q457 445 467.50 404.50Q478 364 478 302L478 0L398 0Z"  horiz-adv-x="547" vert-adv-y="1000"  />

      
      <glyph glyph-name="uni6f" unicode="&#x6f;" d="M49 250Q49 377 105.50 444.50Q162 512 268 512Q324 512 365.50 493.50Q407 475 434 440.50Q461 406 474 357.50Q487 309 487 250Q487 123 430.50 55.50Q374-12 268-12Q212-12 170.50 6.50Q129 25 102 59.50Q75 94 62 142.50Q49 191 49 250M132 250Q132 212 139.50 177Q147 142 163 116Q179 90 205 74Q231 58 268 58Q404 57 404 250Q404 289 396.50 324Q389 359 373 385Q357 411 331 426.50Q305 442 268 442Q132 443 132 250Z"  horiz-adv-x="536" vert-adv-y="1000"  />

      
      <glyph glyph-name="uni70" unicode="&#x70;" d="M77 500L132 500L147 440L151 440Q174 475 210.50 493.50Q247 512 294 512Q394 512 443 453Q492 394 492 260Q492 197 475.50 146.50Q459 96 429 61Q399 26 356.50 7Q314-12 262-12Q225-12 203.50-7.50Q182-3 157 8L157-200L77-200L77 500M279 442Q228 442 198.50 415.50Q169 389 157 335L157 87Q175 73 198 65.50Q221 58 259 58Q328 58 368.50 109.50Q409 161 409 261Q409 302 402 335.50Q395 369 379.50 392.50Q364 416 339.50 429Q315 442 279 442Z"  horiz-adv-x="541" vert-adv-y="1000"  />

      
      <glyph glyph-name="uni71" unicode="&#x71;" d="M460-200L380-200L380 50L376 50Q356 20 325.50 4Q295-12 245-12Q145-12 97 51.50Q49 115 49 248Q49 377 111 443Q173 509 292 509Q345 509 391.50 499Q438 489 460 478L460-200M259 58Q310 58 339 84Q368 110 380 164L380 420Q343 439 278 439Q209 439 170.50 392.50Q132 346 132 249Q132 207 139 171.50Q146 136 161 111Q176 86 200 72Q224 58 259 58Z"  horiz-adv-x="537" vert-adv-y="1000"  />

      
      <glyph glyph-name="uni72" unicode="&#x72;" d="M313 423Q283 433 256 433Q213 433 188 409.50Q163 386 157 350L157 0L77 0L77 500L133 500L148 439L152 439Q171 473 197.50 491.50Q224 510 265 510Q294 510 330 500L313 423Z"  horiz-adv-x="340" vert-adv-y="1000"  />

      
      <glyph glyph-name="uni73" unicode="&#x73;" d="M297 136Q297 166 279 183Q261 200 234.50 211.50Q208 223 176.50 233.50Q145 244 118.50 260.50Q92 277 74 303Q56 329 56 373Q56 445 97 478.50Q138 512 211 512Q265 512 301.50 502.50Q338 493 365 480L346 414Q323 425 290.50 433.50Q258 442 221 442Q177 442 156.50 427Q136 412 136 375Q136 349 154 334.50Q172 320 198.50 308.50Q225 297 256.50 286Q288 275 314.50 257Q341 239 359 211.50Q377 184 377 139Q377 107 366.50 79Q356 51 334 31Q312 11 279.50-0.50Q247-12 203-12Q146-12 106-1Q66 10 39 25L63 93Q86 80 123 69Q160 58 198 58Q241 58 269 75Q297 92 297 136Z"  horiz-adv-x="421" vert-adv-y="1000"  />

      
      <glyph glyph-name="uni74" unicode="&#x74;" d="M11 500L89 500L89 599L169 622L169 500L305 500L305 430L169 430L169 153Q169 101 182 79.50Q195 58 226 58Q252 58 270 63.50Q288 69 310 78L328 17Q301 4 269-4Q237-12 200-12Q139-12 114 22.50Q89 57 89 138L89 430L11 430L11 500Z"  horiz-adv-x="339" vert-adv-y="1000"  />

      
      <glyph glyph-name="uni75" unicode="&#x75;" d="M149 500L149 215Q149 176 153.50 146.50Q158 117 169 97.50Q180 78 199 68Q218 58 247 58Q274 58 295 66.50Q316 75 332.50 90Q349 105 361.50 124.50Q374 144 382 166L382 500L462 500L462 142Q462 106 464.50 67.50Q467 29 473 0L418 0L398 79L393 79Q370 40 331 14Q292-12 232-12Q192-12 161.50-2.50Q131 7 110.50 31Q90 55 79.50 95.50Q69 136 69 198L69 500L149 500Z"  horiz-adv-x="539" vert-adv-y="1000"  />

      
      <glyph glyph-name="uni76" unicode="&#x76;" d="M221 207L249 112L250 112L275 209L387 500L473 500L260-11L226-11L9 500L101 500L221 207Z"  horiz-adv-x="482" vert-adv-y="1000"  />

      
      <glyph glyph-name="uni77" unicode="&#x77;" d="M401 500L516 208L541 112L543 112L562 210L651 500L727 500L559-11L520-11L389 319L370 401L367 401L347 318L221-11L182-11L8 500L95 500L194 209L211 112L212 112L236 211L343 500L401 500Z"  horiz-adv-x="735" vert-adv-y="1000"  />

      
      <glyph glyph-name="uni78" unicode="&#x78;" d="M208 256L40 500L138 500L233 362L261 305L290 362L387 500L477 500L308 260L487 0L392 0L286 152L256 212L225 152L117 0L28 0L208 256Z"  horiz-adv-x="515" vert-adv-y="1000"  />

      
      <glyph glyph-name="uni79" unicode="&#x79;" d="M224 176L252 80L257 80L279 177L376 500L457 500L309 51Q292 2 275.50-44Q259-90 239-126Q219-162 194-183.50Q169-205 136-205Q100-205 77-195L91-126Q104-131 116-131Q144-131 170-101.50Q196-72 213 0L12 500L104 500L224 176Z"  horiz-adv-x="466" vert-adv-y="1000"  />

      
      <glyph glyph-name="uni7a" unicode="&#x7a;" d="M42 70L273 388L315 430L42 430L42 500L398 500L398 430L165 109L124 70L398 70L398 0L42 0L42 70Z"  horiz-adv-x="447" vert-adv-y="1000"  />

      
      <glyph glyph-name="uni7b" unicode="&#x7b;" d="M137 112Q137 163 116 181.50Q95 200 57 200L57 270Q95 270 116 290Q137 310 137 354L137 596Q137 643 160.50 672Q184 701 232 701L317 701L317 631L267 631Q240 631 227.50 617.50Q215 604 215 572L215 335Q215 291 194 268Q173 245 145 240L145 234Q172 230 193.50 203.50Q215 177 215 135L215-101Q215-132 227-146Q239-160 268-160L317-160L317-230L232-230Q187-230 162-203.50Q137-177 137-126L137 112Z"  horiz-adv-x="346" vert-adv-y="1000"  />

      
      <glyph glyph-name="uni7c" unicode="&#x7c;" d="M85 700L153 700L153-130L85-130L85 700Z"  horiz-adv-x="238" vert-adv-y="1000"  />

      
      <glyph glyph-name="uni7d" unicode="&#x7d;" d="M235 359Q235 308 256 289.50Q277 271 315 271L315 201Q277 201 256 181Q235 161 235 117L235-125Q235-172 211.50-201Q188-230 140-230L55-230L55-160L105-160Q132-160 144.50-146.50Q157-133 157-101L157 136Q157 180 177.50 203Q198 226 226 231L226 237Q199 241 178 267.50Q157 294 157 336L157 572Q157 603 145 617Q133 631 105 631L55 631L55 701L141 701Q185 701 210 674.50Q235 648 235 597L235 359Z"  horiz-adv-x="346" vert-adv-y="1000"  />

      
      <glyph glyph-name="uni7e" unicode="&#x7e;" d="M31 361Q74 394 109 407Q144 420 173 420Q201 420 225 411.50Q249 403 271 392.50Q293 382 314 373.50Q335 365 358 365Q377 365 397 373Q417 381 440 401L474 340Q436 314 405.50 303.50Q375 293 350 293Q323 293 300.50 301.50Q278 310 257.50 320.50Q237 331 216.50 339.50Q196 348 172 348Q149 348 123 337.50Q97 327 65 301L31 361Z"  horiz-adv-x="505" vert-adv-y="1000"  />

      
      <glyph glyph-name="unia1" unicode="&#xa1;" d="M176-200L93-200L93 147L110 323L159 323L176 147L176-200M74 453Q74 480 89.50 495.50Q105 511 131 511Q158 511 174 495.50Q190 480 190 453Q190 427 174 411Q158 395 131 395Q105 395 89.50 411Q74 427 74 453Z"  horiz-adv-x="304" vert-adv-y="1000"  />

      
      <glyph glyph-name="unia2" unicode="&#xa2;" d="M461 33Q437 16 406.50 5.50Q376-5 341-9L341-100L270-100L270-10Q220-5 185.50 15.50Q151 36 129 69.50Q107 103 97 149Q87 195 87 250Q87 365 134.50 431.50Q182 498 270 509L270 600L341 600L341 511Q376 509 403 501.50Q430 494 452 483L429 415Q409 425 384.50 432Q360 439 334 441L334 58Q366 60 392 70.50Q418 81 435 94L461 33M170 250Q170 217 175.50 186.50Q181 156 194 130.50Q207 105 228 87Q249 69 280 62L280 439Q170 418 170 250Z"  horiz-adv-x="545" vert-adv-y="1000"  />

      
      <glyph glyph-name="unia3" unicode="&#xa3;" d="M42 383L108 383Q96 409 88 440Q80 471 80 513Q80 611 136 661.50Q192 712 289 712Q350 712 395 703Q440 694 469 680L443 609Q420 620 381.50 629Q343 638 288 638Q228 638 195.50 605.50Q163 573 163 518Q163 476 173 444Q183 412 197 383L358 383L358 313L227 313Q235 290 240 265Q245 240 245 210Q245 180 236 148.50Q227 117 209 97L170 64L170 60L232 74L488 74L488 0L42 0L42 72Q74 72 96.50 83.50Q119 95 133.50 113.50Q148 132 155 155.50Q162 179 162 203Q162 236 155.50 262.50Q149 289 139 313L42 313L42 383Z"  horiz-adv-x="545" vert-adv-y="1000"  />

      
      <glyph glyph-name="unia4" unicode="&#xa4;" d="M70 596L148 519L169 484Q211 517 272 517Q331 517 375 484L397 519L475 596L524 547L447 469L412 447Q444 404 444 345Q444 285 412 242L447 221L524 143L475 95L397 172L376 205Q333 174 272 174Q210 174 169 205L148 172L70 95L21 143L98 221L132 243Q101 285 101 345Q101 374 109.50 400Q118 426 132 448L98 469L21 547L70 596M170 345Q170 300 198.50 270Q227 240 272 240Q317 240 346 270Q375 300 375 345Q375 390 346 420.50Q317 451 272 451Q227 451 198.50 420.50Q170 390 170 345Z"  horiz-adv-x="545" vert-adv-y="1000"  />

      
      <glyph glyph-name="unia5" unicode="&#xa5;" d="M111 328L205 328L2 700L99 700L263 394L280 333L281 333L299 396L456 700L545 700L342 328L436 328L436 268L315 268L315 205L436 205L436 145L315 145L315 0L232 0L232 145L111 145L111 205L232 205L232 268L111 268L111 328Z"  horiz-adv-x="545" vert-adv-y="1000"  />

      
      <glyph glyph-name="unia6" unicode="&#xa6;" d="M85 206L153 206L153-130L85-130L85 206M153 364L85 364L85 700L153 700L153 364Z"  horiz-adv-x="238" vert-adv-y="1000"  />

      
      <glyph glyph-name="unia7" unicode="&#xa7;" d="M57 353Q57 384 72.50 413.50Q88 443 114 466L155 480Q129 496 111.50 520.50Q94 545 94 586Q94 642 135.50 677Q177 712 251 712Q305 712 342.50 703Q380 694 407 681L388 614Q364 625 331 633.50Q298 642 262 642Q217 642 195.50 626Q174 610 174 583Q174 557 193.50 542.50Q213 528 243 517Q273 506 307 495Q341 484 371 466.50Q401 449 420.50 420.50Q440 392 440 347Q440 316 425 287Q410 258 384 235L339 221Q366 205 384.50 180Q403 155 403 114Q403 83 391 59.50Q379 36 357.50 20Q336 4 307-4Q278-12 245-12Q189-12 153-2.50Q117 7 89 21L109 86Q132 75 164.50 66.50Q197 58 235 58Q277 58 300 71.50Q323 85 323 117Q323 143 303.50 158Q284 173 254 184Q224 195 190 206Q156 217 126 234.50Q96 252 76.50 280Q57 308 57 353M360 345Q360 370 347 386Q334 402 312.50 413.50Q291 425 264 433.50Q237 442 210 452Q181 439 159 415Q137 391 137 355Q137 330 150 314Q163 298 183.50 286.50Q204 275 230.50 267Q257 259 284 249Q298 255 311.50 265Q325 275 336 287.50Q347 300 353.50 314.50Q360 329 360 345Z"  horiz-adv-x="497" vert-adv-y="1000"  />

      
      <glyph glyph-name="unia8" unicode="&#xa8;" d="M60 653Q60 676 73.50 690Q87 704 109 704Q131 704 144.50 690Q158 676 158 653Q158 632 144.50 618Q131 604 109 604Q87 604 73.50 618Q60 632 60 653M252 653Q252 676 265.50 690Q279 704 301 704Q324 704 337.50 690Q351 676 351 653Q351 632 337.50 618Q324 604 301 604Q279 604 265.50 618Q252 632 252 653Z"  horiz-adv-x="411" vert-adv-y="1000"  />

      
      <glyph glyph-name="unia9" unicode="&#xa9;" d="M51 290Q51 373 79 438.50Q107 504 155 549Q203 594 267 618Q331 642 403 642Q475 642 539 618Q603 594 651 549Q699 504 727 438.50Q755 373 755 290Q755 207 727 141.50Q699 76 651 31Q603-14 539-38Q475-62 403-62Q323-62 258-38Q193-14 147 31Q101 76 76 141.50Q51 207 51 290M121 290Q121 221 143 167.50Q165 114 203 78Q241 42 292.50 23Q344 4 403 4Q462 4 513.50 23Q565 42 603 78Q641 114 663 167.50Q685 221 685 290Q685 359 663 412.50Q641 466 603 502Q565 538 513.50 557Q462 576 403 576Q344 576 292.50 557Q241 538 203 502Q165 466 143 412.50Q121 359 121 290M519 127Q496 114 467.50 107Q439 100 401 100Q320 100 277.50 151Q235 202 235 290Q235 381 280.50 430.50Q326 480 401 480Q419 480 433.50 478Q448 476 460.50 472.50Q473 469 485 464Q497 459 512 453L486 392Q464 403 444 407Q424 411 410 411Q368 411 341.50 385Q315 359 315 290Q315 232 341 200.50Q367 169 418 168Q465 168 498 186L519 127Z"  horiz-adv-x="806" vert-adv-y="1000"  />

      
      <glyph glyph-name="uniaa" unicode="&#xaa;" d="M68 677Q93 690 134 699Q175 708 225 708Q287 708 310 682Q333 656 333 607Q333 569 331.50 534Q330 499 330 467Q330 443 331.50 421Q333 399 338 380L283 380L270 426L266 426Q253 409 229 392.50Q205 376 162 376Q110 376 79 401.50Q48 427 48 471Q48 502 63 523Q78 544 103.50 557Q129 570 163.50 576Q198 582 238 582Q245 582 251.50 581.50Q258 581 265 581Q266 587 266 592.50Q266 598 266 603Q266 630 254 641Q242 652 208 652Q168 652 135 644.50Q102 637 83 627L68 677M173 432Q194 432 209.50 437Q225 442 236 450.50Q247 459 254 468.50Q261 478 265 487L265 529Q254 530 244 530Q234 530 223 530Q202 530 183 528Q164 526 149.50 520Q135 514 126.50 503.50Q118 493 118 476Q118 456 132.50 444Q147 432 173 432Z"  horiz-adv-x="386" vert-adv-y="1000"  />

      
      <glyph glyph-name="uniab" unicode="&#xab;" d="M222 259L380 487L433 445L336 301L288 260L336 224L439 83L387 40L222 259M39 259L199 489L253 446L155 301L107 260L155 224L259 82L205 38L39 259Z"  horiz-adv-x="478" vert-adv-y="1000"  />

      
      <glyph glyph-name="uniac" unicode="&#xac;" d="M41 392L465 392L465 200L393 200L393 320L41 320L41 392Z"  horiz-adv-x="505" vert-adv-y="1000"  />

      
      <glyph glyph-name="uniad" unicode="&#xad;" d="M59 325L301 325L301 251L59 251L59 325Z"  horiz-adv-x="360" vert-adv-y="1000"  />

      
      <glyph glyph-name="uniae" unicode="&#xae;" d="M85 451Q85 515 106 564.50Q127 614 163.50 647.50Q200 681 248 698.50Q296 716 350 716Q405 716 453.50 698.50Q502 681 538 647.50Q574 614 594.50 564.50Q615 515 615 451Q615 387 594 337.50Q573 288 536.50 254.50Q500 221 452 203.50Q404 186 350 186Q294 186 246 203.50Q198 221 162 254.50Q126 288 105.50 337.50Q85 387 85 451M148 451Q148 399 164 360.50Q180 322 207.50 296.50Q235 271 272 258Q309 245 350 245Q393 245 430 257.50Q467 270 494 295.50Q521 321 536.50 359.50Q552 398 552 451Q552 503 536 541.50Q520 580 492.50 605.50Q465 631 428.50 644Q392 657 350 657Q306 657 269 644Q232 631 205 605.50Q178 580 163 541.50Q148 503 148 451M247 581Q263 586 292 588.50Q321 591 347 591Q389 591 419 573.50Q449 556 449 513Q449 481 428.50 464Q408 447 378 445L406 431L480 322L419 322L347 426L299 441L299 322L247 322L247 581M336 546Q325 546 315 545.50Q305 545 299 542L299 471L333 471Q362 471 378 480Q394 489 394 511Q394 546 336 546Z"  horiz-adv-x="700" vert-adv-y="1000"  />

      
      <glyph glyph-name="uniaf" unicode="&#xaf;" d="M60 643L356 643L356 581L60 581L60 643Z"  horiz-adv-x="416" vert-adv-y="1000"  />

      
      <glyph glyph-name="unib0" unicode="&#xb0;" d="M85 571Q85 602 96 628Q107 654 126 672.50Q145 691 171 701.50Q197 712 226 712Q255 712 281 702.50Q307 693 326 674.50Q345 656 356 630Q367 604 367 571Q367 538 356 512Q345 486 326 467.50Q307 449 281 439.50Q255 430 226 430Q197 430 171 439.50Q145 449 126 467.50Q107 486 96 512Q85 538 85 571M148 571Q148 533 171.50 511.50Q195 490 226 490Q257 490 280.50 511.50Q304 533 304 571Q304 609 280.50 630.50Q257 652 226 652Q195 652 171.50 630.50Q148 609 148 571Z"  horiz-adv-x="425" vert-adv-y="1000"  />

      
      <glyph glyph-name="unib1" unicode="&#xb1;" d="M40 494L216 494L216 674L288 674L288 494L464 494L464 422L288 422L288 301L216 301L216 422L40 422L40 494M40 250L464 250L464 178L40 178L40 250Z"  horiz-adv-x="505" vert-adv-y="1000"  />

      
      <glyph glyph-name="unib2" unicode="&#xb2;" d="M319 690Q319 659 308.50 630Q298 601 280.50 573Q263 545 239 517.50Q215 490 188 462L142 430L142 428L199 443L339 443L339 380L48 380L48 413Q71 432 105.50 464Q140 496 172 533Q204 570 226.50 609Q249 648 249 681Q249 712 229 727.50Q209 743 180 743Q153 743 127.50 733.50Q102 724 83 712L61 769Q87 787 121.50 797Q156 807 192 807Q255 807 287 776Q319 745 319 690Z"  horiz-adv-x="394" vert-adv-y="1000"  />

      
      <glyph glyph-name="unib3" unicode="&#xb3;" d="M169 433Q217 433 242.50 452Q268 471 268 508Q268 540 245 560Q222 580 171 580L116 580L116 603L213 719L247 746L198 740L68 740L68 800L324 800L324 767L221 644L196 626L196 624L219 627Q274 626 306 594Q338 562 338 508Q338 447 293.50 410Q249 373 175 373Q139 373 113 379Q87 385 67 392L82 452Q99 444 121 438.50Q143 433 169 433Z"  horiz-adv-x="395" vert-adv-y="1000"  />

      
      <glyph glyph-name="unib4" unicode="&#xb4;" d="M119 720L208 720L208 699L107 571L60 571L119 720Z"  horiz-adv-x="268" vert-adv-y="1000"  />

      
      <glyph glyph-name="unib5" unicode="&#xb5;" d="M148 500L148 217Q148 138 172.50 98Q197 58 258 58Q313 58 351 90.50Q389 123 404 176L404 500L484 500L484 163Q484 122 486.50 80.50Q489 39 499 0L444 0L416 74L412 74Q392 39 350.50 13.50Q309-12 249-12Q201-12 175.50 2Q150 16 132 38L127 38L148-67L148-200L68-200L68 500L148 500Z"  horiz-adv-x="552" vert-adv-y="1000"  />

      
      <glyph glyph-name="uni03BC" unicode="&#x03BC;" d="M148 500L148 217Q148 138 172.50 98Q197 58 258 58Q313 58 351 90.50Q389 123 404 176L404 500L484 500L484 163Q484 122 486.50 80.50Q489 39 499 0L444 0L416 74L412 74Q392 39 350.50 13.50Q309-12 249-12Q201-12 175.50 2Q150 16 132 38L127 38L148-67L148-200L68-200L68 500L148 500Z"  horiz-adv-x="552" vert-adv-y="1000"  />

      
      <glyph glyph-name="unib6" unicode="&#xb6;" d="M341 700L409 700L409-130L341-130L341 700M185 310Q153 310 126 326.50Q99 343 79.50 370.50Q60 398 48.50 433.50Q37 469 37 506Q37 543 48.50 578Q60 613 82 640Q104 667 136 683.50Q168 700 208 700L253 700L253-130L185-130L185 310Z"  horiz-adv-x="494" vert-adv-y="1000"  />

      
      <glyph glyph-name="unib7" unicode="&#xb7;" d="M76 296Q76 323 91.50 338.50Q107 354 133 354Q160 354 176 338.50Q192 323 192 296Q192 270 176 254Q160 238 133 238Q107 238 91.50 254Q76 270 76 296Z"  horiz-adv-x="267" vert-adv-y="1000"  />

      
      <glyph glyph-name="unib8" unicode="&#xb8;" d="M148-43Q190-51 208.50-69Q227-87 227-118Q227-159 194-183.50Q161-208 105-208Q94-208 83-207Q72-206 60-204L67-155Q73-156 78-156.50Q83-157 101-158Q113-158 124.50-156.50Q136-155 142.50-150Q149-145 151-139Q153-133 153-127Q154-98 67-90L115 0L172 0L148-43Z"  horiz-adv-x="287" vert-adv-y="1000"  />

      
      <glyph glyph-name="unib9" unicode="&#xb9;" d="M72 441L178 441L178 695L185 731L158 703L80 656L53 705L207 807L248 807L248 441L343 441L343 380L72 380L72 441Z"  horiz-adv-x="394" vert-adv-y="1000"  />

      
      <glyph glyph-name="uniba" unicode="&#xba;" d="M44 542Q44 587 56 619Q68 651 88.50 672Q109 693 137.50 702.50Q166 712 199 712Q232 712 260.50 703Q289 694 309.50 674Q330 654 342 621.50Q354 589 354 542Q354 495 342 462.50Q330 430 309.50 410Q289 390 260.50 381Q232 372 199 372Q166 372 137.50 381Q109 390 88.50 410Q68 430 56 462.50Q44 495 44 542M118 542Q118 482 139.50 456Q161 430 199 430Q218 430 233 435.50Q248 441 258.50 453.50Q269 466 274.50 487.50Q280 509 280 542Q280 575 274.50 596.50Q269 618 258.50 630.50Q248 643 233 648.50Q218 654 199 654Q161 654 139.50 630.50Q118 607 118 542Z"  horiz-adv-x="398" vert-adv-y="1000"  />

      
      <glyph glyph-name="unibb" unicode="&#xbb;" d="M257 268L97 40L45 82L141 226L190 267L141 303L39 444L91 487L257 268M439 268L279 38L225 81L323 226L371 267L323 303L219 445L272 489L439 268Z"  horiz-adv-x="478" vert-adv-y="1000"  />

      
      <glyph glyph-name="unibc" unicode="&#xbc;" d="M648 713L700 678L213-12L161 24L648 713M797 96L714 96L714 0L647 0L647 96L443 96L443 133L669 435L714 435L714 155L797 155L797 96M647 283L653 332L651 332L629 286L551 181L518 150L568 155L647 155L647 283M179 595L186 631L158 603L80 556L53 605L207 707L249 707L249 280L179 280L179 595Z"  horiz-adv-x="837" vert-adv-y="1000"  />

      
      <glyph glyph-name="unibd" unicode="&#xbd;" d="M648 713L700 678L213-12L161 24L648 713M790 310Q790 279 779.50 250Q769 221 751.50 193Q734 165 710 137.50Q686 110 659 82L613 50L613 48L670 63L810 63L810 0L519 0L519 33Q542 52 576.50 84Q611 116 643 153Q675 190 697.50 229Q720 268 720 301Q720 332 700 347.50Q680 363 651 363Q624 363 598.50 353.50Q573 344 554 332L532 389Q558 407 592.50 417Q627 427 663 427Q726 427 758 396Q790 365 790 310M179 595L186 631L158 603L80 556L53 605L207 707L249 707L249 280L179 280L179 595Z"  horiz-adv-x="850" vert-adv-y="1000"  />

      
      <glyph glyph-name="unibe" unicode="&#xbe;" d="M687 713L739 678L252-12L200 24L687 713M836 96L753 96L753 0L686 0L686 96L482 96L482 133L708 435L753 435L753 155L836 155L836 96M686 283L692 332L690 332L668 286L590 181L557 150L607 155L686 155L686 283M178 333Q226 333 251.50 352Q277 371 277 408Q277 440 254 460Q231 480 180 480L125 480L125 503L222 619L256 646L207 640L77 640L77 700L333 700L333 667L230 544L205 526L205 524L228 527Q283 526 315 494Q347 462 347 408Q347 347 302.50 310Q258 273 184 273Q148 273 122 279Q96 285 76 292L91 352Q108 344 130 338.50Q152 333 178 333Z"  horiz-adv-x="876" vert-adv-y="1000"  />

      
      <glyph glyph-name="unibf" unicode="&#xbf;" d="M286 323Q287 318 287 312Q287 306 287 301Q287 259 274.50 227Q262 195 243.50 168.50Q225 142 203.50 119Q182 96 163.50 72.50Q145 49 132.50 22.50Q120-4 120-38Q120-84 146.50-113Q173-142 235-142Q271-142 308-129.50Q345-117 372-100L399-162Q361-185 319-198.50Q277-212 215-212Q171-212 137.50-199.50Q104-187 81.50-165Q59-143 48-113.50Q37-84 37-49Q37-4 50.50 29.50Q64 63 84.50 90.50Q105 118 128.50 142Q152 166 172.50 192.50Q193 219 206.50 250Q220 281 220 323L286 323M191 454Q191 481 206.50 496.50Q222 512 248 512Q275 512 291 496.50Q307 481 307 454Q307 428 291 412Q275 396 248 396Q222 396 206.50 412Q191 428 191 454Z"  horiz-adv-x="436" vert-adv-y="1000"  />

      
      <glyph glyph-name="unic0" unicode="&#xc0;" d="M418 194L160 194L90 0L8 0L273 711L311 711L577 0L490 0L418 194M187 266L393 266L315 479L290 585L289 585L264 477L187 266M367 752L293 752L135 849L135 870L249 870L367 752Z"  horiz-adv-x="585" vert-adv-y="1000"  />

      
      <glyph glyph-name="unic1" unicode="&#xc1;" d="M418 194L160 194L90 0L8 0L273 711L311 711L577 0L490 0L418 194M187 266L393 266L315 479L290 585L289 585L264 477L187 266M331 870L445 870L445 849L282 752L213 752L331 870Z"  horiz-adv-x="585" vert-adv-y="1000"  />

      
      <glyph glyph-name="unic2" unicode="&#xc2;" d="M418 194L160 194L90 0L8 0L273 711L311 711L577 0L490 0L418 194M187 266L393 266L315 479L290 585L289 585L264 477L187 266M265 870L325 870L452 768L452 747L371 747L311 796L294 831L275 797L211 747L132 747L132 769L265 870Z"  horiz-adv-x="585" vert-adv-y="1000"  />

      
      <glyph glyph-name="unic3" unicode="&#xc3;" d="M418 194L160 194L90 0L8 0L273 711L311 711L577 0L490 0L418 194M187 266L393 266L315 479L290 585L289 585L264 477L187 266M135 785Q166 817 192.50 828.50Q219 840 243 840Q262 840 280 835Q298 830 314.50 823.50Q331 817 347 812Q363 807 378 807Q404 807 428 828L453 785Q426 760 402 750.50Q378 741 357 741Q338 741 321 746Q304 751 287.50 757.50Q271 764 255 769Q239 774 223 774Q207 774 191.50 767.50Q176 761 159 744L135 785Z"  horiz-adv-x="585" vert-adv-y="1000"  />

      
      <glyph glyph-name="unic4" unicode="&#xc4;" d="M418 194L160 194L90 0L8 0L273 711L311 711L577 0L490 0L418 194M187 266L393 266L315 479L290 585L289 585L264 477L187 266M144 794Q144 815 159 828Q174 841 198 841Q221 841 235.50 828Q250 815 250 794Q250 774 235.50 761Q221 748 198 748Q174 748 159 761Q144 774 144 794M336 794Q336 815 350.50 828Q365 841 388 841Q412 841 427 828Q442 815 442 794Q442 774 427 761Q412 748 388 748Q365 748 350.50 761Q336 774 336 794Z"  horiz-adv-x="585" vert-adv-y="1000"  />

      
      <glyph glyph-name="unic5" unicode="&#xc5;" d="M188 768Q188 805 213 829Q238 853 293 853Q343 853 371 831.50Q399 810 399 768Q399 736 379 714.50Q359 693 320 687L577 0L490 0L418 194L160 194L90 0L8 0L264 687Q226 693 207 714.50Q188 736 188 768M187 266L393 266L315 479L290 585L289 585L264 477L187 266M249 768Q249 751 259.50 739.50Q270 728 293 728Q315 728 326.50 739Q338 750 338 768Q338 787 327 798.50Q316 810 293 810Q271 810 260 798.50Q249 787 249 768Z"  horiz-adv-x="585" vert-adv-y="1000"  />

      
      <glyph glyph-name="unic6" unicode="&#xc6;" d="M391 600L357 497L224 268L395 268L395 600L391 600M395 198L181 198L69 0L-22 0L393 700L776 700L776 626L478 626L478 397L751 397L751 323L478 323L478 74L781 74L781 0L395 0L395 198Z"  horiz-adv-x="846" vert-adv-y="1000"  />

      
      <glyph glyph-name="unic7" unicode="&#xc7;" d="M533 29Q507 9 469 0Q431-9 386-11L369-43Q411-51 429.50-69Q448-87 448-118Q448-157 416-182.50Q384-208 326-208Q315-208 304-207Q293-206 281-204L290-165Q296-166 301-166Q306-166 311-166Q333-166 345.50-162Q358-158 364.50-152.50Q371-147 372.50-140Q374-133 374-127Q374-99 288-90L330-10Q272-6 222 17.50Q172 41 135 85Q98 129 77 195Q56 261 56 350Q56 448 82.50 516.50Q109 585 152.50 628.50Q196 672 250 692Q304 712 360 712Q420 712 458 705.50Q496 699 523 688L503 615Q455 638 366 638Q325 638 285 623Q245 608 213.50 574Q182 540 163 485Q144 430 144 350Q144 278 162 224Q180 170 211.50 134Q243 98 285.50 80Q328 62 378 62Q423 62 456.50 71Q490 80 513 94L533 29Z"  horiz-adv-x="571" vert-adv-y="1000"  />

      
      <glyph glyph-name="unic8" unicode="&#xc8;" d="M85 700L466 700L466 626L168 626L168 397L441 397L441 323L168 323L168 74L471 74L471 0L85 0L85 700M326 752L252 752L94 849L94 870L208 870L326 752Z"  horiz-adv-x="536" vert-adv-y="1000"  />

      
      <glyph glyph-name="unic9" unicode="&#xc9;" d="M85 700L466 700L466 626L168 626L168 397L441 397L441 323L168 323L168 74L471 74L471 0L85 0L85 700M330 870L444 870L444 849L281 752L212 752L330 870Z"  horiz-adv-x="536" vert-adv-y="1000"  />

      
      <glyph glyph-name="unica" unicode="&#xca;" d="M85 700L466 700L466 626L168 626L168 397L441 397L441 323L168 323L168 74L471 74L471 0L85 0L85 700M242 870L302 870L429 768L429 747L348 747L288 796L271 831L252 797L188 747L109 747L109 769L242 870Z"  horiz-adv-x="536" vert-adv-y="1000"  />

      
      <glyph glyph-name="unicb" unicode="&#xcb;" d="M85 700L466 700L466 626L168 626L168 397L441 397L441 323L168 323L168 74L471 74L471 0L85 0L85 700M120 794Q120 815 135 828Q150 841 174 841Q197 841 211.50 828Q226 815 226 794Q226 774 211.50 761Q197 748 174 748Q150 748 135 761Q120 774 120 794M312 794Q312 815 326.50 828Q341 841 364 841Q388 841 403 828Q418 815 418 794Q418 774 403 761Q388 748 364 748Q341 748 326.50 761Q312 774 312 794Z"  horiz-adv-x="536" vert-adv-y="1000"  />

      
      <glyph glyph-name="unicc" unicode="&#xcc;" d="M104 700L187 700L187 0L104 0L104 700M195 752L121 752L-37 849L-37 870L77 870L195 752Z"  horiz-adv-x="291" vert-adv-y="1000"  />

      
      <glyph glyph-name="unicd" unicode="&#xcd;" d="M104 700L187 700L187 0L104 0L104 700M180 870L294 870L294 849L131 752L62 752L180 870Z"  horiz-adv-x="291" vert-adv-y="1000"  />

      
      <glyph glyph-name="unice" unicode="&#xce;" d="M104 700L187 700L187 0L104 0L104 700M118 870L178 870L305 768L305 747L224 747L164 796L147 831L128 797L64 747L-15 747L-15 769L118 870Z"  horiz-adv-x="291" vert-adv-y="1000"  />

      
      <glyph glyph-name="unicf" unicode="&#xcf;" d="M104 700L187 700L187 0L104 0L104 700M-2 794Q-2 815 13 828Q28 841 52 841Q75 841 89.50 828Q104 815 104 794Q104 774 89.50 761Q75 748 52 748Q28 748 13 761Q-2 774-2 794M190 794Q190 815 204.50 828Q219 841 242 841Q266 841 281 828Q296 815 296 794Q296 774 281 761Q266 748 242 748Q219 748 204.50 761Q190 774 190 794Z"  horiz-adv-x="291" vert-adv-y="1000"  />

      
      <glyph glyph-name="unid0" unicode="&#xd0;" d="M-1 392L89 392L89 700Q108 703 131.50 704.50Q155 706 180.50 706.50Q206 707 230.50 707.50Q255 708 276 708Q360 708 421.50 682Q483 656 523 609.50Q563 563 582.50 498Q602 433 602 355Q602 284 583.50 218.50Q565 153 525 102.50Q485 52 421 21.50Q357-9 266-9Q250-9 224.50-8.50Q199-8 172-6.50Q145-5 122-4Q99-3 89-1L89 332L-1 332L-1 392M278 634Q265 634 249.50 634Q234 634 219 633Q204 632 191.50 631Q179 630 172 629L172 392L319 392L319 332L172 332L172 69Q177 68 191 67.50Q205 67 220 66.50Q235 66 249 65.50Q263 65 268 65Q338 65 385.50 89Q433 113 461.50 153.50Q490 194 502 246.50Q514 299 514 355Q514 404 503 453.50Q492 503 465 543Q438 583 392.50 608.50Q347 634 278 634Z"  horiz-adv-x="658" vert-adv-y="1000"  />

      
      <glyph glyph-name="unid1" unicode="&#xd1;" d="M211 458L157 559L153 559L163 458L163 0L85 0L85 711L129 711L464 244L516 148L521 148L510 244L510 700L588 700L588-11L544-11L211 458M179 785Q210 817 236.50 828.50Q263 840 287 840Q306 840 324 835Q342 830 358.50 823.50Q375 817 391 812Q407 807 422 807Q448 807 472 828L497 785Q470 760 446 750.50Q422 741 401 741Q382 741 365 746Q348 751 331.50 757.50Q315 764 299 769Q283 774 267 774Q251 774 235.50 767.50Q220 761 203 744L179 785Z"  horiz-adv-x="673" vert-adv-y="1000"  />

      
      <glyph glyph-name="unid2" unicode="&#xd2;" d="M56 350Q56 525 130 618.50Q204 712 341 712Q415 712 469 686Q523 660 558.50 612.50Q594 565 611 498.50Q628 432 628 350Q628 175 553.50 81.50Q479-12 341-12Q268-12 214.50 14Q161 40 125.50 87.50Q90 135 73 201.50Q56 268 56 350M144 350Q144 292 155.50 240Q167 188 191 148.50Q215 109 252.50 85.50Q290 62 341 62Q434 62 487 132.50Q540 203 540 350Q540 407 528.50 459.50Q517 512 492.50 551.50Q468 591 430.50 614.50Q393 638 341 638Q249 638 196.50 567.50Q144 497 144 350M410 752L336 752L178 849L178 870L292 870L410 752Z"  horiz-adv-x="684" vert-adv-y="1000"  />

      
      <glyph glyph-name="unid3" unicode="&#xd3;" d="M56 350Q56 525 130 618.50Q204 712 341 712Q415 712 469 686Q523 660 558.50 612.50Q594 565 611 498.50Q628 432 628 350Q628 175 553.50 81.50Q479-12 341-12Q268-12 214.50 14Q161 40 125.50 87.50Q90 135 73 201.50Q56 268 56 350M144 350Q144 292 155.50 240Q167 188 191 148.50Q215 109 252.50 85.50Q290 62 341 62Q434 62 487 132.50Q540 203 540 350Q540 407 528.50 459.50Q517 512 492.50 551.50Q468 591 430.50 614.50Q393 638 341 638Q249 638 196.50 567.50Q144 497 144 350M415 870L529 870L529 849L366 752L297 752L415 870Z"  horiz-adv-x="684" vert-adv-y="1000"  />

      
      <glyph glyph-name="unid4" unicode="&#xd4;" d="M56 350Q56 525 130 618.50Q204 712 341 712Q415 712 469 686Q523 660 558.50 612.50Q594 565 611 498.50Q628 432 628 350Q628 175 553.50 81.50Q479-12 341-12Q268-12 214.50 14Q161 40 125.50 87.50Q90 135 73 201.50Q56 268 56 350M144 350Q144 292 155.50 240Q167 188 191 148.50Q215 109 252.50 85.50Q290 62 341 62Q434 62 487 132.50Q540 203 540 350Q540 407 528.50 459.50Q517 512 492.50 551.50Q468 591 430.50 614.50Q393 638 341 638Q249 638 196.50 567.50Q144 497 144 350M312 870L372 870L499 768L499 747L418 747L358 796L341 831L322 797L258 747L179 747L179 769L312 870Z"  horiz-adv-x="684" vert-adv-y="1000"  />

      
      <glyph glyph-name="unid5" unicode="&#xd5;" d="M56 350Q56 525 130 618.50Q204 712 341 712Q415 712 469 686Q523 660 558.50 612.50Q594 565 611 498.50Q628 432 628 350Q628 175 553.50 81.50Q479-12 341-12Q268-12 214.50 14Q161 40 125.50 87.50Q90 135 73 201.50Q56 268 56 350M144 350Q144 292 155.50 240Q167 188 191 148.50Q215 109 252.50 85.50Q290 62 341 62Q434 62 487 132.50Q540 203 540 350Q540 407 528.50 459.50Q517 512 492.50 551.50Q468 591 430.50 614.50Q393 638 341 638Q249 638 196.50 567.50Q144 497 144 350M182 785Q213 817 239.50 828.50Q266 840 290 840Q309 840 327 835Q345 830 361.50 823.50Q378 817 394 812Q410 807 425 807Q451 807 475 828L500 785Q473 760 449 750.50Q425 741 404 741Q385 741 368 746Q351 751 334.50 757.50Q318 764 302 769Q286 774 270 774Q254 774 238.50 767.50Q223 761 206 744L182 785Z"  horiz-adv-x="684" vert-adv-y="1000"  />

      
      <glyph glyph-name="unid6" unicode="&#xd6;" d="M56 350Q56 525 130 618.50Q204 712 341 712Q415 712 469 686Q523 660 558.50 612.50Q594 565 611 498.50Q628 432 628 350Q628 175 553.50 81.50Q479-12 341-12Q268-12 214.50 14Q161 40 125.50 87.50Q90 135 73 201.50Q56 268 56 350M144 350Q144 292 155.50 240Q167 188 191 148.50Q215 109 252.50 85.50Q290 62 341 62Q434 62 487 132.50Q540 203 540 350Q540 407 528.50 459.50Q517 512 492.50 551.50Q468 591 430.50 614.50Q393 638 341 638Q249 638 196.50 567.50Q144 497 144 350M190 794Q190 815 205 828Q220 841 244 841Q267 841 281.50 828Q296 815 296 794Q296 774 281.50 761Q267 748 244 748Q220 748 205 761Q190 774 190 794M382 794Q382 815 396.50 828Q411 841 434 841Q458 841 473 828Q488 815 488 794Q488 774 473 761Q458 748 434 748Q411 748 396.50 761Q382 774 382 794Z"  horiz-adv-x="684" vert-adv-y="1000"  />

      
      <glyph glyph-name="unid7" unicode="&#xd7;" d="M127 517L253 390L380 517L431 464L305 338L431 211L380 159L253 287L126 159L74 210L202 339L76 464L127 517Z"  horiz-adv-x="505" vert-adv-y="1000"  />

      
      <glyph glyph-name="unid8" unicode="&#xd8;" d="M122 91Q88 139 72 204Q56 269 56 350Q56 525 130 618.50Q204 712 341 712Q398 712 442 697Q486 682 520 653L562 713L614 678L563 606Q596 558 612 493.50Q628 429 628 350Q628 175 553.50 81.50Q479-12 341-12Q234-12 166 44L127-12L75 24L122 91M144 350Q144 299 152.50 254Q161 209 179 171L469 582Q446 608 414.50 623Q383 638 341 638Q249 638 196.50 567.50Q144 497 144 350M540 350Q540 398 531.50 443Q523 488 506 525L216 114Q239 89 270 75.50Q301 62 341 62Q434 62 487 132.50Q540 203 540 350Z"  horiz-adv-x="684" vert-adv-y="1000"  />

      
      <glyph glyph-name="unid9" unicode="&#xd9;" d="M487 700L567 700L567 233Q567 170 550.50 124Q534 78 503.50 48.50Q473 19 430 5Q387-9 335-9Q211-9 148 47Q85 103 85 217L85 700L168 700L168 256Q168 203 178.50 166.50Q189 130 210 107.50Q231 85 262.50 75Q294 65 336 65Q417 65 452 109.50Q487 154 487 256L487 700M407 752L333 752L175 849L175 870L289 870L407 752Z"  horiz-adv-x="652" vert-adv-y="1000"  />

      
      <glyph glyph-name="unida" unicode="&#xda;" d="M487 700L567 700L567 233Q567 170 550.50 124Q534 78 503.50 48.50Q473 19 430 5Q387-9 335-9Q211-9 148 47Q85 103 85 217L85 700L168 700L168 256Q168 203 178.50 166.50Q189 130 210 107.50Q231 85 262.50 75Q294 65 336 65Q417 65 452 109.50Q487 154 487 256L487 700M390 870L504 870L504 849L341 752L272 752L390 870Z"  horiz-adv-x="652" vert-adv-y="1000"  />

      
      <glyph glyph-name="unidb" unicode="&#xdb;" d="M487 700L567 700L567 233Q567 170 550.50 124Q534 78 503.50 48.50Q473 19 430 5Q387-9 335-9Q211-9 148 47Q85 103 85 217L85 700L168 700L168 256Q168 203 178.50 166.50Q189 130 210 107.50Q231 85 262.50 75Q294 65 336 65Q417 65 452 109.50Q487 154 487 256L487 700M301 870L361 870L488 768L488 747L407 747L347 796L330 831L311 797L247 747L168 747L168 769L301 870Z"  horiz-adv-x="652" vert-adv-y="1000"  />

      
      <glyph glyph-name="unidc" unicode="&#xdc;" d="M487 700L567 700L567 233Q567 170 550.50 124Q534 78 503.50 48.50Q473 19 430 5Q387-9 335-9Q211-9 148 47Q85 103 85 217L85 700L168 700L168 256Q168 203 178.50 166.50Q189 130 210 107.50Q231 85 262.50 75Q294 65 336 65Q417 65 452 109.50Q487 154 487 256L487 700M178 794Q178 815 193 828Q208 841 232 841Q255 841 269.50 828Q284 815 284 794Q284 774 269.50 761Q255 748 232 748Q208 748 193 761Q178 774 178 794M370 794Q370 815 384.50 828Q399 841 422 841Q446 841 461 828Q476 815 476 794Q476 774 461 761Q446 748 422 748Q399 748 384.50 761Q370 774 370 794Z"  horiz-adv-x="652" vert-adv-y="1000"  />

      
      <glyph glyph-name="unidd" unicode="&#xdd;" d="M239 278L8 700L105 700L269 394L286 333L287 333L305 396L462 700L551 700L322 279L322 0L239 0L239 278M355 870L469 870L469 849L306 752L237 752L355 870Z"  horiz-adv-x="558" vert-adv-y="1000"  />

      
      <glyph glyph-name="unide" unicode="&#xde;" d="M85 800L168 800L168 625Q210 628 254 628Q300 628 347.50 619Q395 610 434 586Q473 562 497.50 520Q522 478 522 413Q522 349 499 305Q476 261 438 233.50Q400 206 351 194Q302 182 250 182Q245 182 233.50 182Q222 182 209.50 182.50Q197 183 185 184Q173 185 168 186L168 0L85 0L85 800M256 556Q230 556 206 555Q182 554 168 550L168 260Q173 258 184 257.50Q195 257 207 256.50Q219 256 230 256Q241 256 246 256Q280 256 313.50 262.50Q347 269 374 286Q401 303 417.50 334Q434 365 434 413Q434 454 418.50 481.50Q403 509 377.50 525.50Q352 542 320 549Q288 556 256 556Z"  horiz-adv-x="559" vert-adv-y="1000"  />

      
      <glyph glyph-name="unidf" unicode="&#xdf;" d="M384 559Q384 576 374.50 590Q365 604 350 614.50Q335 625 317 630.50Q299 636 282 636Q254 636 234.50 629Q215 622 202.50 606Q190 590 185 563.50Q180 537 180 498L180 0L100 0L100 430L22 430L22 500L100 500L100 523Q100 620 147.50 663Q195 706 279 706Q320 706 354 695.50Q388 685 412.50 665.50Q437 646 450.50 619.50Q464 593 464 560Q464 522 445 499Q426 476 403.50 458Q381 440 362 423Q343 406 343 381Q343 359 358 346Q373 333 396 323Q419 313 445 302.50Q471 292 494 275Q517 258 532 230.50Q547 203 547 159Q547 127 535 96.50Q523 66 500.50 42Q478 18 444 3Q410-12 367-12Q344-12 326.50-10.50Q309-9 294.50-5.50Q280-2 267 3Q254 8 241 16L264 83Q276 77 285 72Q294 67 304.50 64Q315 61 328 59.50Q341 58 360 58Q381 58 400.50 65.50Q420 73 435 86Q450 99 458.50 116.50Q467 134 467 156Q467 186 452 203.50Q437 221 414.50 233Q392 245 365.50 254.50Q339 264 316.50 278.50Q294 293 279 315.50Q264 338 264 376Q264 415 282.50 438.50Q301 462 324.50 480.50Q348 499 366 516Q384 533 384 559Z"  horiz-adv-x="592" vert-adv-y="1000"  />

      
      <glyph glyph-name="unie0" unicode="&#xe0;" d="M69 463Q107 486 157.50 497Q208 508 263 508Q315 508 346.50 494Q378 480 394.50 457.50Q411 435 416.50 408Q422 381 422 354Q422 294 419 237Q416 180 416 129Q416 92 419 59Q422 26 430-2L371-2L350 68L345 68Q336 54 322.50 40.50Q309 27 290 16.50Q271 6 246-1Q221-8 189-8Q157-8 129.50 2Q102 12 82 30.50Q62 49 50.50 75Q39 101 39 134Q39 178 57 207.50Q75 237 107.50 254.50Q140 272 185.50 279.50Q231 287 286 287Q300 287 313.50 287Q327 287 341 285Q344 315 344 339Q344 394 322 416Q300 438 242 438Q225 438 205.50 435.50Q186 433 165.50 428.50Q145 424 126.50 417.50Q108 411 94 403L69 463M211 62Q239 62 261 69.50Q283 77 299 88.50Q315 100 325.50 114Q336 128 341 141L341 224Q327 225 312.50 225.50Q298 226 284 226Q253 226 223.50 222.50Q194 219 171.50 209.50Q149 200 135.50 183.50Q122 167 122 142Q122 107 147 84.50Q172 62 211 62M305 571L260 571L145 699L145 720L240 720L305 571Z"  horiz-adv-x="496" vert-adv-y="1000"  />

      
      <glyph glyph-name="unie1" unicode="&#xe1;" d="M69 463Q107 486 157.50 497Q208 508 263 508Q315 508 346.50 494Q378 480 394.50 457.50Q411 435 416.50 408Q422 381 422 354Q422 294 419 237Q416 180 416 129Q416 92 419 59Q422 26 430-2L371-2L350 68L345 68Q336 54 322.50 40.50Q309 27 290 16.50Q271 6 246-1Q221-8 189-8Q157-8 129.50 2Q102 12 82 30.50Q62 49 50.50 75Q39 101 39 134Q39 178 57 207.50Q75 237 107.50 254.50Q140 272 185.50 279.50Q231 287 286 287Q300 287 313.50 287Q327 287 341 285Q344 315 344 339Q344 394 322 416Q300 438 242 438Q225 438 205.50 435.50Q186 433 165.50 428.50Q145 424 126.50 417.50Q108 411 94 403L69 463M211 62Q239 62 261 69.50Q283 77 299 88.50Q315 100 325.50 114Q336 128 341 141L341 224Q327 225 312.50 225.50Q298 226 284 226Q253 226 223.50 222.50Q194 219 171.50 209.50Q149 200 135.50 183.50Q122 167 122 142Q122 107 147 84.50Q172 62 211 62M238 720L327 720L327 699L226 571L179 571L238 720Z"  horiz-adv-x="496" vert-adv-y="1000"  />

      
      <glyph glyph-name="unie2" unicode="&#xe2;" d="M69 463Q107 486 157.50 497Q208 508 263 508Q315 508 346.50 494Q378 480 394.50 457.50Q411 435 416.50 408Q422 381 422 354Q422 294 419 237Q416 180 416 129Q416 92 419 59Q422 26 430-2L371-2L350 68L345 68Q336 54 322.50 40.50Q309 27 290 16.50Q271 6 246-1Q221-8 189-8Q157-8 129.50 2Q102 12 82 30.50Q62 49 50.50 75Q39 101 39 134Q39 178 57 207.50Q75 237 107.50 254.50Q140 272 185.50 279.50Q231 287 286 287Q300 287 313.50 287Q327 287 341 285Q344 315 344 339Q344 394 322 416Q300 438 242 438Q225 438 205.50 435.50Q186 433 165.50 428.50Q145 424 126.50 417.50Q108 411 94 403L69 463M211 62Q239 62 261 69.50Q283 77 299 88.50Q315 100 325.50 114Q336 128 341 141L341 224Q327 225 312.50 225.50Q298 226 284 226Q253 226 223.50 222.50Q194 219 171.50 209.50Q149 200 135.50 183.50Q122 167 122 142Q122 107 147 84.50Q172 62 211 62M239 732L271 732L382 550L310 550L271 616L250 674L228 616L183 550L116 550L239 732Z"  horiz-adv-x="496" vert-adv-y="1000"  />

      
      <glyph glyph-name="unie3" unicode="&#xe3;" d="M69 463Q107 486 157.50 497Q208 508 263 508Q315 508 346.50 494Q378 480 394.50 457.50Q411 435 416.50 408Q422 381 422 354Q422 294 419 237Q416 180 416 129Q416 92 419 59Q422 26 430-2L371-2L350 68L345 68Q336 54 322.50 40.50Q309 27 290 16.50Q271 6 246-1Q221-8 189-8Q157-8 129.50 2Q102 12 82 30.50Q62 49 50.50 75Q39 101 39 134Q39 178 57 207.50Q75 237 107.50 254.50Q140 272 185.50 279.50Q231 287 286 287Q300 287 313.50 287Q327 287 341 285Q344 315 344 339Q344 394 322 416Q300 438 242 438Q225 438 205.50 435.50Q186 433 165.50 428.50Q145 424 126.50 417.50Q108 411 94 403L69 463M211 62Q239 62 261 69.50Q283 77 299 88.50Q315 100 325.50 114Q336 128 341 141L341 224Q327 225 312.50 225.50Q298 226 284 226Q253 226 223.50 222.50Q194 219 171.50 209.50Q149 200 135.50 183.50Q122 167 122 142Q122 107 147 84.50Q172 62 211 62M109 656Q138 689 162 701.50Q186 714 206 714Q223 714 237.50 707.50Q252 701 265.50 693.50Q279 686 291.50 680Q304 674 318 674Q340 674 364 698L388 655Q362 626 340.50 615.50Q319 605 301 605Q285 605 271 611Q257 617 243.50 624.50Q230 632 216.50 638.50Q203 645 189 645Q176 645 162.50 638Q149 631 132 614L109 656Z"  horiz-adv-x="496" vert-adv-y="1000"  />

      
      <glyph glyph-name="unie4" unicode="&#xe4;" d="M69 463Q107 486 157.50 497Q208 508 263 508Q315 508 346.50 494Q378 480 394.50 457.50Q411 435 416.50 408Q422 381 422 354Q422 294 419 237Q416 180 416 129Q416 92 419 59Q422 26 430-2L371-2L350 68L345 68Q336 54 322.50 40.50Q309 27 290 16.50Q271 6 246-1Q221-8 189-8Q157-8 129.50 2Q102 12 82 30.50Q62 49 50.50 75Q39 101 39 134Q39 178 57 207.50Q75 237 107.50 254.50Q140 272 185.50 279.50Q231 287 286 287Q300 287 313.50 287Q327 287 341 285Q344 315 344 339Q344 394 322 416Q300 438 242 438Q225 438 205.50 435.50Q186 433 165.50 428.50Q145 424 126.50 417.50Q108 411 94 403L69 463M211 62Q239 62 261 69.50Q283 77 299 88.50Q315 100 325.50 114Q336 128 341 141L341 224Q327 225 312.50 225.50Q298 226 284 226Q253 226 223.50 222.50Q194 219 171.50 209.50Q149 200 135.50 183.50Q122 167 122 142Q122 107 147 84.50Q172 62 211 62M105 653Q105 676 118.50 690Q132 704 154 704Q176 704 189.50 690Q203 676 203 653Q203 632 189.50 618Q176 604 154 604Q132 604 118.50 618Q105 632 105 653M297 653Q297 676 310.50 690Q324 704 346 704Q369 704 382.50 690Q396 676 396 653Q396 632 382.50 618Q369 604 346 604Q324 604 310.50 618Q297 632 297 653Z"  horiz-adv-x="496" vert-adv-y="1000"  />

      
      <glyph glyph-name="unie5" unicode="&#xe5;" d="M69 463Q107 486 157.50 497Q208 508 263 508Q315 508 346.50 494Q378 480 394.50 457.50Q411 435 416.50 408Q422 381 422 354Q422 294 419 237Q416 180 416 129Q416 92 419 59Q422 26 430-2L371-2L350 68L345 68Q336 54 322.50 40.50Q309 27 290 16.50Q271 6 246-1Q221-8 189-8Q157-8 129.50 2Q102 12 82 30.50Q62 49 50.50 75Q39 101 39 134Q39 178 57 207.50Q75 237 107.50 254.50Q140 272 185.50 279.50Q231 287 286 287Q300 287 313.50 287Q327 287 341 285Q344 315 344 339Q344 394 322 416Q300 438 242 438Q225 438 205.50 435.50Q186 433 165.50 428.50Q145 424 126.50 417.50Q108 411 94 403L69 463M211 62Q239 62 261 69.50Q283 77 299 88.50Q315 100 325.50 114Q336 128 341 141L341 224Q327 225 312.50 225.50Q298 226 284 226Q253 226 223.50 222.50Q194 219 171.50 209.50Q149 200 135.50 183.50Q122 167 122 142Q122 107 147 84.50Q172 62 211 62M152 643Q152 685 178.50 709.50Q205 734 249 734Q291 734 319 712Q347 690 347 643Q347 604 319 578.50Q291 553 249 553Q207 553 179.50 576.50Q152 600 152 643M206 643Q206 623 219 612Q232 601 249 601Q268 601 280.50 611Q293 621 293 643Q293 665 279.50 675.50Q266 686 249 686Q232 686 219 676Q206 666 206 643Z"  horiz-adv-x="496" vert-adv-y="1000"  />

      
      <glyph glyph-name="unie6" unicode="&#xe6;" d="M211 62Q239 62 261 69.50Q283 77 299 88.50Q315 100 325.50 114Q336 128 341 141L341 224Q327 225 312.50 225.50Q298 226 284 226Q253 226 223.50 222.50Q194 219 171.50 209.50Q149 200 135.50 183.50Q122 167 122 142Q122 107 147 84.50Q172 62 211 62M367 84Q354 66 337 49.50Q320 33 298.50 20.50Q277 8 249.50 0Q222-8 189-8Q157-8 129.50 2Q102 12 82 30.50Q62 49 50.50 75Q39 101 39 134Q39 178 57 207.50Q75 237 107.50 254.50Q140 272 185.50 279.50Q231 287 286 287Q300 287 313.50 287Q327 287 341 285Q342 300 343 313.50Q344 327 344 339Q344 394 322 416.50Q300 439 242 438Q225 438 205.50 435.50Q186 433 165.50 428.50Q145 424 126.50 417.50Q108 411 94 403L69 463Q107 486 157.50 497Q208 508 263 508Q368 508 399 443Q425 479 469 495.50Q513 512 557 512Q591 512 625 504.50Q659 497 686 475.50Q713 454 730 415Q747 376 747 313Q747 297 745.50 279.50Q744 262 742 242L419 242Q419 155 455.50 106.50Q492 58 580 58Q615 58 648.50 70.50Q682 83 700 98L730 40Q700 16 654.50 2Q609-12 558-12Q497-12 447.50 13Q398 38 374 84L367 84M558 442Q499 442 463 411Q427 380 421 305L669 305L669 317Q669 385 638.50 413.50Q608 442 558 442Z"  horiz-adv-x="796" vert-adv-y="1000"  />

      
      <glyph glyph-name="unie7" unicode="&#xe7;" d="M418 33Q369-2 297-10L279-43Q321-51 339.50-69Q358-87 358-118Q358-157 326-182.50Q294-208 236-208Q225-208 214-207Q203-206 191-204L200-165Q206-166 211-166Q216-166 221-166Q243-166 255.50-162Q268-158 274.50-152.50Q281-147 282.50-140Q284-133 284-127Q284-99 198-90L240-11Q188-8 152 12Q116 32 93 66Q70 100 59.50 146.50Q49 193 49 250Q49 377 105 444.50Q161 512 266 512Q314 512 347.50 504.50Q381 497 408 483L385 414Q362 427 334 434.50Q306 442 274 442Q132 442 132 250Q132 212 139.50 177.50Q147 143 164.50 116.50Q182 90 210.50 74.50Q239 59 281 59Q317 59 345.50 69.50Q374 80 392 94L418 33Z"  horiz-adv-x="451" vert-adv-y="1000"  />

      
      <glyph glyph-name="unie8" unicode="&#xe8;" d="M442 40Q412 16 366.50 2Q321-12 270-12Q213-12 171 6.50Q129 25 102 59.50Q75 94 62 142Q49 190 49 250Q49 378 106 445Q163 512 269 512Q303 512 337 504.50Q371 497 398 476Q425 455 442 416.50Q459 378 459 315Q459 282 453 242L132 242Q132 198 141 164Q150 130 169 106.50Q188 83 218.50 70.50Q249 58 293 58Q327 58 361 70Q395 82 412 98L442 40M270 442Q211 442 175.50 411Q140 380 133 305L381 305Q381 381 352 411.50Q323 442 270 442M330 571L285 571L170 699L170 720L265 720L330 571Z"  horiz-adv-x="508" vert-adv-y="1000"  />

      
      <glyph glyph-name="unie9" unicode="&#xe9;" d="M442 40Q412 16 366.50 2Q321-12 270-12Q213-12 171 6.50Q129 25 102 59.50Q75 94 62 142Q49 190 49 250Q49 378 106 445Q163 512 269 512Q303 512 337 504.50Q371 497 398 476Q425 455 442 416.50Q459 378 459 315Q459 282 453 242L132 242Q132 198 141 164Q150 130 169 106.50Q188 83 218.50 70.50Q249 58 293 58Q327 58 361 70Q395 82 412 98L442 40M270 442Q211 442 175.50 411Q140 380 133 305L381 305Q381 381 352 411.50Q323 442 270 442M291 720L380 720L380 699L279 571L232 571L291 720Z"  horiz-adv-x="508" vert-adv-y="1000"  />

      
      <glyph glyph-name="uniea" unicode="&#xea;" d="M442 40Q412 16 366.50 2Q321-12 270-12Q213-12 171 6.50Q129 25 102 59.50Q75 94 62 142Q49 190 49 250Q49 378 106 445Q163 512 269 512Q303 512 337 504.50Q371 497 398 476Q425 455 442 416.50Q459 378 459 315Q459 282 453 242L132 242Q132 198 141 164Q150 130 169 106.50Q188 83 218.50 70.50Q249 58 293 58Q327 58 361 70Q395 82 412 98L442 40M270 442Q211 442 175.50 411Q140 380 133 305L381 305Q381 381 352 411.50Q323 442 270 442M245 732L277 732L388 550L316 550L277 616L256 674L234 616L189 550L122 550L245 732Z"  horiz-adv-x="508" vert-adv-y="1000"  />

      
      <glyph glyph-name="unieb" unicode="&#xeb;" d="M442 40Q412 16 366.50 2Q321-12 270-12Q213-12 171 6.50Q129 25 102 59.50Q75 94 62 142Q49 190 49 250Q49 378 106 445Q163 512 269 512Q303 512 337 504.50Q371 497 398 476Q425 455 442 416.50Q459 378 459 315Q459 282 453 242L132 242Q132 198 141 164Q150 130 169 106.50Q188 83 218.50 70.50Q249 58 293 58Q327 58 361 70Q395 82 412 98L442 40M270 442Q211 442 175.50 411Q140 380 133 305L381 305Q381 381 352 411.50Q323 442 270 442M119 653Q119 676 132.50 690Q146 704 168 704Q190 704 203.50 690Q217 676 217 653Q217 632 203.50 618Q190 604 168 604Q146 604 132.50 618Q119 632 119 653M311 653Q311 676 324.50 690Q338 704 360 704Q383 704 396.50 690Q410 676 410 653Q410 632 396.50 618Q383 604 360 604Q338 604 324.50 618Q311 632 311 653Z"  horiz-adv-x="508" vert-adv-y="1000"  />

      
      <glyph glyph-name="uniec" unicode="&#xec;" d="M94 500L174 500L174 0L94 0L94 500M172 571L127 571L12 699L12 720L107 720L172 571Z"  horiz-adv-x="268" vert-adv-y="1000"  />

      
      <glyph glyph-name="unied" unicode="&#xed;" d="M94 500L174 500L174 0L94 0L94 500M154 720L243 720L243 699L142 571L95 571L154 720Z"  horiz-adv-x="268" vert-adv-y="1000"  />

      
      <glyph glyph-name="uniee" unicode="&#xee;" d="M94 500L174 500L174 0L94 0L94 500M121 732L153 732L264 550L192 550L153 616L132 674L110 616L65 550L-2 550L121 732Z"  horiz-adv-x="268" vert-adv-y="1000"  />

      
      <glyph glyph-name="unief" unicode="&#xef;" d="M94 500L174 500L174 0L94 0L94 500M-12 653Q-12 676 1.50 690Q15 704 37 704Q59 704 72.50 690Q86 676 86 653Q86 632 72.50 618Q59 604 37 604Q15 604 1.50 618Q-12 632-12 653M180 653Q180 676 193.50 690Q207 704 229 704Q252 704 265.50 690Q279 676 279 653Q279 632 265.50 618Q252 604 229 604Q207 604 193.50 618Q180 632 180 653Z"  horiz-adv-x="268" vert-adv-y="1000"  />

      
      <glyph glyph-name="unif0" unicode="&#xf0;" d="M220 596L277 627Q239 650 201 659L236 713Q254 706 282 694Q310 682 340 661L408 698L434 653L384 626Q408 603 430 572.50Q452 542 469 501.50Q486 461 496 410Q506 359 506 295Q506 214 488 156Q470 98 439.50 60.50Q409 23 368.50 5.50Q328-12 282-12Q221-12 178 9Q135 30 108 66Q81 102 68.50 149.50Q56 197 56 251Q56 303 70.50 350Q85 397 113.50 432.50Q142 468 183.50 489Q225 510 280 510Q325 510 359.50 496Q394 482 408 464Q397 501 374.50 534Q352 567 323 593L247 552L220 596M138 250Q138 201 149 165Q160 129 179.50 105Q199 81 226.50 69.50Q254 58 286 58Q316 58 341.50 71Q367 84 386 112Q405 140 416 184Q427 228 427 290Q427 300 426.50 312.50Q426 325 425.50 337.50Q425 350 423.50 361.50Q422 373 420 381Q412 395 397.50 406Q383 417 365 424.50Q347 432 327 435.50Q307 439 288 439Q249 439 220.50 424.50Q192 410 173.50 384.50Q155 359 146.50 324.50Q138 290 138 250Z"  horiz-adv-x="561" vert-adv-y="1000"  />

      
      <glyph glyph-name="unif1" unicode="&#xf1;" d="M398 0L398 285Q398 363 375.50 402.50Q353 442 293 442Q240 442 205.50 413.50Q171 385 157 342L157 0L77 0L77 500L133 500L148 439L152 439Q176 471 216.50 491.50Q257 512 313 512Q354 512 385 502.50Q416 493 436.50 469Q457 445 467.50 404.50Q478 364 478 302L478 0L398 0M134 656Q163 689 187 701.50Q211 714 231 714Q248 714 262.50 707.50Q277 701 290.50 693.50Q304 686 316.50 680Q329 674 343 674Q365 674 389 698L413 655Q387 626 365.50 615.50Q344 605 326 605Q310 605 296 611Q282 617 268.50 624.50Q255 632 241.50 638.50Q228 645 214 645Q201 645 187.50 638Q174 631 157 614L134 656Z"  horiz-adv-x="547" vert-adv-y="1000"  />

      
      <glyph glyph-name="unif2" unicode="&#xf2;" d="M49 250Q49 377 105.50 444.50Q162 512 268 512Q324 512 365.50 493.50Q407 475 434 440.50Q461 406 474 357.50Q487 309 487 250Q487 123 430.50 55.50Q374-12 268-12Q212-12 170.50 6.50Q129 25 102 59.50Q75 94 62 142.50Q49 191 49 250M132 250Q132 212 139.50 177Q147 142 163 116Q179 90 205 74Q231 58 268 58Q404 57 404 250Q404 289 396.50 324Q389 359 373 385Q357 411 331 426.50Q305 442 268 442Q132 443 132 250M317 571L272 571L157 699L157 720L252 720L317 571Z"  horiz-adv-x="536" vert-adv-y="1000"  />

      
      <glyph glyph-name="unif3" unicode="&#xf3;" d="M49 250Q49 377 105.50 444.50Q162 512 268 512Q324 512 365.50 493.50Q407 475 434 440.50Q461 406 474 357.50Q487 309 487 250Q487 123 430.50 55.50Q374-12 268-12Q212-12 170.50 6.50Q129 25 102 59.50Q75 94 62 142.50Q49 191 49 250M132 250Q132 212 139.50 177Q147 142 163 116Q179 90 205 74Q231 58 268 58Q404 57 404 250Q404 289 396.50 324Q389 359 373 385Q357 411 331 426.50Q305 442 268 442Q132 443 132 250M286 720L375 720L375 699L274 571L227 571L286 720Z"  horiz-adv-x="536" vert-adv-y="1000"  />

      
      <glyph glyph-name="unif4" unicode="&#xf4;" d="M49 250Q49 377 105.50 444.50Q162 512 268 512Q324 512 365.50 493.50Q407 475 434 440.50Q461 406 474 357.50Q487 309 487 250Q487 123 430.50 55.50Q374-12 268-12Q212-12 170.50 6.50Q129 25 102 59.50Q75 94 62 142.50Q49 191 49 250M132 250Q132 212 139.50 177Q147 142 163 116Q179 90 205 74Q231 58 268 58Q404 57 404 250Q404 289 396.50 324Q389 359 373 385Q357 411 331 426.50Q305 442 268 442Q132 443 132 250M258 732L290 732L401 550L329 550L290 616L269 674L247 616L202 550L135 550L258 732Z"  horiz-adv-x="536" vert-adv-y="1000"  />

      
      <glyph glyph-name="unif5" unicode="&#xf5;" d="M49 250Q49 377 105.50 444.50Q162 512 268 512Q324 512 365.50 493.50Q407 475 434 440.50Q461 406 474 357.50Q487 309 487 250Q487 123 430.50 55.50Q374-12 268-12Q212-12 170.50 6.50Q129 25 102 59.50Q75 94 62 142.50Q49 191 49 250M132 250Q132 212 139.50 177Q147 142 163 116Q179 90 205 74Q231 58 268 58Q404 57 404 250Q404 289 396.50 324Q389 359 373 385Q357 411 331 426.50Q305 442 268 442Q132 443 132 250M129 656Q158 689 182 701.50Q206 714 226 714Q243 714 257.50 707.50Q272 701 285.50 693.50Q299 686 311.50 680Q324 674 338 674Q360 674 384 698L408 655Q382 626 360.50 615.50Q339 605 321 605Q305 605 291 611Q277 617 263.50 624.50Q250 632 236.50 638.50Q223 645 209 645Q196 645 182.50 638Q169 631 152 614L129 656Z"  horiz-adv-x="536" vert-adv-y="1000"  />

      
      <glyph glyph-name="unif6" unicode="&#xf6;" d="M49 250Q49 377 105.50 444.50Q162 512 268 512Q324 512 365.50 493.50Q407 475 434 440.50Q461 406 474 357.50Q487 309 487 250Q487 123 430.50 55.50Q374-12 268-12Q212-12 170.50 6.50Q129 25 102 59.50Q75 94 62 142.50Q49 191 49 250M132 250Q132 212 139.50 177Q147 142 163 116Q179 90 205 74Q231 58 268 58Q404 57 404 250Q404 289 396.50 324Q389 359 373 385Q357 411 331 426.50Q305 442 268 442Q132 443 132 250M124 653Q124 676 137.50 690Q151 704 173 704Q195 704 208.50 690Q222 676 222 653Q222 632 208.50 618Q195 604 173 604Q151 604 137.50 618Q124 632 124 653M316 653Q316 676 329.50 690Q343 704 365 704Q388 704 401.50 690Q415 676 415 653Q415 632 401.50 618Q388 604 365 604Q343 604 329.50 618Q316 632 316 653Z"  horiz-adv-x="536" vert-adv-y="1000"  />

      
      <glyph glyph-name="unif7" unicode="&#xf7;" d="M40 374L464 374L464 302L40 302L40 374M194 525Q194 552 209.50 567.50Q225 583 251 583Q278 583 294 567.50Q310 552 310 525Q310 499 294 483Q278 467 251 467Q225 467 209.50 483Q194 499 194 525M194 150Q194 177 209.50 192.50Q225 208 251 208Q278 208 294 192.50Q310 177 310 150Q310 124 294 108Q278 92 251 92Q225 92 209.50 108Q194 124 194 150Z"  horiz-adv-x="505" vert-adv-y="1000"  />

      
      <glyph glyph-name="unif8" unicode="&#xf8;" d="M49 250Q49 377 105.50 444.50Q162 512 268 512Q341 512 390 480L416 515L466 478L437 436Q463 402 475 355Q487 308 487 250Q487 123 430.50 55.50Q374-12 268-12Q190-12 140 23L113-14L61 24L94 70Q71 104 60 149.50Q49 195 49 250M404 250Q404 282 399 311.50Q394 341 383 365L184 88Q200 75 220.50 66.50Q241 58 268 58Q404 57 404 250M132 250Q132 220 136.50 192Q141 164 150 141L347 415Q332 427 312.50 434.50Q293 442 268 442Q132 443 132 250Z"  horiz-adv-x="536" vert-adv-y="1000"  />

      
      <glyph glyph-name="unif9" unicode="&#xf9;" d="M149 500L149 215Q149 176 153.50 146.50Q158 117 169 97.50Q180 78 199 68Q218 58 247 58Q274 58 295 66.50Q316 75 332.50 90Q349 105 361.50 124.50Q374 144 382 166L382 500L462 500L462 142Q462 106 464.50 67.50Q467 29 473 0L418 0L398 79L393 79Q370 40 331 14Q292-12 232-12Q192-12 161.50-2.50Q131 7 110.50 31Q90 55 79.50 95.50Q69 136 69 198L69 500L149 500M308 571L263 571L148 699L148 720L243 720L308 571Z"  horiz-adv-x="539" vert-adv-y="1000"  />

      
      <glyph glyph-name="unifa" unicode="&#xfa;" d="M149 500L149 215Q149 176 153.50 146.50Q158 117 169 97.50Q180 78 199 68Q218 58 247 58Q274 58 295 66.50Q316 75 332.50 90Q349 105 361.50 124.50Q374 144 382 166L382 500L462 500L462 142Q462 106 464.50 67.50Q467 29 473 0L418 0L398 79L393 79Q370 40 331 14Q292-12 232-12Q192-12 161.50-2.50Q131 7 110.50 31Q90 55 79.50 95.50Q69 136 69 198L69 500L149 500M285 720L374 720L374 699L273 571L226 571L285 720Z"  horiz-adv-x="539" vert-adv-y="1000"  />

      
      <glyph glyph-name="unifb" unicode="&#xfb;" d="M149 500L149 215Q149 176 153.50 146.50Q158 117 169 97.50Q180 78 199 68Q218 58 247 58Q274 58 295 66.50Q316 75 332.50 90Q349 105 361.50 124.50Q374 144 382 166L382 500L462 500L462 142Q462 106 464.50 67.50Q467 29 473 0L418 0L398 79L393 79Q370 40 331 14Q292-12 232-12Q192-12 161.50-2.50Q131 7 110.50 31Q90 55 79.50 95.50Q69 136 69 198L69 500L149 500M260 732L292 732L403 550L331 550L292 616L271 674L249 616L204 550L137 550L260 732Z"  horiz-adv-x="539" vert-adv-y="1000"  />

      
      <glyph glyph-name="unifc" unicode="&#xfc;" d="M149 500L149 215Q149 176 153.50 146.50Q158 117 169 97.50Q180 78 199 68Q218 58 247 58Q274 58 295 66.50Q316 75 332.50 90Q349 105 361.50 124.50Q374 144 382 166L382 500L462 500L462 142Q462 106 464.50 67.50Q467 29 473 0L418 0L398 79L393 79Q370 40 331 14Q292-12 232-12Q192-12 161.50-2.50Q131 7 110.50 31Q90 55 79.50 95.50Q69 136 69 198L69 500L149 500M125 653Q125 676 138.50 690Q152 704 174 704Q196 704 209.50 690Q223 676 223 653Q223 632 209.50 618Q196 604 174 604Q152 604 138.50 618Q125 632 125 653M317 653Q317 676 330.50 690Q344 704 366 704Q389 704 402.50 690Q416 676 416 653Q416 632 402.50 618Q389 604 366 604Q344 604 330.50 618Q317 632 317 653Z"  horiz-adv-x="539" vert-adv-y="1000"  />

      
      <glyph glyph-name="unifd" unicode="&#xfd;" d="M224 176L252 80L257 80L279 177L376 500L457 500L309 51Q292 2 275.50-44Q259-90 239-126Q219-162 194-183.50Q169-205 136-205Q100-205 77-195L91-126Q104-131 116-131Q144-131 170-101.50Q196-72 213 0L12 500L104 500L224 176M277 720L366 720L366 699L265 571L218 571L277 720Z"  horiz-adv-x="466" vert-adv-y="1000"  />

      
      <glyph glyph-name="unife" unicode="&#xfe;" d="M77 700L157 700L157 450L161 450Q181 479 214 495.50Q247 512 294 512Q394 512 443 453Q492 394 492 260Q492 197 475.50 146.50Q459 96 429 61Q399 26 356.50 7Q314-12 262-12Q225-12 203.50-7.50Q182-3 157 8L157-200L77-200L77 700M279 442Q181 443 157 335L157 86Q175 72 198 65Q221 58 259 58Q328 58 368.50 109.50Q409 161 409 261Q409 302 402 335.50Q395 369 379.50 392.50Q364 416 339.50 429Q315 442 279 442Z"  horiz-adv-x="541" vert-adv-y="1000"  />

      
      <glyph glyph-name="uniff" unicode="&#xff;" d="M224 176L252 80L257 80L279 177L376 500L457 500L309 51Q292 2 275.50-44Q259-90 239-126Q219-162 194-183.50Q169-205 136-205Q100-205 77-195L91-126Q104-131 116-131Q144-131 170-101.50Q196-72 213 0L12 500L104 500L224 176M89 653Q89 676 102.50 690Q116 704 138 704Q160 704 173.50 690Q187 676 187 653Q187 632 173.50 618Q160 604 138 604Q116 604 102.50 618Q89 632 89 653M281 653Q281 676 294.50 690Q308 704 330 704Q353 704 366.50 690Q380 676 380 653Q380 632 366.50 618Q353 604 330 604Q308 604 294.50 618Q281 632 281 653Z"  horiz-adv-x="466" vert-adv-y="1000"  />

      
      <glyph glyph-name="uni0100" unicode="&#x0100;" d="M418 194L160 194L90 0L8 0L273 711L311 711L577 0L490 0L418 194M187 266L393 266L315 479L290 585L289 585L264 477L187 266M133 843L449 843L449 781L133 781L133 843Z"  horiz-adv-x="585" vert-adv-y="1000"  />

      
      <glyph glyph-name="uni0101" unicode="&#x0101;" d="M69 463Q107 486 157.50 497Q208 508 263 508Q315 508 346.50 494Q378 480 394.50 457.50Q411 435 416.50 408Q422 381 422 354Q422 294 419 237Q416 180 416 129Q416 92 419 59Q422 26 430-2L371-2L350 68L345 68Q336 54 322.50 40.50Q309 27 290 16.50Q271 6 246-1Q221-8 189-8Q157-8 129.50 2Q102 12 82 30.50Q62 49 50.50 75Q39 101 39 134Q39 178 57 207.50Q75 237 107.50 254.50Q140 272 185.50 279.50Q231 287 286 287Q300 287 313.50 287Q327 287 341 285Q344 315 344 339Q344 394 322 416Q300 438 242 438Q225 438 205.50 435.50Q186 433 165.50 428.50Q145 424 126.50 417.50Q108 411 94 403L69 463M211 62Q239 62 261 69.50Q283 77 299 88.50Q315 100 325.50 114Q336 128 341 141L341 224Q327 225 312.50 225.50Q298 226 284 226Q253 226 223.50 222.50Q194 219 171.50 209.50Q149 200 135.50 183.50Q122 167 122 142Q122 107 147 84.50Q172 62 211 62M101 643L397 643L397 581L101 581L101 643Z"  horiz-adv-x="496" vert-adv-y="1000"  />

      
      <glyph glyph-name="uni0102" unicode="&#x0102;" d="M418 194L160 194L90 0L8 0L273 711L311 711L577 0L490 0L418 194M187 266L393 266L315 479L290 585L289 585L264 477L187 266M164 871Q181 837 216 818.50Q251 800 298 800Q346 800 379 821Q412 842 426 871L466 852Q457 823 440.50 800.50Q424 778 401.50 762Q379 746 352 738Q325 730 297 730Q270 730 243.50 737Q217 744 194 758Q171 772 152 794.50Q133 817 121 847L164 871Z"  horiz-adv-x="585" vert-adv-y="1000"  />

      
      <glyph glyph-name="uni0103" unicode="&#x0103;" d="M69 463Q107 486 157.50 497Q208 508 263 508Q315 508 346.50 494Q378 480 394.50 457.50Q411 435 416.50 408Q422 381 422 354Q422 294 419 237Q416 180 416 129Q416 92 419 59Q422 26 430-2L371-2L350 68L345 68Q336 54 322.50 40.50Q309 27 290 16.50Q271 6 246-1Q221-8 189-8Q157-8 129.50 2Q102 12 82 30.50Q62 49 50.50 75Q39 101 39 134Q39 178 57 207.50Q75 237 107.50 254.50Q140 272 185.50 279.50Q231 287 286 287Q300 287 313.50 287Q327 287 341 285Q344 315 344 339Q344 394 322 416Q300 438 242 438Q225 438 205.50 435.50Q186 433 165.50 428.50Q145 424 126.50 417.50Q108 411 94 403L69 463M211 62Q239 62 261 69.50Q283 77 299 88.50Q315 100 325.50 114Q336 128 341 141L341 224Q327 225 312.50 225.50Q298 226 284 226Q253 226 223.50 222.50Q194 219 171.50 209.50Q149 200 135.50 183.50Q122 167 122 142Q122 107 147 84.50Q172 62 211 62M141 720Q159 684 189 663.50Q219 643 253 643Q287 643 314.50 663Q342 683 359 720L401 702Q398 678 385.50 654.50Q373 631 353.50 613Q334 595 308 584Q282 573 252 573Q224 573 199 581.50Q174 590 153.50 606.50Q133 623 118 645.50Q103 668 96 697L141 720Z"  horiz-adv-x="496" vert-adv-y="1000"  />

      
      <glyph glyph-name="uni0104" unicode="&#x0104;" d="M418 194L160 194L90 0L8 0L273 711L311 711L577 0L555 0Q529-16 513.50-37.50Q498-59 498-88Q498-108 511.50-123Q525-138 550-138Q569-138 590-129L601-171Q586-183 561-189Q536-195 515-195Q471-195 443.50-171.50Q416-148 416-107Q416-72 437.50-44.50Q459-17 497 0L490 0L418 194M187 266L393 266L315 479L290 585L289 585L264 477L187 266Z"  horiz-adv-x="585" vert-adv-y="1000"  />

      
      <glyph glyph-name="uni0105" unicode="&#x0105;" d="M69 463Q107 486 157.50 497Q208 508 263 508Q315 508 346.50 494Q378 480 394.50 457.50Q411 435 416.50 408Q422 381 422 354Q422 294 419 237Q416 180 416 129Q416 92 419 59Q422 26 430-2L407-2Q382-18 368-39.50Q354-61 354-87Q354-107 367-122.50Q380-138 405-138Q424-138 445-128L456-171Q441-183 416-189Q391-195 370-195Q325-195 298-171Q271-147 271-106Q271-67 297-38.50Q323-10 368 7L350 68L345 68Q336 54 322.50 40.50Q309 27 290 16.50Q271 6 246-1Q221-8 189-8Q157-8 129.50 2Q102 12 82 30.50Q62 49 50.50 75Q39 101 39 134Q39 178 57 207.50Q75 237 107.50 254.50Q140 272 185.50 279.50Q231 287 286 287Q300 287 313.50 287Q327 287 341 285Q344 315 344 339Q344 394 322 416Q300 438 242 438Q225 438 205.50 436Q186 434 165.50 429.50Q145 425 126.50 419Q108 413 94 405L69 463M211 62Q239 62 261 69.50Q283 77 299 88.50Q315 100 325.50 114Q336 128 341 141L341 224Q327 225 312.50 225.50Q298 226 284 226Q253 226 223.50 222.50Q194 219 171.50 209.50Q149 200 135.50 183.50Q122 167 122 142Q122 107 147 84.50Q172 62 211 62Z"  horiz-adv-x="496" vert-adv-y="1000"  />

      
      <glyph glyph-name="uni0106" unicode="&#x0106;" d="M533 29Q503 6 457-3Q411-12 359-12Q296-12 241 9.50Q186 31 145 75Q104 119 80 187.50Q56 256 56 350Q56 448 82.50 516.50Q109 585 152.50 628.50Q196 672 250 692Q304 712 360 712Q420 712 458 705.50Q496 699 523 688L503 615Q455 638 366 638Q325 638 285 623Q245 608 213.50 574Q182 540 163 485Q144 430 144 350Q144 278 162 224Q180 170 211.50 134Q243 98 285.50 80Q328 62 378 62Q423 62 456.50 71Q490 80 513 94L533 29M417 870L531 870L531 849L368 752L299 752L417 870Z"  horiz-adv-x="571" vert-adv-y="1000"  />

      
      <glyph glyph-name="uni0107" unicode="&#x0107;" d="M418 33Q388 11 347-0.50Q306-12 261-12Q203-12 163 6.50Q123 25 97.50 59.50Q72 94 60.50 142.50Q49 191 49 250Q49 377 105 444.50Q161 512 266 512Q314 512 347.50 504.50Q381 497 408 483L385 414Q362 427 334 434.50Q306 442 274 442Q132 442 132 250Q132 212 139.50 177.50Q147 143 164.50 116.50Q182 90 210.50 74Q239 58 281 58Q317 58 345.50 69Q374 80 392 94L418 33M290 720L379 720L379 699L278 571L231 571L290 720Z"  horiz-adv-x="451" vert-adv-y="1000"  />

      
      <glyph glyph-name="uni0108" unicode="&#x0108;" d="M533 29Q503 6 457-3Q411-12 359-12Q296-12 241 9.50Q186 31 145 75Q104 119 80 187.50Q56 256 56 350Q56 448 82.50 516.50Q109 585 152.50 628.50Q196 672 250 692Q304 712 360 712Q420 712 458 705.50Q496 699 523 688L503 615Q455 638 366 638Q325 638 285 623Q245 608 213.50 574Q182 540 163 485Q144 430 144 350Q144 278 162 224Q180 170 211.50 134Q243 98 285.50 80Q328 62 378 62Q423 62 456.50 71Q490 80 513 94L533 29M320 870L380 870L507 768L507 747L426 747L366 796L349 831L330 797L266 747L187 747L187 769L320 870Z"  horiz-adv-x="571" vert-adv-y="1000"  />

      
      <glyph glyph-name="uni0109" unicode="&#x0109;" d="M418 33Q388 11 347-0.50Q306-12 261-12Q203-12 163 6.50Q123 25 97.50 59.50Q72 94 60.50 142.50Q49 191 49 250Q49 377 105 444.50Q161 512 266 512Q314 512 347.50 504.50Q381 497 408 483L385 414Q362 427 334 434.50Q306 442 274 442Q132 442 132 250Q132 212 139.50 177.50Q147 143 164.50 116.50Q182 90 210.50 74Q239 58 281 58Q317 58 345.50 69Q374 80 392 94L418 33M237 732L269 732L380 550L308 550L269 616L248 674L226 616L181 550L114 550L237 732Z"  horiz-adv-x="451" vert-adv-y="1000"  />

      
      <glyph glyph-name="uni010C" unicode="&#x010C;" d="M533 29Q503 6 457-3Q411-12 359-12Q296-12 241 9.50Q186 31 145 75Q104 119 80 187.50Q56 256 56 350Q56 448 82.50 516.50Q109 585 152.50 628.50Q196 672 250 692Q304 712 360 712Q420 712 458 705.50Q496 699 523 688L503 615Q455 638 366 638Q325 638 285 623Q245 608 213.50 574Q182 540 163 485Q144 430 144 350Q144 278 162 224Q180 170 211.50 134Q243 98 285.50 80Q328 62 378 62Q423 62 456.50 71Q490 80 513 94L533 29M382 746L324 746L197 849L197 870L279 870L338 820L355 786L374 819L437 870L515 870L515 848L382 746Z"  horiz-adv-x="571" vert-adv-y="1000"  />

      
      <glyph glyph-name="uni010D" unicode="&#x010D;" d="M418 33Q388 11 347-0.50Q306-12 261-12Q203-12 163 6.50Q123 25 97.50 59.50Q72 94 60.50 142.50Q49 191 49 250Q49 377 105 444.50Q161 512 266 512Q314 512 347.50 504.50Q381 497 408 483L385 414Q362 427 334 434.50Q306 442 274 442Q132 442 132 250Q132 212 139.50 177.50Q147 143 164.50 116.50Q182 90 210.50 74Q239 58 281 58Q317 58 345.50 69Q374 80 392 94L418 33M270 550L233 550L118 732L196 732L235 666L256 608L278 666L323 732L393 732L270 550Z"  horiz-adv-x="451" vert-adv-y="1000"  />

      
      <glyph glyph-name="uni010E" unicode="&#x010E;" d="M85 700Q104 703 127.50 704.50Q151 706 176.50 706.50Q202 707 226.50 707.50Q251 708 272 708Q356 708 417.50 682Q479 656 519 609.50Q559 563 578.50 498Q598 433 598 355Q598 284 579.50 218.50Q561 153 521 102.50Q481 52 417 21.50Q353-9 262-9Q246-9 220.50-8.50Q195-8 168-6.50Q141-5 118-4Q95-3 85-1L85 700M274 634Q261 634 245.50 634Q230 634 215 633Q200 632 187.50 631Q175 630 168 629L168 69Q173 68 187 67.50Q201 67 216 66.50Q231 66 245 65.50Q259 65 264 65Q334 65 381.50 89Q429 113 457.50 153.50Q486 194 498 246.50Q510 299 510 355Q510 404 499 453.50Q488 503 461 543Q434 583 388.50 608.50Q343 634 274 634M306 746L248 746L121 849L121 870L203 870L262 820L279 786L298 819L361 870L439 870L439 848L306 746Z"  horiz-adv-x="654" vert-adv-y="1000"  />

      
      <glyph glyph-name="uni010F" unicode="&#x010F;" d="M461 172Q461 121 462 79.50Q463 38 471-2L417-2L397 69L393 69Q373 34 335 11Q297-12 246-12Q146-12 97.50 51Q49 114 49 248Q49 376 109.50 442.50Q170 509 276 509Q313 509 334.50 505Q356 501 381 492L381 700L461 700L461 172M259 58Q310 58 340 84.50Q370 111 381 165L381 413Q363 427 340 433Q317 439 279 439Q210 439 171 393.50Q132 348 132 248Q132 207 138.50 172Q145 137 160 112Q175 87 199.50 72.50Q224 58 259 58M614 700Q612 671 602 640.50Q592 610 579.50 584Q567 558 554 538Q541 518 532 509L499 527Q516 563 525 608.50Q534 654 534 700L614 700Z"  horiz-adv-x="589" vert-adv-y="1000"  />

      
      <glyph glyph-name="uni0110" unicode="&#x0110;" d="M-1 392L89 392L89 700Q108 703 131.50 704.50Q155 706 180.50 706.50Q206 707 230.50 707.50Q255 708 276 708Q360 708 421.50 682Q483 656 523 609.50Q563 563 582.50 498Q602 433 602 355Q602 284 583.50 218.50Q565 153 525 102.50Q485 52 421 21.50Q357-9 266-9Q250-9 224.50-8.50Q199-8 172-6.50Q145-5 122-4Q99-3 89-1L89 332L-1 332L-1 392M278 634Q265 634 249.50 634Q234 634 219 633Q204 632 191.50 631Q179 630 172 629L172 392L319 392L319 332L172 332L172 69Q177 68 191 67.50Q205 67 220 66.50Q235 66 249 65.50Q263 65 268 65Q338 65 385.50 89Q433 113 461.50 153.50Q490 194 502 246.50Q514 299 514 355Q514 404 503 453.50Q492 503 465 543Q438 583 392.50 608.50Q347 634 278 634Z"  horiz-adv-x="658" vert-adv-y="1000"  />

      
      <glyph glyph-name="uni0111" unicode="&#x0111;" d="M461 632L542 632L542 572L461 572L461 172Q461 121 462 79.50Q463 38 471-2L417-2L397 69L393 69Q373 34 335 11Q297-12 246-12Q146-12 97.50 51Q49 114 49 248Q49 376 109.50 442.50Q170 509 276 509Q313 509 334.50 505Q356 501 381 492L381 572L224 572L224 632L381 632L381 700L461 700L461 632M259 58Q310 58 340 84.50Q370 111 381 165L381 414Q363 428 340 433.50Q317 439 279 439Q210 439 171 393.50Q132 348 132 248Q132 207 138.50 172Q145 137 160 111.50Q175 86 199.50 72Q224 58 259 58Z"  horiz-adv-x="540" vert-adv-y="1000"  />

      
      <glyph glyph-name="uni0112" unicode="&#x0112;" d="M85 700L466 700L466 626L168 626L168 397L441 397L441 323L168 323L168 74L471 74L471 0L85 0L85 700M109 843L425 843L425 781L109 781L109 843Z"  horiz-adv-x="536" vert-adv-y="1000"  />

      
      </font>
</defs>
</svg>
